<svg id="Capa_1" enable-background="new 0 0 510 510" height="512" viewBox="0 0 510 510" width="512" xmlns="http://www.w3.org/2000/svg" xmlns:xlink="http://www.w3.org/1999/xlink"><linearGradient id="lg1"><stop offset="0" stop-color="#fbc56d"/><stop offset=".593" stop-color="#dc8758"/><stop offset="1" stop-color="#9e5528"/></linearGradient><linearGradient id="SVGID_1_" gradientUnits="userSpaceOnUse" x1="-10" x2="212.441" xlink:href="#lg1" y1="150.307" y2="150.307"/><linearGradient id="SVGID_2_" gradientUnits="userSpaceOnUse" x1="-10" x2="212.441" xlink:href="#lg1" y1="314.727" y2="314.727"/><linearGradient id="SVGID_3_" gradientUnits="userSpaceOnUse" x1="-10" x2="212.441" xlink:href="#lg1" y1="400.756" y2="400.756"/><linearGradient id="SVGID_4_" gradientUnits="userSpaceOnUse" x1="296" x2="515.317" xlink:href="#lg1" y1="150.307" y2="150.307"/><linearGradient id="SVGID_5_" gradientUnits="userSpaceOnUse" x1="296" x2="515.317" xlink:href="#lg1" y1="314.727" y2="314.727"/><linearGradient id="SVGID_6_" gradientUnits="userSpaceOnUse" x1="296" x2="515.317" xlink:href="#lg1" y1="400.756" y2="400.756"/><linearGradient id="SVGID_7_" gradientUnits="userSpaceOnUse" x1="76.046" x2="359.853" xlink:href="#lg1" y1="70.36" y2="70.36"/><linearGradient id="SVGID_8_" gradientUnits="userSpaceOnUse" x1="148.215" x2="401.848" xlink:href="#lg1" y1="142.417" y2="142.417"/><linearGradient id="SVGID_9_" gradientUnits="userSpaceOnUse" x1="119.544" x2="339.686" xlink:href="#lg1" y1="142.417" y2="142.417"/><linearGradient id="SVGID_10_" gradientUnits="userSpaceOnUse" x1="-132.443" x2="188.74" xlink:href="#lg1" y1="208.05" y2="208.05"/><linearGradient id="SVGID_11_" gradientUnits="userSpaceOnUse" x1="-132.443" x2="188.74" xlink:href="#lg1" y1="257.746" y2="257.746"/><linearGradient id="SVGID_12_" gradientUnits="userSpaceOnUse" x1="-132.443" x2="188.74" xlink:href="#lg1" y1="361.455" y2="361.455"/><linearGradient id="SVGID_13_" gradientUnits="userSpaceOnUse" x1="56.196" x2="528.389" xlink:href="#lg1" y1="321.83" y2="321.83"/><linearGradient id="SVGID_14_" gradientUnits="userSpaceOnUse" x1="3" x2="427.05" xlink:href="#lg1" y1="321.83" y2="321.83"/><g><g><path d="m190.893 204.29-53.965-20.441c-9.405-3.563-16.854-10.995-20.439-20.392l-34.229-89.735c-3.444-9.032-13.558-13.56-22.588-10.114-9.03 3.445-13.558 13.558-10.113 22.588l34.229 89.734c7.145 18.731 21.994 33.547 40.742 40.648l53.965 20.441c2.041.773 4.136 1.14 6.196 1.14 7.063 0 13.718-4.309 16.368-11.306 3.423-9.038-1.128-19.14-10.166-22.563z" fill="url(#SVGID_1_)"/><path d="m130.09 228.014-53.963 20.441c-18.748 7.101-33.599 21.917-40.743 40.648l-34.23 89.735c-3.445 9.03 1.083 19.143 10.113 22.587 2.053.783 4.16 1.154 6.234 1.154 7.048 0 13.692-4.29 16.354-11.268l34.229-89.735c3.585-9.397 11.034-16.829 20.439-20.392l53.964-20.441c9.038-3.423 13.59-13.526 10.166-22.564-3.423-9.038-13.525-13.59-22.563-10.165z" fill="url(#SVGID_2_)"/><path d="m109.771 397.687c-4.11-9.178-4.098-19.701.033-28.871l23.704-52.613c3.971-8.812.045-19.174-8.767-23.144-8.811-3.968-19.174-.046-23.144 8.767l-23.704 52.613c-8.235 18.279-8.26 39.256-.066 57.552l39.248 87.656c2.909 6.499 9.294 10.353 15.981 10.353 2.39 0 4.819-.493 7.142-1.532 8.821-3.95 12.771-14.303 8.82-23.124z" fill="url(#SVGID_3_)"/></g><g><path d="m426.213 175.93 34.229-89.734c3.444-9.03-1.083-19.143-10.113-22.588s-19.144 1.083-22.588 10.114l-34.229 89.734c-3.585 9.396-11.034 16.829-20.439 20.392l-53.965 20.441c-9.038 3.424-13.59 13.526-10.166 22.564 2.65 6.997 9.305 11.306 16.368 11.306 2.061 0 4.155-.366 6.196-1.14l53.965-20.441c18.748-7.101 33.597-21.917 40.742-40.648z" fill="url(#SVGID_4_)"/><path d="m508.846 378.838-34.229-89.735c-7.145-18.731-21.995-33.547-40.743-40.648l-53.963-20.441c-9.038-3.424-19.141 1.127-22.564 10.167-3.424 9.038 1.128 19.141 10.166 22.564l53.964 20.441c9.405 3.563 16.854 10.995 20.439 20.392l34.229 89.735c2.661 6.978 9.306 11.268 16.354 11.268 2.074 0 4.182-.371 6.234-1.154 9.03-3.446 13.558-13.559 10.113-22.589z" fill="url(#SVGID_5_)"/><path d="m408.401 301.827c-3.97-8.813-14.333-12.735-23.144-8.767-8.812 3.97-12.737 14.332-8.767 23.144l23.704 52.613c4.131 9.17 4.144 19.693.033 28.871l-39.248 87.657c-3.95 8.821-.001 19.174 8.82 23.124 2.322 1.04 4.752 1.532 7.142 1.532 6.688 0 13.072-3.854 15.981-10.353l39.248-87.656c8.193-18.295 8.169-39.272-.066-57.552z" fill="url(#SVGID_6_)"/></g><path d="m365.85 5.13c-6.84-6.84-17.92-6.84-24.75 0l-86.1 86.1-86.1-86.1c-6.83-6.84-17.91-6.84-24.75 0-6.83 6.83-6.83 17.91 0 24.74l110.85 110.85 110.85-110.85c6.83-6.83 6.83-17.91 0-24.74z" fill="url(#SVGID_7_)"/><circle cx="255" cy="142.417" fill="url(#SVGID_8_)" r="82.735"/><path d="m255 59.681c-6.902 0-13.601.859-20.01 2.451 36.023 8.95 62.725 41.493 62.725 80.284s-26.702 71.334-62.725 80.284c6.409 1.592 13.108 2.451 20.01 2.451 45.693 0 82.735-37.042 82.735-82.735s-37.042-82.735-82.735-82.735z" fill="url(#SVGID_9_)"/><g><path d="m190.89 204.29-53.96-20.44c-3.71-1.4-7.12-3.41-10.1-5.91-8.13 8.2-15.48 17.35-21.9 27.3 5.82 4.77 12.43 8.62 19.6 11.34l53.96 20.44c2.05.77 4.14 1.14 6.2 1.14 7.06 0 13.72-4.31 16.37-11.31 3.42-9.03-1.13-19.14-10.17-22.56z" fill="url(#SVGID_10_)"/><path d="m130.09 228.01-44.19 16.74c-4.7 13.85-7.84 28.57-9.19 43.87 3.37-3.2 7.37-5.75 11.81-7.43l53.97-20.45c9.04-3.42 13.59-13.52 10.16-22.56-3.42-9.04-13.52-13.59-22.56-10.17z" fill="url(#SVGID_11_)"/><path d="m124.74 293.06c-8.81-3.97-19.17-.05-23.14 8.77l-20.89 46.36c7.36 32.38 22.96 61.1 44.15 83.21l-15.09-33.71c-4.11-9.18-4.1-19.7.03-28.87l23.71-52.62c3.97-8.81.04-19.17-8.77-23.14z" fill="url(#SVGID_12_)"/></g><path d="m409.03 305.679c0-95.003-68.962-172.018-154.03-172.018s-154.03 77.015-154.03 172.018c0 70.235 37.692 130.636 91.718 157.357 13.12 6.489 24.169 16.379 32.172 28.635 7.336 11.233 18.119 18.329 30.14 18.329s22.804-7.096 30.139-18.329c8.003-12.255 19.052-22.146 32.172-28.635 54.026-26.721 91.719-87.122 91.719-157.357z" fill="url(#SVGID_13_)"/><path d="m255 133.661c-6.782 0-13.46.494-20.01 1.443 53.026 7.683 97.586 45.482 119.479 97.531h-167.299c-6.886 0-12.792 5.387-12.918 12.271-.128 7.014 5.519 12.74 12.503 12.74h147.356c17.855 0 32.671 13.7 34.194 31.49.466 5.444.705 10.962.705 16.543 0 1.234-.039 2.458-.062 3.686-.261-.016-.521-.04-.787-.04h-147.648c-6.907 0-12.505 5.599-12.505 12.505 0 6.907 5.599 12.506 12.505 12.506h110.205c19.617 0 33.201 19.608 26.291 37.967-1.761 4.679-3.702 9.253-5.815 13.711-.001 0-.001 0-.001 0h-96.023c-6.886 0-12.792 5.387-12.918 12.271-.128 7.014 5.519 12.74 12.503 12.74h46.957c14.51 0 21.617 17.872 10.922 27.678-10.621 9.738-22.429 17.921-35.146 24.234-13.102 6.505-24.339 16.383-32.312 28.646-2.897 4.457-6.343 8.252-10.186 11.23 5.888 4.563 12.718 7.187 20.01 7.187 12.05 0 22.855-7.13 30.192-18.41 7.964-12.245 19.026-22.078 32.119-28.554 54.026-26.721 91.718-87.122 91.718-157.357.001-95.003-68.961-172.018-154.029-172.018z" fill="url(#SVGID_14_)"/></g></svg>