<svg id="Capa_1" enable-background="new 0 0 510 510" height="512" viewBox="0 0 510 510" width="512" xmlns="http://www.w3.org/2000/svg" xmlns:xlink="http://www.w3.org/1999/xlink"><linearGradient id="lg1"><stop offset="0" stop-color="#fe646f"/><stop offset=".593" stop-color="#fb2b3a"/><stop offset="1" stop-color="#c41926"/></linearGradient><linearGradient id="SVGID_1_" gradientUnits="userSpaceOnUse" x1="140.625" x2="263.22" xlink:href="#lg1" y1="91.615" y2="91.615"/><linearGradient id="SVGID_2_" gradientUnits="userSpaceOnUse" x1="78.961" x2="255.396" xlink:href="#lg1" y1="91.615" y2="91.615"/><linearGradient id="SVGID_3_" gradientUnits="userSpaceOnUse" x1="77.627" x2="350.684" xlink:href="#lg1" y1="297.904" y2="297.904"/><linearGradient id="SVGID_4_" gradientUnits="userSpaceOnUse" x1="-16.373" x2="338.944" xlink:href="#lg1" y1="297.904" y2="297.904"/><linearGradient id="SVGID_5_" gradientUnits="userSpaceOnUse" x1="11.063" x2="306.093" xlink:href="#lg1" y1="326.454" y2="326.454"/><linearGradient id="SVGID_6_" gradientUnits="userSpaceOnUse" x1=".627" x2="242.702" xlink:href="#lg1" y1="326.454" y2="326.454"/><linearGradient id="lg2"><stop offset="0" stop-color="#fbc56d"/><stop offset=".593" stop-color="#dc8758"/><stop offset="1" stop-color="#9e5528"/></linearGradient><linearGradient id="SVGID_7_" gradientUnits="userSpaceOnUse" x1="69.573" x2="508.908" xlink:href="#lg2" y1="326.351" y2="326.351"/><linearGradient id="SVGID_8_" gradientUnits="userSpaceOnUse" x1="20" x2="468.126" xlink:href="#lg2" y1="328.851" y2="328.851"/><linearGradient id="lg3"><stop offset="0" stop-color="#b0e7c9"/><stop offset=".593" stop-color="#46cc8d"/><stop offset="1" stop-color="#0ab69f"/></linearGradient><linearGradient id="SVGID_9_" gradientUnits="userSpaceOnUse" x1="27.297" x2="502.363" xlink:href="#lg3" y1="418.585" y2="418.585"/><linearGradient id="SVGID_10_" gradientUnits="userSpaceOnUse" x1="-14" x2="177.262" xlink:href="#lg3" y1="357.55" y2="357.55"/><linearGradient id="lg4"><stop offset="0" stop-color="#46cc8d"/><stop offset=".5484" stop-color="#0ab69f"/><stop offset="1" stop-color="#01998d"/></linearGradient><linearGradient id="SVGID_11_" gradientUnits="userSpaceOnUse" x1="308.681" x2="476.942" xlink:href="#lg4" y1="418.585" y2="418.585"/><linearGradient id="SVGID_12_" gradientUnits="userSpaceOnUse" x1="-13.422" x2="273.691" xlink:href="#lg3" y1="334.314" y2="334.314"/><linearGradient id="SVGID_13_" gradientUnits="userSpaceOnUse" x1="121" x2="260" xlink:href="#lg4" y1="334.314" y2="334.314"/><linearGradient id="SVGID_14_" gradientUnits="userSpaceOnUse" x1="279.845" x2="566.958" xlink:href="#lg3" y1="334.314" y2="334.314"/><linearGradient id="SVGID_15_" gradientUnits="userSpaceOnUse" x1="289.786" x2="498.788" xlink:href="#lg4" y1="334.314" y2="334.314"/><linearGradient id="lg5"><stop offset="0" stop-color="#fff9df"/><stop offset=".593" stop-color="#ffe177"/><stop offset="1" stop-color="#feb237"/></linearGradient><linearGradient id="SVGID_16_" gradientUnits="userSpaceOnUse" x1="209.619" x2="320.705" xlink:href="#lg5" y1="467.029" y2="467.029"/><linearGradient id="SVGID_17_" gradientUnits="userSpaceOnUse" x1="209.619" x2="320.705" xlink:href="#lg5" y1="439.701" y2="439.701"/><linearGradient id="SVGID_19_" gradientUnits="userSpaceOnUse" x1="209.619" x2="320.705" xlink:href="#lg5" y1="416.19" y2="416.19"/><g><g><path d="m188.627 0c-26.62 0-48.21 21.58-48.21 48.21v135.02h96.42v-135.02c0-26.63-21.59-48.21-48.21-48.21zm0 84.3c-15.19 0-27.5-12.31-27.5-27.5s12.31-27.5 27.5-27.5 27.5 12.31 27.5 27.5-12.31 27.5-27.5 27.5z" fill="url(#SVGID_1_)"/><path d="m236.837 48.21c0-26.63-21.59-48.21-48.21-48.21-7.141 0-13.913 1.565-20.01 4.352 11.023 5.038 19.817 14.105 24.497 25.319 13.054 2.143 23.012 13.469 23.012 27.13 0 12.338-8.121 22.775-19.31 26.26v100.17h40.02v-135.021z" fill="url(#SVGID_2_)"/></g><g><path d="m315.424 397.391-17.339-133.988c-7.12-55.021-53.978-96.206-109.458-96.206-55.48 0-102.338 41.185-109.458 96.206l-17.338 133.988c-1.973 15.245 8.666 28.903 23.331 31.22l11.759-108.459c5.965-55.021 45.224-96.206 91.706-96.206 46.483 0 85.741 41.185 91.706 96.206l11.759 108.459c14.666-2.317 25.305-15.975 23.332-31.22z" fill="url(#SVGID_3_)"/><path d="m315.424 397.391-17.339-133.988c-7.12-55.021-53.978-96.206-109.458-96.206-6.82 0-13.508.626-20.01 1.819 45.606 8.374 81.956 44.868 89.104 91.953 11.994 16.081 20.147 36.448 22.612 59.183l11.759 108.459c14.666-2.317 25.305-15.975 23.332-31.22z" fill="url(#SVGID_4_)"/><path d="m280.337 320.154 11.76 108.46c-1.44.23-2.91.35-4.42.35h-198.1c-1.51 0-2.98-.12-4.42-.35l11.76-108.46c5.97-55.02 45.23-96.21 91.71-96.21 23.24 0 44.68 10.3 61.05 27.47 16.37 17.18 27.67 41.23 30.66 68.74z" fill="url(#SVGID_5_)"/><path d="m280.337 320.154c-2.99-27.51-14.29-51.56-30.66-68.74-16.37-17.17-37.81-27.47-61.05-27.47-4.235 0-8.41.346-12.506 1.009 18.38 2.977 35.158 12.419 48.545 26.461 16.37 17.18 27.67 41.23 30.66 68.74l11.76 108.46c-1.44.23-2.91.35-4.42.35h25.011c1.51 0 2.98-.12 4.42-.35z" fill="url(#SVGID_6_)"/></g><g><g><path d="m353.75 290.106c-6.1 0-12.01.77-17.66 2.22-5.06-18.55-22.01-32.18-42.16-32.18-13.19 0-25.02 5.86-33.03 15.1-12.82-12.43-30.29-20.1-49.56-20.1-34.43 0-63.15 24.44-69.77 56.91-4.06-1.24-8.36-1.91-12.82-1.91-24.14 0-43.71 19.57-43.71 43.71 0 24.13 19.57 43.7 43.71 43.7h286.31c6.17-10.4 9.76-22.52 9.89-35.46.01-.26.01-.52.01-.78 0-39.33-31.88-71.21-71.21-71.21z" fill="url(#SVGID_7_)"/><path d="m353.75 290.106c-6.1 0-12.01.77-17.66 2.22-5.06-18.55-22.01-32.18-42.16-32.18-7.208 0-14.004 1.76-19.999 4.856 6.001 3.1 11.192 7.548 15.172 12.945 5.721 7.759 14.804 12.184 24.444 12.159h.183c17.093 0 32.775 6.027 45.048 16.065h-62.867c-15.543 0-28.144 12.6-28.144 28.144 0 15.543 12.6 28.144 28.144 28.144h25.716c-6 15.073-20.692 25.472-37.557 25.472h-109.14c-20.24 0-37.36-14.97-40.07-35.03l-3.47-25.73h-37.247c-5.702 7.384-9.103 16.635-9.103 26.686 0 24.13 19.57 43.7 43.71 43.7h286.31c6.17-10.4 9.76-22.52 9.89-35.46.01-.26.01-.52.01-.78 0-39.331-31.88-71.211-71.21-71.211z" fill="url(#SVGID_8_)"/></g><g><path d="m463 327.17-15.01 111.4c-5.52 40.91-40.43 71.43-81.7 71.43h-222.58c-41.27 0-76.18-30.52-81.7-71.43l-15.01-111.4h109.89l3.47 25.73c2.71 20.06 19.83 35.03 40.07 35.03h109.14c20.24 0 37.36-14.97 40.07-35.03l3.47-25.73z" fill="url(#SVGID_9_)"/><path d="m194.34 387.47c1.99.3 4.02.46 6.09.46h-40.02c-2.07 0-4.1-.16-6.09-.46h-99.2l-3.37-25.01-4.75-35.29h109.89l3.47 25.73c.45 3.34 1.31 6.55 2.51 9.56 5.26 13.23 17.22 22.85 31.47 25.01z" fill="url(#SVGID_10_)"/><path d="m463 327.17-4.75 35.29-3.37 25.01-6.89 51.1c-5.52 40.91-40.43 71.43-81.7 71.43h-40.02c41.27 0 76.18-30.52 81.7-71.43 3.646-27.044-17.384-51.1-44.672-51.1h-47.638c14.25-2.16 26.21-11.78 31.47-25.01 1.2-3.01 2.06-6.22 2.51-9.56l3.47-25.73z" fill="url(#SVGID_11_)"/><g><path d="m28.144 362.458h160.445c15.543 0 28.144-12.6 28.144-28.144 0-15.543-12.6-28.144-28.144-28.144h-160.445c-15.544.001-28.144 12.601-28.144 28.144 0 15.544 12.6 28.144 28.144 28.144z" fill="url(#SVGID_12_)"/><path d="m188.589 306.171h-40.02c15.543 0 28.144 12.6 28.144 28.144 0 15.543-12.601 28.144-28.144 28.144h40.02c15.543 0 28.144-12.6 28.144-28.144 0-15.544-12.601-28.144-28.144-28.144z" fill="url(#SVGID_13_)"/></g><g><path d="m321.411 362.458h160.445c15.543 0 28.144-12.6 28.144-28.144 0-15.543-12.6-28.144-28.144-28.144h-160.445c-15.543 0-28.144 12.6-28.144 28.144 0 15.544 12.6 28.144 28.144 28.144z" fill="url(#SVGID_14_)"/><path d="m481.856 306.171h-40.02c15.543 0 28.144 12.6 28.144 28.144 0 15.543-12.601 28.144-28.144 28.144h40.02c15.543 0 28.144-12.6 28.144-28.144 0-15.544-12.601-28.144-28.144-28.144z" fill="url(#SVGID_15_)"/></g></g></g><g><path d="m255 438.116c-9.562 0-18.551 3.724-25.312 10.485s-10.485 15.751-10.485 25.312c0 5.947 1.49 11.838 4.308 17.037 1.356 2.501 3.733 4.254 6.521 4.807 2.77.55 5.614-.154 7.803-1.932 4.901-3.98 10.837-6.084 17.164-6.084s12.262 2.104 17.164 6.084c1.702 1.382 3.799 2.115 5.951 2.115.871 0 1.751-.12 2.616-.366 2.537-.721 4.631-2.51 5.872-4.837 2.814-5.276 4.262-11.236 4.191-17.254-.112-9.504-3.881-18.402-10.614-25.054-6.731-6.65-15.674-10.313-25.179-10.313z" fill="url(#SVGID_16_)"/><circle cx="220.579" cy="439.701" fill="url(#SVGID_17_)" r="10.909"/><circle cx="289.421" cy="439.701" fill="url(#SVGID_17_)" r="10.909"/><g fill="url(#SVGID_19_)"><circle cx="270.999" cy="416.19" r="10.909"/><circle cx="239.001" cy="416.19" r="10.909"/></g></g></g></svg>