<svg id="Capa_1" enable-background="new 0 0 510 510" height="512" viewBox="0 0 510 510" width="512" xmlns="http://www.w3.org/2000/svg" xmlns:xlink="http://www.w3.org/1999/xlink"><linearGradient id="lg1"><stop offset="0" stop-color="#fbc56d"/><stop offset=".593" stop-color="#dc8758"/><stop offset="1" stop-color="#9e5528"/></linearGradient><linearGradient id="SVGID_1_" gradientTransform="matrix(1 0 0 -1 0 244.519)" gradientUnits="userSpaceOnUse" x1="56.518" x2="319.192" xlink:href="#lg1" y1="79.223" y2="79.223"/><linearGradient id="SVGID_2_" gradientUnits="userSpaceOnUse" x1="-2.667" x2="234.987" xlink:href="#lg1" y1="183.23" y2="183.23"/><linearGradient id="lg2"><stop offset="0" stop-color="#ffc2b5"/><stop offset="1" stop-color="#ff89a8"/></linearGradient><linearGradient id="SVGID_3_" gradientUnits="userSpaceOnUse" x1="96.154" x2="207.172" xlink:href="#lg2" y1="189.157" y2="189.157"/><linearGradient id="SVGID_4_" gradientUnits="userSpaceOnUse" x1="25.333" x2="199.006" xlink:href="#lg2" y1="191.26" y2="191.26"/><linearGradient id="SVGID_5_" gradientUnits="userSpaceOnUse" x1="246.091" x2="500.429" xlink:href="#lg1" y1="165.296" y2="165.296"/><linearGradient id="SVGID_6_" gradientUnits="userSpaceOnUse" x1="178.594" x2="498.135" xlink:href="#lg1" y1="165.296" y2="165.296"/><linearGradient id="SVGID_7_" gradientUnits="userSpaceOnUse" x1="285.089" x2="460.728" xlink:href="#lg2" y1="189.157" y2="189.157"/><linearGradient id="SVGID_8_" gradientUnits="userSpaceOnUse" x1="234" x2="439.833" xlink:href="#lg2" y1="194.952" y2="194.952"/><linearGradient id="lg3"><stop offset="0" stop-color="#f8f6f7"/><stop offset=".1788" stop-color="#f8f6f7"/><stop offset="1" stop-color="#e7e6f5"/></linearGradient><linearGradient id="SVGID_9_" gradientUnits="userSpaceOnUse" x1="101" x2="270.107" xlink:href="#lg3" y1="278.131" y2="278.131"/><linearGradient id="SVGID_10_" gradientUnits="userSpaceOnUse" x1="232.409" x2="289.603" y1="364.733" y2="364.733"><stop offset="0" stop-color="#fe99a0"/><stop offset=".593" stop-color="#fe646f"/><stop offset="1" stop-color="#e41f2d"/></linearGradient><linearGradient id="SVGID_11_" gradientUnits="userSpaceOnUse" x1="35.047" x2="474.953" xlink:href="#lg3" y1="256.129" y2="256.129"/><linearGradient id="lg4"><stop offset="0" stop-color="#f8f6f7"/><stop offset="1" stop-color="#d1ceeb"/></linearGradient><linearGradient id="SVGID_12_" gradientUnits="userSpaceOnUse" x1="49.333" x2="451.555" xlink:href="#lg4" y1="256.125" y2="256.125"/><linearGradient id="SVGID_13_" gradientUnits="userSpaceOnUse" x1="48" x2="318.363" xlink:href="#lg1" y1="217.094" y2="217.094"/><linearGradient id="SVGID_14_" gradientUnits="userSpaceOnUse" x1="250" x2="554.725" xlink:href="#lg1" y1="217.075" y2="217.075"/><linearGradient id="SVGID_15_" gradientUnits="userSpaceOnUse" x1="154" x2="472.668" xlink:href="#lg1" y1="217.076" y2="217.076"/><linearGradient id="SVGID_16_" gradientUnits="userSpaceOnUse" x1="223.572" x2="303.138" xlink:href="#lg2" y1="295.169" y2="295.169"/><linearGradient id="lg5"><stop offset="0" stop-color="#537983"/><stop offset=".593" stop-color="#554e56"/><stop offset="1" stop-color="#433f43"/></linearGradient><linearGradient id="SVGID_17_" gradientTransform="matrix(1 0 0 -1 0 -1698.242)" gradientUnits="userSpaceOnUse" x1="149.433" x2="210.219" xlink:href="#lg5" y1="-1921.57" y2="-1921.57"/><linearGradient id="SVGID_18_" gradientTransform="matrix(1 0 0 -1 0 -1698.242)" gradientUnits="userSpaceOnUse" x1="255.182" x2="351.265" xlink:href="#lg5" y1="-1921.57" y2="-1921.57"/><linearGradient id="SVGID_19_" gradientUnits="userSpaceOnUse" x1="0" x2="112.671" xlink:href="#lg5" y1="364.733" y2="364.733"/><linearGradient id="SVGID_20_" gradientTransform="matrix(.904 -.428 .428 .904 -45.198 381.845)" gradientUnits="userSpaceOnUse" x1="27.553" x2="140.225" xlink:href="#lg5" y1="95.51" y2="95.51"/><linearGradient id="SVGID_21_" gradientTransform="matrix(.904 .428 .428 -.904 -45.198 200.826)" gradientUnits="userSpaceOnUse" x1="90.444" x2="203.115" xlink:href="#lg5" y1="-37.133" y2="-37.133"/><linearGradient id="SVGID_22_" gradientUnits="userSpaceOnUse" x1="397.328" x2="510" xlink:href="#lg5" y1="364.733" y2="364.733"/><linearGradient id="SVGID_23_" gradientTransform="matrix(.904 -.428 .428 .904 -45.198 381.845)" gradientUnits="userSpaceOnUse" x1="416.942" x2="529.614" xlink:href="#lg5" y1="130.787" y2="130.787"/><linearGradient id="SVGID_24_" gradientTransform="matrix(.904 .428 .428 -.904 -45.198 200.826)" gradientUnits="userSpaceOnUse" x1="479.832" x2="592.503" xlink:href="#lg5" y1="-1.855" y2="-1.855"/><linearGradient id="SVGID_25_" gradientUnits="userSpaceOnUse" x1="260.667" x2="397.437" xlink:href="#lg1" y1="306.013" y2="306.013"/><linearGradient id="SVGID_26_" gradientUnits="userSpaceOnUse" x1="55" x2="418.16" xlink:href="#lg4" y1="356.423" y2="356.423"/><linearGradient id="SVGID_27_" gradientUnits="userSpaceOnUse" x1="55" x2="418.16" xlink:href="#lg4" y1="361.123" y2="361.123"/><linearGradient id="SVGID_28_" gradientUnits="userSpaceOnUse" x1="78" x2="196.369" xlink:href="#lg1" y1="313.73" y2="313.73"/><g><path d="m201.9 287.555c-84.816 0-150.324-74.531-139.439-158.646l7.592-58.667c2.393-18.491 20.372-30.775 38.466-26.273 63.695 15.849 113.252 69.327 122.012 137.018l8.346 64.498c2.887 22.306-14.485 42.07-36.977 42.07z" fill="url(#SVGID_1_)"/><path d="m201.9 287.555c-11.31 0-22.27-1.32-32.76-3.82-43.7-10.4-79.09-41.14-96.37-81.07 7.37-37.44 27.32-70.77 55.48-95 13.98-12.02 29.97-21.81 47.46-28.76 20.98 18.17 37.32 41.68 46.84 68.61 3.77 10.66 6.48 21.86 7.98 33.47l8.35 64.5c2.88 22.31-14.49 42.07-36.98 42.07z" fill="url(#SVGID_2_)"/><path d="m208.333 287.555c-68.263 0-120.985-59.985-112.225-127.683l6.11-47.217c1.926-14.882 16.396-24.769 30.958-21.145 51.264 12.755 91.149 55.797 98.199 110.276l6.717 51.91c2.324 17.952-11.657 33.859-29.759 33.859z" fill="url(#SVGID_3_)"/><path d="m204.263 287.475c16.973-1.056 30.605-13.397 34.067-29.24.032-1.493-.039-3.008-.237-4.539l-6.718-51.91c-6.502-50.244-40.942-90.739-86.47-106.74-5.82 3.867-11.381 8.084-16.656 12.619-11.322 9.742-21.314 20.958-29.698 33.318l-2.444 18.889c-8.585 66.346 41.883 125.275 108.156 127.603z" fill="url(#SVGID_4_)"/><path d="m308.1 287.555c84.816 0 150.324-74.531 139.439-158.646l-7.592-58.667c-2.393-18.491-20.372-30.775-38.466-26.273-63.695 15.849-113.252 69.327-122.012 137.018l-8.346 64.498c-2.887 22.306 14.485 42.07 36.977 42.07z" fill="url(#SVGID_5_)"/><path d="m447.539 128.909-7.592-58.667c-2.393-18.491-20.372-30.775-38.466-26.273-5.072 1.262-10.053 2.765-14.933 4.492 7.073 4.818 12.18 12.521 13.378 21.781l7.592 58.667c9.717 75.086-41.441 142.529-112.866 156.144 4.159 1.608 8.686 2.502 13.447 2.502 84.817 0 150.325-74.531 139.44-158.646z" fill="url(#SVGID_6_)"/><path d="m301.667 287.555c68.263 0 120.985-59.985 112.225-127.683l-6.11-47.217c-1.926-14.882-16.396-24.769-30.958-21.145-51.264 12.755-91.149 55.797-98.199 110.276l-6.717 51.91c-2.324 17.952 11.657 33.859 29.759 33.859z" fill="url(#SVGID_7_)"/><path d="m294.653 285.054c3.472 1.342 7.203 2.178 11.11 2.42 66.26-2.343 116.714-61.265 108.129-127.602l-6.11-47.217c-.489-3.777-1.789-7.23-3.69-10.225l3.427 26.479c9.716 75.086-41.442 142.53-112.866 156.145z" fill="url(#SVGID_8_)"/><path d="m453.266 288.74c-16.602-18.092-33.327-40.214-37.416-64.426-13.257-78.5-76.58-135.016-160.85-135.016v1c-84.271 0-147.594 55.516-160.851 134.016-4.089 24.212-20.814 46.334-37.416 64.426-14.077 15.34-22.421 36.022-21.635 58.662 1.455 41.908 34.68 76.37 76.507 79.347.293.021.585.04.877.058 21.531 1.307 42.57 7.283 61.192 18.168 23.979 14.016 51.817 21.988 81.325 21.988 29.509 0 57.346-7.972 81.325-21.988 18.623-10.885 39.662-16.861 61.194-18.168.291-.018.582-.037.874-.058 41.827-2.976 75.052-37.439 76.508-79.346.788-22.64-7.556-43.322-21.634-58.663z" fill="url(#SVGID_9_)"/><path d="m262.626 336.904h-15.252c-11.899 0-19.336 17.92-13.387 32.255l4.063 9.791c7.533 18.151 26.365 18.151 33.898 0l4.063-9.791c5.951-14.336-1.486-32.255-13.385-32.255z" fill="url(#SVGID_10_)"/><path d="m452.153 287.551c-16.551-17.341-39.36-39.073-43.304-62.717-10.514-63.034-45.185-115.359-105.967-133.584-15.066-4.517-31.119-6.951-47.882-6.951-14.749 0-28.949 1.884-42.41 5.414-63.49 16.649-99.965 74.149-110.863 138.963-4.065 24.178-28.417 42.001-44.994 60.065-14.077 15.34-22.421 36.022-21.635 58.662 1.455 41.908 34.68 76.37 76.507 79.347.292.021.585.04.877.058.598.036 1.232.095 1.899.176 49.951 6.022 99.333-16.087 126.112-58.682 4.489-7.139 9.375-11.068 14.506-11.068 5.132 0 10.018 3.929 14.507 11.069 26.78 42.595 76.162 64.705 126.113 58.681.668-.081 1.301-.139 1.899-.176.134-.008.269-.017.403-.025 39.178-2.568 71.469-32.683 76.359-71.639 3.295-26.244-5.755-50.44-22.127-67.593z" fill="url(#SVGID_11_)"/><path d="m452.153 287.551c-16.551-17.341-29.303-39.262-33.247-62.907-13.121-78.658-79.517-140.346-163.906-140.346-6.78 0-13.456.404-20.009 1.177 75.011 8.851 133.829 66.832 145.895 139.169 3.944 23.645 14.696 45.566 31.247 62.907 16.372 17.153 25.422 41.349 22.128 67.593-4.791 38.171-35.895 67.834-74.002 71.432 11.556 1.663 23.44 1.846 35.361.408.667-.08 1.301-.139 1.899-.176.134-.008.269-.017.403-.025 39.178-2.568 71.469-32.682 76.359-71.639 3.294-26.244-5.756-50.44-22.128-67.593z" fill="url(#SVGID_12_)"/><path d="m208.233 90.861c15.782-4.552 31.517 7.355 31.517 23.781v64.813c0 91.05-73.81 164.85-164.85 164.85-13.69 0-26.98-1.67-39.7-4.81 1.16-19.53 9.11-37.22 21.53-50.75 16.6-18.1 28.33-40.22 32.42-64.43 6.63-39.25 27.03-74.26 56.3-99.45 17.965-15.455 39.267-27.222 62.783-34.004z" fill="url(#SVGID_13_)"/><path d="m474.8 339.495c-12.72 3.14-26.01 4.81-39.7 4.81-91.04 0-164.85-73.8-164.85-164.85v-64.822c0-16.341 15.613-28.338 31.321-23.83 61.941 17.776 108.569 70.106 119.279 133.512 4.09 24.21 15.81 46.33 32.42 64.42 12.42 13.54 20.37 31.23 21.53 50.76z" fill="url(#SVGID_14_)"/><path d="m420.85 224.315c-10.71-63.407-57.338-115.736-119.279-133.512-8.745-2.51-17.456.1-23.465 5.723 53.697 21.749 93.144 70.355 102.78 128.118 3.944 23.645 14.696 45.566 31.247 62.907 14.089 14.762 22.748 34.742 22.791 56.752.059 0 .117.002.176.002 13.69 0 26.98-1.67 39.7-4.81-1.16-19.53-9.11-37.22-21.53-50.76-16.61-18.09-28.33-40.21-32.42-64.42z" fill="url(#SVGID_15_)"/><path d="m265.609 267.339h-21.217c-16.553 0-26.899 17.92-18.623 32.255l5.653 9.791c10.479 18.151 36.678 18.151 47.157 0l5.653-9.791c8.276-14.335-2.07-32.255-18.623-32.255z" fill="url(#SVGID_16_)"/><g><path d="m181.499 205.174c-15.635 0-28.354 12.719-28.354 28.353 0 4.393 3.561 7.955 7.955 7.955 4.393 0 7.954-3.561 7.954-7.955 0-6.862 5.583-12.444 12.445-12.444s12.444 5.583 12.444 12.444c0 4.393 3.561 7.955 7.955 7.955 4.393 0 7.955-3.561 7.955-7.955 0-15.633-12.72-28.353-28.354-28.353z" fill="url(#SVGID_17_)"/><path d="m328.501 205.174c-15.635 0-28.354 12.719-28.354 28.353 0 4.393 3.561 7.955 7.954 7.955s7.955-3.561 7.955-7.955c0-6.862 5.583-12.444 12.445-12.444s12.444 5.583 12.444 12.444c0 4.393 3.561 7.955 7.954 7.955s7.955-3.561 7.955-7.955c.001-15.633-12.719-28.353-28.353-28.353z" fill="url(#SVGID_18_)"/></g><g><g><g><path d="m105.171 372.233h-97.671c-4.142 0-7.5-3.358-7.5-7.5s3.358-7.5 7.5-7.5h97.671c4.142 0 7.5 3.358 7.5 7.5s-3.358 7.5-7.5 7.5z" fill="url(#SVGID_19_)"/></g><g><path d="m27.399 460.63c-2.808 0-5.5-1.583-6.782-4.289-1.774-3.743-.179-8.216 3.563-9.99l88.254-41.844c3.74-1.773 8.215-.18 9.99 3.563s.179 8.216-3.563 9.99l-88.254 41.844c-1.037.493-2.131.726-3.208.726z" fill="url(#SVGID_20_)"/></g><g><path d="m115.643 325.685c-1.077 0-2.17-.233-3.208-.725l-88.254-41.844c-3.743-1.774-5.338-6.247-3.564-9.99 1.775-3.743 6.249-5.338 9.99-3.564l88.254 41.844c3.743 1.774 5.338 6.247 3.564 9.99-1.283 2.705-3.975 4.289-6.782 4.289z" fill="url(#SVGID_21_)"/></g></g></g><g><path d="m502.5 372.233h-97.672c-4.143 0-7.5-3.358-7.5-7.5s3.357-7.5 7.5-7.5h97.672c4.143 0 7.5 3.358 7.5 7.5s-3.357 7.5-7.5 7.5z" fill="url(#SVGID_22_)"/><path d="m394.356 325.685c-2.807 0-5.499-1.583-6.782-4.289-1.774-3.743-.179-8.215 3.564-9.99l88.254-41.844c3.738-1.776 8.214-.18 9.99 3.564 1.774 3.743.179 8.215-3.564 9.99l-88.254 41.844c-1.037.492-2.13.725-3.208.725z" fill="url(#SVGID_23_)"/><path d="m482.601 460.63c-1.077 0-2.171-.233-3.208-.725l-88.254-41.844c-3.743-1.774-5.339-6.247-3.563-9.99 1.774-3.743 6.251-5.337 9.989-3.563l88.254 41.844c3.743 1.774 5.339 6.247 3.563 9.99-1.282 2.704-3.975 4.288-6.781 4.288z" fill="url(#SVGID_24_)"/></g><g><g><circle cx="365.584" cy="306.012" fill="url(#SVGID_25_)" r="8"/><path d="m336.061 340.612c-8.732 0-15.811 7.079-15.811 15.811s7.079 15.811 15.811 15.811 15.811-7.079 15.811-15.811c0-8.733-7.078-15.811-15.811-15.811z" fill="url(#SVGID_26_)"/><path d="m384.789 350.012c-6.136 0-11.11 4.974-11.11 11.111 0 6.136 4.974 11.11 11.11 11.11s11.111-4.974 11.111-11.11-4.975-11.111-11.111-11.111z" fill="url(#SVGID_27_)"/></g><g><circle cx="144.867" cy="313.73" fill="url(#SVGID_28_)" r="8"/><path d="m129.911 340.612c-8.732 0-15.811 7.079-15.811 15.811s7.079 15.811 15.811 15.811 15.811-7.079 15.811-15.811c0-8.733-7.079-15.811-15.811-15.811z" fill="url(#SVGID_26_)"/><path d="m178.639 350.012c-6.136 0-11.11 4.974-11.11 11.111 0 6.136 4.974 11.11 11.11 11.11s11.111-4.974 11.111-11.11c-.001-6.136-4.975-11.111-11.111-11.111z" fill="url(#SVGID_27_)"/></g></g></g></svg>