<svg id="Capa_1" enable-background="new 0 0 510 510" height="512" viewBox="0 0 510 510" width="512" xmlns="http://www.w3.org/2000/svg" xmlns:xlink="http://www.w3.org/1999/xlink"><linearGradient id="lg1"><stop offset="0" stop-color="#01d0fb"/><stop offset=".6075" stop-color="#26a6fe"/><stop offset="1" stop-color="#0182fc"/></linearGradient><linearGradient id="SVGID_1_" gradientUnits="userSpaceOnUse" x1="77.626" x2="644.34" xlink:href="#lg1" y1="127.805" y2="127.805"/><linearGradient id="SVGID_2_" gradientUnits="userSpaceOnUse" x1="104" x2="285.995" xlink:href="#lg1" y1="127.805" y2="127.805"/><linearGradient id="SVGID_3_" gradientUnits="userSpaceOnUse" x1="182" x2="462.713" y1="127.805" y2="127.805"><stop offset="0" stop-color="#01bffa"/><stop offset=".2539" stop-color="#1f9efc"/><stop offset=".5724" stop-color="#407afd"/><stop offset=".8326" stop-color="#5464ff"/><stop offset="1" stop-color="#5b5cff"/></linearGradient><linearGradient id="lg2"><stop offset="0" stop-color="#fff9df"/><stop offset=".593" stop-color="#ffe177"/><stop offset="1" stop-color="#feb237"/></linearGradient><linearGradient id="SVGID_4_" gradientUnits="userSpaceOnUse" x1="170" x2="304.06" xlink:href="#lg2" y1="151.416" y2="151.416"/><linearGradient id="SVGID_5_" gradientUnits="userSpaceOnUse" x1="177.259" x2="319.752" y1="151.416" y2="151.416"><stop offset="0" stop-color="#ffe177"/><stop offset="1" stop-color="#feb237"/></linearGradient><linearGradient id="SVGID_6_" gradientUnits="userSpaceOnUse" x1="32" x2="413.755" xlink:href="#lg2" y1="326.224" y2="326.224"/><linearGradient id="SVGID_7_" gradientUnits="userSpaceOnUse" x1="1" x2="360.707" xlink:href="#lg2" y1="326.225" y2="326.225"/><linearGradient id="SVGID_8_" gradientUnits="userSpaceOnUse" x1="71.572" x2="504" xlink:href="#lg2" y1="326.224" y2="326.224"/><linearGradient id="SVGID_9_" gradientUnits="userSpaceOnUse" x1="198" x2="407.002" xlink:href="#lg2" y1="326.224" y2="326.224"/><linearGradient id="lg3"><stop offset="0" stop-color="#537983"/><stop offset=".593" stop-color="#554e56"/><stop offset="1" stop-color="#433f43"/></linearGradient><linearGradient id="SVGID_10_" gradientUnits="userSpaceOnUse" x1="227.5" x2="282.5" xlink:href="#lg3" y1="424.6" y2="424.6"/><linearGradient id="SVGID_11_" gradientUnits="userSpaceOnUse" x1="171.5" x2="227.009" xlink:href="#lg3" y1="460.79" y2="460.79"/><g><g><path d="m482.099 187.481h-454.198c-15.409 0-27.901-12.491-27.901-27.901v-63.551c0-15.409 12.492-27.901 27.901-27.901h454.197c15.409 0 27.901 12.492 27.901 27.901v63.551c.001 15.41-12.491 27.901-27.9 27.901z" fill="url(#SVGID_1_)"/><path d="m201.845 73.174v109.26c0 1.724.163 3.409.46 5.047h55.367c.297-1.638.46-3.323.46-5.047v-109.26c0-1.724-.163-3.409-.46-5.047h-55.367c-.297 1.639-.46 3.324-.46 5.047z" fill="url(#SVGID_2_)"/><path d="m482.099 68.128h-34.273c-1.258 0-2.509.031-3.756.078 14.479 1.022 25.91 13.084 25.91 27.823v63.551c0 14.739-11.431 26.801-25.91 27.823 1.247.047 2.498.078 3.756.078h34.273c15.409 0 27.901-12.492 27.901-27.901v-63.551c0-15.41-12.492-27.901-27.901-27.901z" fill="url(#SVGID_3_)"/><g><path d="m283.144 229.658v-156.484c0-15.543-12.6-28.144-28.144-28.144-15.543 0-28.144 12.6-28.144 28.144v156.484c0 15.543 12.6 28.144 28.144 28.144 15.543 0 28.144-12.6 28.144-28.144z" fill="url(#SVGID_4_)"/><path d="m255 45.031c-4.493 0-8.737 1.058-12.505 2.931 9.267 4.605 15.638 14.163 15.638 25.213v156.484c0 11.05-6.372 20.608-15.638 25.213 3.768 1.873 8.012 2.931 12.505 2.931 15.543 0 28.144-12.6 28.144-28.144v-156.485c0-15.543-12.601-28.143-28.144-28.143z" fill="url(#SVGID_5_)"/></g></g><circle cx="255" cy="326.224" fill="url(#SVGID_6_)" r="138.743"/><path d="m393.74 326.219c0 18.83-3.75 36.79-10.55 53.16-20.85 50.25-70.39 85.59-128.19 85.59-6.8 0-13.48-.49-20.01-1.44 21.455-3.093 41.321-11.1 58.423-22.841 27.154-18.643 13.559-61.309-19.379-61.309h-147.224c-6.8-16.37-10.55-34.33-10.55-53.16 0-.97.01-1.93.03-2.89 1.19-.16 2.41-.24 3.64-.24h233.75c-1.51-68.42-52.55-124.63-118.69-134.17 6.53-.95 13.21-1.44 20.01-1.44 75.66 0 137.17 60.56 138.71 135.85.02.96.03 1.92.03 2.89z" fill="url(#SVGID_7_)"/><path d="m119.93 354.368h270.14c15.543 0 28.144-12.6 28.144-28.144 0-15.543-12.6-28.144-28.144-28.144h-270.14c-15.543 0-28.144 12.6-28.144 28.144 0 15.544 12.601 28.144 28.144 28.144z" fill="url(#SVGID_8_)"/><path d="m390.07 298.08h-40.02c15.543 0 28.144 12.6 28.144 28.144 0 15.543-12.601 28.144-28.144 28.144h40.02c15.543 0 28.144-12.6 28.144-28.144 0-15.543-12.601-28.144-28.144-28.144z" fill="url(#SVGID_9_)"/><path d="m282.5 411.733c0-15.358-12.59-27.775-28.011-27.495-14.304.26-26.202 11.731-26.95 26.018-.516 9.861 4.167 18.658 11.551 23.902 5.171 3.673 8.41 9.476 8.41 15.819v14.787c2.484.132 4.983.203 7.5.203s5.016-.071 7.5-.203v-14.446c0-6.365 3.029-12.397 8.245-16.044 7.107-4.97 11.755-13.211 11.755-22.541z" fill="url(#SVGID_10_)"/><path d="m255 464.969c2.518 0 5.015-.091 7.5-.224v-8.135c-4.878 1.778-9.884 3.286-15 4.514v3.622c2.485.134 4.981.223 7.5.223z" fill="url(#SVGID_11_)"/></g></svg>