<svg id="Capa_1" enable-background="new 0 0 510 510" height="512" viewBox="0 0 510 510" width="512" xmlns="http://www.w3.org/2000/svg" xmlns:xlink="http://www.w3.org/1999/xlink"><linearGradient id="lg1"><stop offset="0" stop-color="#f8f6f7"/><stop offset=".1788" stop-color="#f8f6f7"/><stop offset="1" stop-color="#e7e6f5"/></linearGradient><linearGradient id="SVGID_1_" gradientUnits="userSpaceOnUse" x1="1.602" x2="542.603" xlink:href="#lg1" y1="275.927" y2="275.927"/><linearGradient id="lg2"><stop offset="0" stop-color="#f8f6f7"/><stop offset="1" stop-color="#d1ceeb"/></linearGradient><linearGradient id="SVGID_2_" gradientUnits="userSpaceOnUse" x1="-52.394" x2="551.115" xlink:href="#lg2" y1="275.925" y2="275.925"/><linearGradient id="SVGID_3_" gradientUnits="userSpaceOnUse" x1="38.183" x2="501.083" xlink:href="#lg1" y1="31.923" y2="31.923"/><linearGradient id="SVGID_4_" gradientUnits="userSpaceOnUse" x1="138.308" x2="342.496" xlink:href="#lg2" y1="31.923" y2="31.923"/><linearGradient id="lg3"><stop offset="0" stop-color="#01d0fb"/><stop offset=".6075" stop-color="#26a6fe"/><stop offset="1" stop-color="#0182fc"/></linearGradient><linearGradient id="SVGID_5_" gradientUnits="userSpaceOnUse" x1="124.472" x2="332.4" xlink:href="#lg3" y1="277.555" y2="277.555"/><linearGradient id="SVGID_6_" gradientUnits="userSpaceOnUse" x1="41.37" x2="497.466" xlink:href="#lg3" y1="351.629" y2="351.629"/><linearGradient id="lg4"><stop offset="0" stop-color="#01bffa"/><stop offset=".2539" stop-color="#1f9efc"/><stop offset=".5724" stop-color="#407afd"/><stop offset=".8326" stop-color="#5464ff"/><stop offset="1" stop-color="#5b5cff"/></linearGradient><linearGradient id="SVGID_7_" gradientUnits="userSpaceOnUse" x1="274" x2="565.046" xlink:href="#lg4" y1="355.443" y2="355.443"/><linearGradient id="lg5"><stop offset="0" stop-color="#b0e7c9"/><stop offset=".593" stop-color="#46cc8d"/><stop offset="1" stop-color="#0ab69f"/></linearGradient><linearGradient id="SVGID_8_" gradientUnits="userSpaceOnUse" x1="102.969" x2="222.528" xlink:href="#lg5" y1="369.21" y2="369.21"/><linearGradient id="SVGID_9_" gradientUnits="userSpaceOnUse" x1="68.581" x2="156.167" xlink:href="#lg5" y1="392.607" y2="392.607"/><linearGradient id="SVGID_10_" gradientUnits="userSpaceOnUse" x1="84.302" x2="167.766" xlink:href="#lg5" y1="417.014" y2="417.014"/><linearGradient id="lg6"><stop offset="0" stop-color="#fbc56d"/><stop offset=".593" stop-color="#dc8758"/><stop offset="1" stop-color="#9e5528"/></linearGradient><linearGradient id="SVGID_11_" gradientUnits="userSpaceOnUse" x1="312.333" x2="388.188" xlink:href="#lg6" y1="422.846" y2="422.846"/><linearGradient id="lg7"><stop offset="0" stop-color="#ffc2b5"/><stop offset="1" stop-color="#ff89a8"/></linearGradient><linearGradient id="SVGID_12_" gradientUnits="userSpaceOnUse" x1="117.097" x2="420.086" xlink:href="#lg7" y1="456.43" y2="456.43"/><linearGradient id="SVGID_13_" gradientUnits="userSpaceOnUse" x1="285.667" x2="371.167" xlink:href="#lg6" y1="428.651" y2="428.651"/><linearGradient id="lg8"><stop offset="0" stop-color="#feb237"/><stop offset="1" stop-color="#fd6930"/></linearGradient><linearGradient id="SVGID_14_" gradientUnits="userSpaceOnUse" x1="241" x2="352.162" xlink:href="#lg8" y1="364.956" y2="364.956"/><linearGradient id="SVGID_15_" gradientUnits="userSpaceOnUse" x1="175" x2="237.37" xlink:href="#lg8" y1="364.956" y2="364.956"/><linearGradient id="SVGID_16_" gradientUnits="userSpaceOnUse" x1="229" x2="276.011" xlink:href="#lg8" y1="364.956" y2="364.956"/><linearGradient id="SVGID_17_" gradientUnits="userSpaceOnUse" x1="151.667" x2="271.391" xlink:href="#lg7" y1="464.598" y2="464.598"/><linearGradient id="SVGID_18_" gradientUnits="userSpaceOnUse" x1="783.834" x2="1014.867" xlink:href="#lg4" y1="269.555" y2="269.555"/><linearGradient id="SVGID_19_" gradientUnits="userSpaceOnUse" x1="783.834" x2="1014.867" xlink:href="#lg4" y1="311.965" y2="311.965"/><linearGradient id="SVGID_20_" gradientUnits="userSpaceOnUse" x1="783.834" x2="1014.867" xlink:href="#lg4" y1="316.666" y2="316.666"/><g><path d="m509.974 293.175c-1.038-73.608-33.521-139.734-84.489-185.662-16.041-14.455-25.238-35.004-25.238-56.597v-9.062h-290.494v8.793c0 21.563-9.139 42.123-25.174 56.539-51.92 46.676-84.579 114.354-84.579 189.668 0 81.38 38.13 153.843 97.491 200.53 10.41 8.187 23.282 12.616 36.525 12.616h241.975c13.26 0 26.14-4.452 36.561-12.652 60.23-47.39 98.59-121.321 97.422-204.173z" fill="url(#SVGID_1_)"/><path d="m412.55 497.35c-10.42 8.2-23.3 12.65-36.56 12.65h-40.02c13.26 0 26.14-4.45 36.56-12.65 60.23-47.39 98.59-121.32 97.42-204.18-1.03-73.6-33.52-139.73-84.49-185.66-.06-.055-.121-.109-.181-.164-12.945-11.754-29.665-18.486-47.15-18.486h-238.659c6.67-11.49 10.28-24.65 10.28-38.21v-8.8h290.5v9.07c0 13.46 3.57 26.51 10.15 37.94 3.97 6.9 9.04 13.2 15.08 18.65 50.97 45.93 83.46 112.06 84.49 185.66 1.17 82.86-37.19 156.79-97.42 204.18z" fill="url(#SVGID_2_)"/><g><path d="m441.264 63.845h-372.528c-17.63 0-31.923-14.292-31.923-31.923 0-17.63 14.292-31.922 31.923-31.922h372.528c17.63 0 31.923 14.292 31.923 31.923 0 17.63-14.292 31.922-31.923 31.922z" fill="url(#SVGID_3_)"/><path d="m441.264 0h-41.024c17.63 0 31.923 14.292 31.923 31.923 0 17.63-14.292 31.923-31.923 31.923h41.025c17.63 0 31.923-14.292 31.923-31.923-.001-17.631-14.293-31.923-31.924-31.923z" fill="url(#SVGID_4_)"/></g><ellipse cx="281.656" cy="277.555" fill="url(#SVGID_5_)" rx="107.473" ry="62.711"/><path d="m347.849 239.234c-39.655 33.653-97.843 33.653-137.498 0-39.655-33.653-97.843-33.653-137.498 0l-15.45 13.111c-8.413 7.14-13.93 17.124-15.416 28.058-1.296 9.537-1.967 19.273-1.967 29.166 0 29.725 6.034 58.04 16.944 83.787 24.729 58.359 82.397 95.908 145.779 95.908h104.549c62.806 0 120.199-36.82 145.127-94.468 11.684-27.021 17.982-56.914 17.539-88.328-.09-6.391-.462-12.715-1.103-18.961-6.038-58.837-75.909-86.543-121.006-48.273z" fill="url(#SVGID_6_)"/><path d="m469.958 306.468c-.09-6.391-.462-12.715-1.103-18.961-4.901-47.752-51.848-74.996-93.472-63.109 27.331 7.645 50.118 30.63 53.452 63.109.641 6.245 1.012 12.569 1.103 18.961.443 31.414-5.855 61.308-17.539 88.328-24.927 57.647-82.321 94.468-145.127 94.468h40.02c62.806 0 120.199-36.82 145.127-94.468 11.684-27.02 17.982-56.914 17.539-88.328z" fill="url(#SVGID_7_)"/><g><path d="m191.554 396.175c13.91 13.91 22.47 31.74 24.64 51.01h-35.38c-1.92-9.89-6.73-18.98-14.01-26.26l-2.88-2.89c-16.25-16.25-25.2-37.85-25.2-60.83 0-22.99 8.95-44.59 25.2-60.84 6.84-6.84 17.92-6.84 24.75 0 6.83 6.83 6.83 17.91 0 24.75-9.64 9.64-14.95 22.45-14.95 36.09 0 13.63 5.31 26.45 14.95 36.08z" fill="url(#SVGID_8_)"/><path d="m116.528 404c0 13.63-5.31 26.45-14.95 36.08l-2.88 2.89c-1.365 1.365-2.662 2.778-3.923 4.216h45.145c7.561-12.977 11.608-27.766 11.608-43.186 0-22.99-8.95-44.59-25.2-60.84-6.84-6.84-17.92-6.84-24.75 0-6.83 6.83-6.83 17.91 0 24.75 9.64 9.64 14.95 22.45 14.95 36.09z" fill="url(#SVGID_9_)"/><path d="m166.706 447.185c1.254-11.508 6.334-22.162 14.635-30.463 6.83-6.84 6.83-17.92 0-24.75-6.83-6.84-17.91-6.84-24.75 0-14.916 14.916-23.659 34.344-24.998 55.213z" fill="url(#SVGID_10_)"/></g><path d="m386.671 432.084c0 17.42-63.085 17.42-63.085 0s14.122-31.542 31.542-31.542c17.421 0 31.543 14.122 31.543 31.542z" fill="url(#SVGID_11_)"/><path d="m415.31 447.113c-39.871-16.304-96.93-26.518-160.31-26.518-63.335 0-120.358 10.199-160.225 26.483 25.225 26.422 67.192 45.186 107.968 45.186h104.549c40.752 0 83.208-18.264 108.018-45.151z" fill="url(#SVGID_12_)"/><path d="m368.803 439.344c0 20.164-73.022 20.164-73.022 0s16.347-36.511 36.511-36.511 36.511 16.347 36.511 36.511z" fill="url(#SVGID_13_)"/><g><path d="m273.367 327.776c-28.435 0-53.403 14.832-67.598 37.18 14.194 22.348 39.163 37.18 67.598 37.18 19.54 0 37.443-7.004 51.338-18.638 11.54-9.662 11.54-27.422 0-37.085-13.895-11.633-31.798-18.637-51.338-18.637z" fill="url(#SVGID_14_)"/><path d="m211.565 388.399c3.622-3.63 6.371-7.805 8.222-12.268.015-.036.03-.072.045-.108 2.924-7.067 2.92-15.065-.001-22.133-.017-.042-.034-.083-.052-.124-1.851-4.455-4.592-8.63-8.214-12.252-6.845-6.845-15.647-10.537-24.604-11.077-5.82-.351-10.65 4.449-10.302 10.269.526 8.8 4.091 17.452 10.698 24.247-6.609 6.797-10.174 15.451-10.699 24.255-.347 5.82 4.483 10.62 10.302 10.269 8.958-.541 17.76-4.233 24.605-11.078z" fill="url(#SVGID_15_)"/><path d="m275.812 353.979c-3.281 7.024-3.281 14.931 0 21.954.695 1.488 2.321 2.457 4.124 2.457 7.612 0 14.764-3.261 19.239-8.773l1.877-2.312c1.138-1.401 1.138-3.299.002-4.701l-1.863-2.299c-4.474-5.518-11.63-8.785-19.248-8.785h-.005c-1.805.002-3.431.971-4.126 2.459z" fill="url(#SVGID_16_)"/></g><path d="m415.31 447.113c-9.123-3.731-19.156-7.138-29.949-10.182-29.547 32.834-80.657 55.333-126.361 55.333h48.292c40.752 0 83.208-18.264 108.018-45.151z" fill="url(#SVGID_17_)"/><g><circle cx="361.924" cy="269.555" fill="url(#SVGID_18_)" r="8"/><path d="m340.401 296.154c-8.732 0-15.811 7.079-15.811 15.811s7.079 15.811 15.811 15.811 15.811-7.079 15.811-15.811-7.079-15.811-15.811-15.811z" fill="url(#SVGID_19_)"/><path d="m389.129 305.555c-6.136 0-11.11 4.974-11.11 11.111 0 6.136 4.974 11.11 11.11 11.11s11.111-4.974 11.111-11.11c0-6.137-4.975-11.111-11.111-11.111z" fill="url(#SVGID_20_)"/></g></g></svg>