<svg id="Capa_1" enable-background="new 0 0 510.013 510.013" height="512" viewBox="0 0 510.013 510.013" width="512" xmlns="http://www.w3.org/2000/svg" xmlns:xlink="http://www.w3.org/1999/xlink"><linearGradient id="lg1"><stop offset="0" stop-color="#01d0fb"/><stop offset=".6075" stop-color="#26a6fe"/><stop offset="1" stop-color="#0182fc"/></linearGradient><linearGradient id="SVGID_1_" gradientUnits="userSpaceOnUse" x1="201.027" x2="348.642" xlink:href="#lg1" y1="84.872" y2="84.872"/><linearGradient id="SVGID_2_" gradientUnits="userSpaceOnUse" x1="141.519" x2="593.343" y1="303.126" y2="303.126"><stop offset="0" stop-color="#f8f6f7"/><stop offset=".1788" stop-color="#f8f6f7"/><stop offset="1" stop-color="#e7e6f5"/></linearGradient><linearGradient id="lg2"><stop offset="0" stop-color="#f8f6f7"/><stop offset="1" stop-color="#d1ceeb"/></linearGradient><linearGradient id="SVGID_3_" gradientUnits="userSpaceOnUse" x1="76.668" x2="252.069" xlink:href="#lg2" y1="448.907" y2="448.907"/><linearGradient id="SVGID_4_" gradientUnits="userSpaceOnUse" x1="312.024" x2="522.154" xlink:href="#lg2" y1="303.126" y2="303.126"/><linearGradient id="SVGID_5_" gradientUnits="userSpaceOnUse" x1="155.223" x2="597.807" xlink:href="#lg1" y1="303.126" y2="303.126"/><linearGradient id="SVGID_6_" gradientUnits="userSpaceOnUse" x1="88.002" x2="249.836" xlink:href="#lg1" y1="418.401" y2="418.401"/><linearGradient id="lg3"><stop offset="0" stop-color="#fff9df"/><stop offset=".593" stop-color="#ffe177"/><stop offset="1" stop-color="#feb237"/></linearGradient><linearGradient id="SVGID_7_" gradientUnits="userSpaceOnUse" x1="235.079" x2="455.763" xlink:href="#lg3" y1="303.126" y2="303.126"/><linearGradient id="SVGID_8_" gradientUnits="userSpaceOnUse" x1="220.851" x2="297.524" xlink:href="#lg3" y1="303.126" y2="303.126"/><linearGradient id="SVGID_9_" gradientUnits="userSpaceOnUse" x1="337.225" x2="402.65" y1="303.126" y2="303.126"><stop offset="0" stop-color="#ffe177"/><stop offset="1" stop-color="#feb237"/></linearGradient><linearGradient id="SVGID_10_" gradientUnits="userSpaceOnUse" x1="315.024" x2="567.135" y1="303.126" y2="303.126"><stop offset="0" stop-color="#01bffa"/><stop offset=".2539" stop-color="#1f9efc"/><stop offset=".5724" stop-color="#407afd"/><stop offset=".8326" stop-color="#5464ff"/><stop offset="1" stop-color="#5b5cff"/></linearGradient><linearGradient id="lg4"><stop offset="0" stop-color="#fbc56d"/><stop offset=".593" stop-color="#dc8758"/><stop offset="1" stop-color="#9e5528"/></linearGradient><linearGradient id="SVGID_11_" gradientUnits="userSpaceOnUse" x1="-11.417" x2="313.066" xlink:href="#lg4" y1="457.423" y2="457.423"/><linearGradient id="SVGID_12_" gradientUnits="userSpaceOnUse" x1="-18.66" x2="177.908" xlink:href="#lg4" y1="436.074" y2="436.074"/><linearGradient id="SVGID_13_" gradientUnits="userSpaceOnUse" x1="-18.66" x2="177.908" xlink:href="#lg4" y1="450.844" y2="450.844"/><linearGradient id="SVGID_14_" gradientUnits="userSpaceOnUse" x1="-18.66" x2="177.908" xlink:href="#lg4" y1="488.623" y2="488.623"/><linearGradient id="SVGID_15_" gradientUnits="userSpaceOnUse" x1="-19.001" x2="248.924" xlink:href="#lg4" y1="459.269" y2="459.269"/><linearGradient id="SVGID_16_" gradientUnits="userSpaceOnUse" x1="84.002" x2="164.658" xlink:href="#lg4" y1="378.009" y2="378.009"/><linearGradient id="SVGID_17_" gradientUnits="userSpaceOnUse" x1="16" x2="96.656" xlink:href="#lg4" y1="338.668" y2="338.668"/><linearGradient id="SVGID_18_" gradientUnits="userSpaceOnUse" x1="80.034" x2="160.69" xlink:href="#lg4" y1="300.901" y2="300.901"/><g><g><path d="m216.87 48.046 113.455 113.455c10.991 10.991 28.811 10.991 39.803 0 10.991-10.991 10.991-28.811 0-39.803l-113.455-113.455c-10.991-10.991-28.811-10.991-39.803 0-10.991 10.992-10.991 28.812 0 39.803z" fill="url(#SVGID_1_)"/><g><path d="m175.913 483.446v-360.641c0-14.673 11.894-26.567 26.567-26.567h280.96c14.673 0 26.567 11.894 26.567 26.567v360.641c0 14.673-11.894 26.567-26.567 26.567h-280.96c-14.673 0-26.567-11.894-26.567-26.567z" fill="url(#SVGID_2_)"/></g><path d="m199.5 405.659c-6.159-7.897-14.314-14.059-23.587-17.858v95.645c0 14.673 11.895 26.567 26.567 26.567h66.189c4.549-7.495 7.238-16.213 7.382-25.517l.002-.187c.009-.354.012-.708.012-1.062 0-42.441-34.252-77.033-76.565-77.588z" fill="url(#SVGID_3_)"/><path d="m483.44 96.238h-40.021c14.673 0 26.567 11.894 26.567 26.567v360.641c0 14.673-11.894 26.567-26.567 26.567h40.021c14.673 0 26.567-11.894 26.567-26.567v-360.641c0-14.673-11.895-26.567-26.567-26.567z" fill="url(#SVGID_4_)"/><path d="m175.913 169.911h334.094v266.428h-334.094z" fill="url(#SVGID_5_)"/><path d="m199.5 405.659c-.062-.079-.123-.158-.185-.236-7.684-9.746-23.402-4.147-23.402 8.264v22.653h84.308c-13.993-18.375-35.971-30.356-60.721-30.681z" fill="url(#SVGID_6_)"/><g><path d="m370.507 241.514c-42.648 0-80.096 24.579-101.386 61.612 21.289 37.033 58.738 61.612 101.386 61.612 29.307 0 56.158-11.606 76.998-30.885 17.308-16.012 17.308-45.442 0-61.453-20.84-19.28-47.691-30.886-76.998-30.886z" fill="url(#SVGID_7_)"/><path d="m277.814 341.973c5.432-6.015 9.555-12.934 12.331-20.33.022-.059.045-.119.067-.179 4.385-11.71 4.379-24.964-.002-36.677-.026-.069-.052-.138-.078-.206-2.776-7.383-6.887-14.301-12.319-20.303-10.266-11.342-23.468-17.461-36.902-18.356-8.729-.582-15.973 7.373-15.452 17.017.788 14.582 6.135 28.919 16.046 40.18-9.912 11.263-15.26 25.604-16.046 40.194-.52 9.644 6.723 17.598 15.452 17.017 13.435-.895 26.637-7.014 36.903-18.357z" fill="url(#SVGID_8_)"/><path d="m374.174 284.935c-4.921 11.639-4.921 24.742 0 36.381 1.043 2.466 3.481 4.072 6.185 4.072 11.417 0 22.144-5.404 28.855-14.538l2.815-3.831c1.706-2.322 1.707-5.466.003-7.79l-2.795-3.809c-6.71-9.145-17.444-14.557-28.869-14.557h-.008c-2.704 0-5.143 1.606-6.186 4.072z" fill="url(#SVGID_9_)"/></g><path d="m469.985 169.911h40.021v266.428h-40.021z" fill="url(#SVGID_10_)"/></g><path d="m198.47 430.653c-4.505 0-8.87.569-13.043 1.64-3.737-13.701-16.256-23.767-31.139-23.767-9.742 0-18.479 4.328-24.395 11.153-9.469-9.181-22.372-14.845-36.604-14.845-25.429 0-46.641 18.051-51.531 42.033-3.673-1.122-7.611-1.612-11.707-1.335-15.893 1.075-28.8 13.904-29.957 29.791-1.377 18.913 13.566 34.692 32.195 34.692h192.152c14.423 0 26.389-11.483 26.611-25.904.001-.095.003-.191.004-.287.007-.192.007-.384.007-.576.001-29.049-23.545-52.595-52.593-52.595z" fill="url(#SVGID_11_)"/><g><path d="m131.2 430.417c-3.124-3.124-8.19-3.124-11.314 0s-3.124 8.19 0 11.314 8.189 3.124 11.314 0c3.124-3.124 3.124-8.19 0-11.314z" fill="url(#SVGID_12_)"/><path d="m69.156 439.664c-6.174 6.174-6.174 16.185 0 22.36s16.185 6.175 22.36 0 6.175-16.186 0-22.36c-6.174-6.175-16.185-6.175-22.36 0z" fill="url(#SVGID_13_)"/><path d="m103.612 480.767c-4.339 4.339-4.339 11.374 0 15.713s11.374 4.339 15.713 0 4.339-11.374 0-15.713-11.374-4.339-15.713 0z" fill="url(#SVGID_14_)"/></g><g><path d="m198.47 430.653c-4.505 0-8.87.569-13.043 1.64-3.737-13.701-16.256-23.767-31.138-23.767-7.556 0-14.501 2.612-20.001 6.965 2.279 1.806 4.31 3.913 6.031 6.262 4.107 5.605 10.531 8.989 17.479 8.905.217-.003.434-.004.652-.004 29.048 0 52.594 23.546 52.594 52.594 0 .192 0 .384-.007.576-.001.096-.002.191-.004.286-.222 14.421-12.189 25.904-26.611 25.904h40.111c14.466 0 26.34-11.589 26.523-26.053.001-.046.001-.091.002-.137.007-.192.007-.384.007-.576-.001-29.049-23.547-52.595-52.595-52.595z" fill="url(#SVGID_15_)"/></g><circle cx="129.503" cy="378.009" fill="url(#SVGID_16_)" r="26.501"/><circle cx="61.501" cy="338.668" fill="url(#SVGID_17_)" r="26.501"/><circle cx="125.535" cy="300.901" fill="url(#SVGID_18_)" r="26.501"/></g></svg>