<svg id="Capa_1" enable-background="new 0 0 510 510" height="512" viewBox="0 0 510 510" width="512" xmlns="http://www.w3.org/2000/svg" xmlns:xlink="http://www.w3.org/1999/xlink"><linearGradient id="lg1"><stop offset="0" stop-color="#f8f6f7"/><stop offset=".1788" stop-color="#f8f6f7"/><stop offset="1" stop-color="#e7e6f5"/></linearGradient><linearGradient id="SVGID_1_" gradientTransform="matrix(.913 -.408 .408 .913 -41.229 70.311)" gradientUnits="userSpaceOnUse" x1="61.566" x2="193.049" xlink:href="#lg1" y1="115.633" y2="115.633"/><linearGradient id="lg2"><stop offset="0" stop-color="#ffc2b5"/><stop offset="1" stop-color="#ff89a8"/></linearGradient><linearGradient id="SVGID_2_" gradientTransform="matrix(.913 -.408 .492 1.102 -43.29 65.694)" gradientUnits="userSpaceOnUse" x1="83.637" x2="170.978" xlink:href="#lg2" y1="115.204" y2="115.204"/><linearGradient id="SVGID_3_" gradientUnits="userSpaceOnUse" x1="297" x2="455.755" xlink:href="#lg1" y1="142.322" y2="142.322"/><linearGradient id="lg3"><stop offset="0" stop-color="#f8f6f7"/><stop offset="1" stop-color="#d1ceeb"/></linearGradient><linearGradient id="SVGID_4_" gradientUnits="userSpaceOnUse" x1="265" x2="438.336" xlink:href="#lg3" y1="123.215" y2="123.215"/><linearGradient id="SVGID_5_" gradientUnits="userSpaceOnUse" x1="320" x2="437.052" xlink:href="#lg2" y1="141.697" y2="141.697"/><linearGradient id="SVGID_6_" gradientUnits="userSpaceOnUse" x1="170" x2="416.354" xlink:href="#lg2" y1="122.461" y2="122.461"/><linearGradient id="SVGID_7_" gradientUnits="userSpaceOnUse" x1="101" x2="270.107" xlink:href="#lg1" y1="324.405" y2="324.405"/><linearGradient id="SVGID_8_" gradientUnits="userSpaceOnUse" x1="226.032" x2="299.371" y1="436.102" y2="436.102"><stop offset="0" stop-color="#fe99a0"/><stop offset=".593" stop-color="#fe646f"/><stop offset="1" stop-color="#e41f2d"/></linearGradient><linearGradient id="SVGID_9_" gradientUnits="userSpaceOnUse" x1="35.047" x2="474.953" xlink:href="#lg1" y1="310.642" y2="310.642"/><linearGradient id="SVGID_10_" gradientUnits="userSpaceOnUse" x1="208.593" x2="534.96" xlink:href="#lg3" y1="310.638" y2="310.638"/><linearGradient id="SVGID_11_" gradientUnits="userSpaceOnUse" x1="-16.396" x2="127.628" xlink:href="#lg3" y1="403.558" y2="403.558"/><linearGradient id="SVGID_12_" gradientUnits="userSpaceOnUse" x1="-16.396" x2="127.628" xlink:href="#lg3" y1="471.031" y2="471.031"/><linearGradient id="SVGID_13_" gradientUnits="userSpaceOnUse" x1="-16.396" x2="127.628" xlink:href="#lg3" y1="336.086" y2="336.086"/><linearGradient id="SVGID_14_" gradientUnits="userSpaceOnUse" x1="273.09" x2="463.675" xlink:href="#lg3" y1="403.558" y2="403.558"/><linearGradient id="SVGID_15_" gradientUnits="userSpaceOnUse" x1="273.09" x2="463.675" xlink:href="#lg3" y1="336.085" y2="336.085"/><linearGradient id="SVGID_16_" gradientUnits="userSpaceOnUse" x1="273.09" x2="463.675" xlink:href="#lg3" y1="471.031" y2="471.031"/><linearGradient id="SVGID_17_" gradientUnits="userSpaceOnUse" x1="223.572" x2="303.138" xlink:href="#lg2" y1="349.682" y2="349.682"/><linearGradient id="lg4"><stop offset="0" stop-color="#537983"/><stop offset=".593" stop-color="#554e56"/><stop offset="1" stop-color="#433f43"/></linearGradient><linearGradient id="SVGID_18_" gradientTransform="matrix(1 0 0 -1 0 -4890.242)" gradientUnits="userSpaceOnUse" x1="149.433" x2="210.219" xlink:href="#lg4" y1="-5168.083" y2="-5168.083"/><linearGradient id="SVGID_19_" gradientTransform="matrix(1 0 0 -1 0 -4890.242)" gradientUnits="userSpaceOnUse" x1="255.182" x2="351.265" xlink:href="#lg4" y1="-5168.083" y2="-5168.083"/><linearGradient id="SVGID_20_" gradientUnits="userSpaceOnUse" x1="345" x2="492.859" xlink:href="#lg1" y1="117.096" y2="117.096"/><linearGradient id="SVGID_21_" gradientUnits="userSpaceOnUse" x1="364.585" x2="528.907" xlink:href="#lg3" y1="117.096" y2="117.096"/><g><g><path d="m204.728 147.722c42.503 95.226-77.564 148.816-120.067 53.59s-50.08-184.419-16.925-199.218 94.489 50.402 136.992 145.628z" fill="url(#SVGID_1_)"/><path d="m187.582 163.459c34.075 76.343-45.683 111.942-79.758 35.599s-43.843-146.201-21.818-156.032 67.502 44.09 101.576 120.433z" fill="url(#SVGID_2_)"/></g><g><path d="m462.47 67.58c-2.29 34.2-13.47 78.13-32.91 124.02-1.37 3.23-2.77 6.47-4.22 9.71-42.5 95.23-162.57 41.64-120.07-53.59 18.57-41.6 40.73-77.46 62.57-103.44 1.09-1.31 2.2-2.59 3.3-3.86 4.56-4.38 10.76-7.1 17.67-7.1 29.79 0 56.1 13.42 73.66 34.26z" fill="url(#SVGID_3_)"/><path d="m462.47 67.58c-.77 11.46-2.53 24.02-5.28 37.38-5.43 26.49-14.71 56.13-27.63 86.64-1.37 3.23-2.77 6.47-4.22 9.71-1.88 4.22-3.92 8.15-6.09 11.8-2.62-1.07-5.18-2.24-7.69-3.51-32.08-16.2-55.49-47.51-60.37-85.26l-5.72-44.2c-.25-1.96-.28-3.89-.09-5.76 4.95-7.4 9.96-14.36 14.98-20.82 2.49-3.22 4.99-6.31 7.48-9.28 1.09-1.31 2.2-2.59 3.3-3.86 4.56-4.38 10.76-7.1 17.67-7.1 29.79 0 56.1 13.42 73.66 34.26z" fill="url(#SVGID_4_)"/><path d="m322.418 163.459c-34.075 76.343 45.683 111.942 79.758 35.599s43.843-146.201 21.819-156.031c-22.025-9.831-67.503 44.089-101.577 120.432z" fill="url(#SVGID_5_)"/><path d="m423.994 43.026c-16.534-7.38-46.285 21.169-74.507 68.159l1.702 13.155c4.288 33.172 22.888 61.368 49.103 78.711.64-1.299 1.271-2.623 1.882-3.994 34.076-76.343 43.845-146.2 21.82-156.031z" fill="url(#SVGID_6_)"/></g><g><path d="m453.266 343.253c-16.602-18.092-28.327-40.214-32.416-64.426-13.257-78.5-81.58-140.016-165.85-140.016-84.271 0-152.594 61.516-165.851 140.016-4.089 24.212-15.814 46.334-32.416 64.426-14.077 15.34-22.421 36.022-21.635 58.662 1.455 41.908 34.68 76.37 76.507 79.347.293.021.585.04.877.058 21.531 1.307 42.57 7.283 61.192 18.168 23.979 14.016 138.672 14.016 162.651 0 18.623-10.885 39.662-16.861 61.194-18.168.291-.018.582-.037.874-.058 41.827-2.976 75.052-37.439 76.508-79.346.787-22.641-7.557-43.323-21.635-58.663z" fill="url(#SVGID_7_)"/><path d="m264.778 400.416h-19.557c-15.258 0-24.794 22.978-17.165 41.361l5.21 12.555c9.659 23.275 33.808 23.275 43.467 0l5.21-12.555c7.63-18.382-1.906-41.361-17.165-41.361z" fill="url(#SVGID_8_)"/><g fill="#fff"><path d="m248.174 447.487h-2.484c-3.77 0-6.826-3.056-6.826-6.827v-40.244h16.136v40.244c0 3.77-3.056 6.827-6.826 6.827z"/><path d="m264.31 447.487h-2.484c-3.77 0-6.826-3.056-6.826-6.827v-40.244h16.137v40.244c0 3.77-3.057 6.827-6.827 6.827z"/></g><path d="m452.153 342.063c-16.551-17.341-29.303-39.262-33.247-62.907-13.121-78.657-79.517-140.346-163.906-140.346-84.312 0-150.662 61.577-163.87 140.133-4.065 24.178-17.82 46.245-34.396 64.31-14.077 15.34-22.421 36.022-21.635 58.662 1.455 41.908 34.68 76.37 76.507 79.347.292.021.585.04.877.058.598.036 1.232.095 1.899.176 49.951 6.022 99.333-16.087 126.112-58.682 4.489-7.139 9.375-11.068 14.506-11.068 5.132 0 10.018 3.929 14.507 11.069 26.78 42.595 76.162 64.705 126.113 58.681.668-.08 1.301-.139 1.899-.176.134-.008.269-.017.403-.025 39.178-2.568 71.469-32.683 76.359-71.639 3.294-26.243-5.756-50.44-22.128-67.593z" fill="url(#SVGID_9_)"/><path d="m452.153 342.063c-16.551-17.341-29.303-39.262-33.247-62.907-13.121-78.657-79.517-140.346-163.906-140.346-6.793 0-13.468.405-20.009 1.182 74.721 8.866 131.831 66.839 143.895 139.165 3.944 23.645 16.696 45.566 33.247 62.907 16.372 17.153 25.422 41.35 22.128 67.593-4.791 38.171-35.895 67.834-74.002 71.432 11.556 1.663 23.44 1.846 35.361.408.667-.08 1.301-.139 1.899-.176.134-.008.269-.017.403-.025 39.178-2.568 71.469-32.683 76.359-71.639 3.294-26.244-5.756-50.441-22.128-67.594z" fill="url(#SVGID_10_)"/><g><path d="m112.671 403.558c0-4.142-3.358-7.5-7.5-7.5h-97.671c-4.142 0-7.5 3.358-7.5 7.5s3.358 7.5 7.5 7.5h97.671c4.142 0 7.5-3.358 7.5-7.5z" fill="url(#SVGID_11_)"/><path d="m112.435 443.331-88.254 41.844c-3.743 1.774-5.338 6.247-3.563 9.99 1.283 2.705 3.975 4.289 6.782 4.289 1.077 0 2.17-.233 3.208-.725l88.254-41.844c3.743-1.774 5.338-6.247 3.563-9.99s-6.25-5.337-9.99-3.564z" fill="url(#SVGID_12_)"/><path d="m24.181 321.941 88.254 41.844c1.038.492 2.131.725 3.208.725 2.807 0 5.499-1.584 6.782-4.289 1.774-3.743.179-8.215-3.564-9.99l-88.254-41.844c-3.741-1.774-8.215-.179-9.99 3.564-1.774 3.743-.179 8.215 3.564 9.99z" fill="url(#SVGID_13_)"/></g><g><path d="m502.5 396.058h-97.672c-4.143 0-7.5 3.358-7.5 7.5s3.357 7.5 7.5 7.5h97.672c4.143 0 7.5-3.358 7.5-7.5s-3.357-7.5-7.5-7.5z" fill="url(#SVGID_14_)"/><path d="m394.356 364.51c1.077 0 2.171-.233 3.208-.725l88.254-41.844c3.743-1.774 5.339-6.247 3.564-9.99-1.776-3.744-6.252-5.34-9.99-3.564l-88.254 41.844c-3.743 1.774-5.339 6.247-3.564 9.99 1.283 2.705 3.976 4.289 6.782 4.289z" fill="url(#SVGID_15_)"/><path d="m485.818 485.176-88.254-41.844c-3.738-1.774-8.215-.179-9.989 3.563-1.775 3.743-.18 8.216 3.563 9.99l88.254 41.844c1.037.492 2.131.725 3.208.725 2.807 0 5.499-1.584 6.781-4.289 1.776-3.742.181-8.215-3.563-9.989z" fill="url(#SVGID_16_)"/></g><path d="m265.609 321.852h-21.217c-16.553 0-26.899 17.92-18.623 32.255l5.653 9.791c10.479 18.151 36.678 18.151 47.157 0l5.653-9.791c8.276-14.335-2.07-32.255-18.623-32.255z" fill="url(#SVGID_17_)"/><g><path d="m181.499 259.687c-15.635 0-28.354 12.719-28.354 28.353 0 4.393 3.561 7.955 7.955 7.955 4.393 0 7.954-3.561 7.954-7.955 0-6.862 5.583-12.444 12.445-12.444s12.444 5.583 12.444 12.444c0 4.393 3.561 7.955 7.955 7.955 4.393 0 7.955-3.561 7.955-7.955 0-15.634-12.72-28.353-28.354-28.353z" fill="url(#SVGID_18_)"/><path d="m328.501 259.687c-15.635 0-28.354 12.719-28.354 28.353 0 4.393 3.561 7.955 7.954 7.955s7.955-3.561 7.955-7.955c0-6.862 5.583-12.444 12.445-12.444s12.444 5.583 12.444 12.444c0 4.393 3.561 7.955 7.954 7.955s7.955-3.561 7.955-7.955c.001-15.634-12.719-28.353-28.353-28.353z" fill="url(#SVGID_19_)"/></g></g><path d="m484.35 142.03-5.2 40.2c-1.64 12.67-13.96 21.09-26.36 18-8.12-2.02-15.9-4.93-23.23-8.63-32.08-16.2-55.49-47.51-60.37-85.26l-5.72-44.2c-.85-6.59.88-12.86 4.37-17.86.96-1.4 2.07-2.7 3.3-3.86 4.56-4.38 10.76-7.1 17.67-7.1 29.79 0 56.1 13.42 73.66 34.26 16.72 19.82 25.52 46.35 21.88 74.45z" fill="url(#SVGID_20_)"/><path d="m462.47 67.58c-17.56-20.84-43.87-34.26-73.66-34.26-4.906 0-9.45 1.376-13.307 3.739 18.646 5.36 34.867 16.185 46.947 30.521 16.72 19.82 25.52 46.35 21.88 74.45l-5.2 40.2c-.575 4.442-2.466 8.358-5.209 11.442 6.033 2.724 12.339 4.933 18.869 6.558 12.4 3.09 24.72-5.33 26.36-18l5.2-40.2c3.64-28.1-5.16-54.63-21.88-74.45z" fill="url(#SVGID_21_)"/></g></svg>