<svg id="Capa_1" enable-background="new 0 0 510 510" height="512" viewBox="0 0 510 510" width="512" xmlns="http://www.w3.org/2000/svg" xmlns:xlink="http://www.w3.org/1999/xlink"><linearGradient id="lg1"><stop offset="0" stop-color="#feb237"/><stop offset="1" stop-color="#fd6930"/></linearGradient><linearGradient id="SVGID_1_" gradientUnits="userSpaceOnUse" x1="25.57" x2="554.311" xlink:href="#lg1" y1="408.257" y2="408.257"/><linearGradient id="SVGID_2_" gradientUnits="userSpaceOnUse" x1="-20" x2="408.197" xlink:href="#lg1" y1="408.255" y2="408.255"/><linearGradient id="SVGID_3_" gradientUnits="userSpaceOnUse" x1="96.5" x2="413.5" y1="64.298" y2="64.298"><stop offset="0" stop-color="#f8f6f7"/><stop offset=".1788" stop-color="#f8f6f7"/><stop offset="1" stop-color="#e7e6f5"/></linearGradient><linearGradient id="SVGID_4_" gradientUnits="userSpaceOnUse" x1="184.029" x2="325.971" y1="29.91" y2="29.91"><stop offset="0" stop-color="#01d0fb"/><stop offset=".6075" stop-color="#26a6fe"/><stop offset="1" stop-color="#0182fc"/></linearGradient><linearGradient id="SVGID_5_" gradientUnits="userSpaceOnUse" x1="201.333" x2="369.134" y1="29.909" y2="29.909"><stop offset="0" stop-color="#01bffa"/><stop offset=".2539" stop-color="#1f9efc"/><stop offset=".5724" stop-color="#407afd"/><stop offset=".8326" stop-color="#5464ff"/><stop offset="1" stop-color="#5b5cff"/></linearGradient><linearGradient id="SVGID_6_" gradientTransform="matrix(1 0 0 -1 0 252.598)" gradientUnits="userSpaceOnUse" x1="1.57" x2="530.311" y1="47.827" y2="47.827"><stop offset="0" stop-color="#b0e7c9"/><stop offset=".593" stop-color="#46cc8d"/><stop offset="1" stop-color="#0ab69f"/></linearGradient><linearGradient id="lg2"><stop offset="0" stop-color="#46cc8d"/><stop offset=".5484" stop-color="#0ab69f"/><stop offset="1" stop-color="#01998d"/></linearGradient><linearGradient id="SVGID_7_" gradientUnits="userSpaceOnUse" x1="62.074" x2="501.616" xlink:href="#lg2" y1="238.269" y2="238.269"/><linearGradient id="SVGID_8_" gradientUnits="userSpaceOnUse" x1="62.074" x2="501.616" xlink:href="#lg2" y1="238.268" y2="238.268"/><linearGradient id="SVGID_10_" gradientUnits="userSpaceOnUse" x1="62.074" x2="501.616" xlink:href="#lg2" y1="238.27" y2="238.27"/><linearGradient id="SVGID_11_" gradientUnits="userSpaceOnUse" x1="62.074" x2="501.616" xlink:href="#lg2" y1="204.771" y2="204.771"/><linearGradient id="lg3"><stop offset="0" stop-color="#fff9df"/><stop offset=".593" stop-color="#ffe177"/><stop offset="1" stop-color="#feb237"/></linearGradient><linearGradient id="SVGID_12_" gradientUnits="userSpaceOnUse" x1="1.602" x2="542.603" xlink:href="#lg3" y1="306.514" y2="306.514"/><linearGradient id="SVGID_13_" gradientUnits="userSpaceOnUse" x1="175.121" x2="379.309" xlink:href="#lg3" y1="306.514" y2="306.514"/><g><path d="m486.5 306.514-16.706 123.986c-6.144 45.532-44.998 79.5-90.931 79.5h-247.727c-45.933 0-84.787-33.968-90.931-79.5l-16.705-123.986z" fill="url(#SVGID_1_)"/><path d="m486.5 306.51-7.67 56.93-9.04 67.06c-6.14 45.53-44.99 79.5-90.93 79.5h-40.02c45.94 0 84.79-33.97 90.93-79.5l.034-.252c4.766-35.352-22.725-66.798-58.396-66.798h-340.227c-.004-.004-.007-.006-.011-.01l-7.67-56.93z" fill="url(#SVGID_2_)"/><g><path d="m413.5 117.095h-25c0-34.701-54.826-73.366-133.5-73.366-78.673 0-133.5 38.665-133.5 73.366h-25c0-30.467 17.72-58.107 49.896-77.826 29.217-17.907 67.787-27.769 108.604-27.769 40.816 0 79.387 9.862 108.604 27.769 32.176 19.72 49.896 47.359 49.896 77.826z" fill="url(#SVGID_3_)"/><g><path d="m255 56.162c13.525 0 26.763 1.07 39.555 3.169 16.02 2.629 31.416-5.69 31.416-17.141v-20.737c0-8.283-8.246-15.421-19.836-17.316-16.678-2.727-33.841-4.136-51.135-4.136s-34.457 1.409-51.134 4.136c-11.59 1.896-19.836 9.033-19.836 17.316v20.737c0 11.451 15.396 19.77 31.416 17.141 12.791-2.1 26.029-3.169 39.554-3.169z" fill="url(#SVGID_4_)"/><path d="m325.97 21.456v20.732c0 11.451-15.4 19.772-31.42 17.142-6.58-1.078-13.27-1.885-20.06-2.414 6.83-3.11 11.46-8.446 11.46-14.728v-20.732c0-8.286-8.25-15.424-19.84-17.316-10.21-1.67-20.62-2.845-31.12-3.506 6.64-.418 13.32-.634 20.01-.634 17.29 0 34.46 1.412 51.13 4.139 11.59 1.893 19.84 9.031 19.84 17.317z" fill="url(#SVGID_5_)"/></g></g><path d="m486.5 306.514-16.706-123.986c-6.144-45.532-44.998-79.5-90.931-79.5h-247.727c-45.933 0-84.787 33.968-90.931 79.5l-16.705 123.986z" fill="url(#SVGID_6_)"/><g><path d="m90.257 170.08c-7.097-.63-13.368 4.44-14.008 11.31l-11.749 125.12h25.881l11.543-122.85c.649-6.87-4.581-12.95-11.667-13.58z" fill="url(#SVGID_7_)"/><path d="m335.572 170.04c-7.117.31-12.626 6.15-12.316 13.04l5.673 123.43h25.819l-5.725-124.54c-.32-6.9-6.355-12.25-13.451-11.93z" fill="url(#SVGID_8_)"/><path d="m174.428 170.04c-7.066-.32-13.131 5.03-13.451 11.93l-5.725 124.54h25.819l5.673-123.43c.31-6.89-5.198-12.73-12.316-13.04z" fill="url(#SVGID_8_)"/><path d="m255 170.03c-7.117 0-12.894 5.59-12.894 12.5v123.98h25.788v-123.98c0-6.91-5.777-12.5-12.894-12.5z" fill="url(#SVGID_10_)"/><path d="m486.5 306.514-16.706-123.986c-6.144-45.532-44.998-79.5-90.931-79.5h-40.02c42.279 0 78.538 28.788 88.834 68.874-2.295-1.375-5.043-2.079-7.934-1.822-7.086.63-12.316 6.71-11.666 13.58l11.543 122.85z" fill="url(#SVGID_11_)"/></g><g><path d="m478.077 338.437h-446.154c-17.631 0-31.923-14.293-31.923-31.923 0-17.63 14.292-31.923 31.923-31.923h446.154c17.63 0 31.923 14.292 31.923 31.923 0 17.63-14.292 31.923-31.923 31.923z" fill="url(#SVGID_12_)"/><path d="m478.077 274.591h-41.025c17.63 0 31.923 14.292 31.923 31.923 0 17.63-14.292 31.923-31.923 31.923h41.025c17.63 0 31.923-14.292 31.923-31.923 0-17.631-14.292-31.923-31.923-31.923z" fill="url(#SVGID_13_)"/></g></g></svg>