<svg id="Capa_1" enable-background="new 0 0 510 510" height="512" viewBox="0 0 510 510" width="512" xmlns="http://www.w3.org/2000/svg" xmlns:xlink="http://www.w3.org/1999/xlink"><linearGradient id="lg1"><stop offset="0" stop-color="#fe646f"/><stop offset=".593" stop-color="#fb2b3a"/><stop offset="1" stop-color="#c41926"/></linearGradient><linearGradient id="SVGID_1_" gradientUnits="userSpaceOnUse" x1="77.626" x2="644.34" xlink:href="#lg1" y1="121.24" y2="121.24"/><linearGradient id="SVGID_2_" gradientUnits="userSpaceOnUse" x1="104" x2="285.995" xlink:href="#lg1" y1="121.24" y2="121.24"/><linearGradient id="SVGID_3_" gradientUnits="userSpaceOnUse" x1="58.667" x2="431.414" xlink:href="#lg1" y1="121.24" y2="121.24"/><linearGradient id="SVGID_4_" gradientUnits="userSpaceOnUse" x1="360" x2="572.236" xlink:href="#lg1" y1="121.24" y2="121.24"/><linearGradient id="SVGID_5_" gradientUnits="userSpaceOnUse" x1="281" x2="546.068" xlink:href="#lg1" y1="121.24" y2="121.24"/><linearGradient id="SVGID_6_" gradientUnits="userSpaceOnUse" x1="180.5" x2="329.5" y1="269.448" y2="269.448"><stop offset="0" stop-color="#f8f6f7"/><stop offset=".1788" stop-color="#f8f6f7"/><stop offset="1" stop-color="#e7e6f5"/></linearGradient><linearGradient id="lg2"><stop offset="0" stop-color="#f8f6f7"/><stop offset="1" stop-color="#d1ceeb"/></linearGradient><linearGradient id="SVGID_7_" gradientUnits="userSpaceOnUse" x1="171" x2="263.784" xlink:href="#lg2" y1="319.765" y2="319.765"/><linearGradient id="SVGID_8_" gradientUnits="userSpaceOnUse" x1="171" x2="263.784" xlink:href="#lg2" y1="216.891" y2="216.891"/><linearGradient id="SVGID_9_" gradientUnits="userSpaceOnUse" x1="197.333" x2="329.712" xlink:href="#lg2" y1="269.448" y2="269.448"/><linearGradient id="lg3"><stop offset="0" stop-color="#fff9df"/><stop offset=".593" stop-color="#ffe177"/><stop offset="1" stop-color="#feb237"/></linearGradient><linearGradient id="SVGID_10_" gradientUnits="userSpaceOnUse" x1="170" x2="304.06" xlink:href="#lg3" y1="121.24" y2="121.24"/><linearGradient id="lg4"><stop offset="0" stop-color="#ffe177"/><stop offset="1" stop-color="#feb237"/></linearGradient><linearGradient id="SVGID_11_" gradientUnits="userSpaceOnUse" x1="177.259" x2="319.752" xlink:href="#lg4" y1="121.239" y2="121.239"/><linearGradient id="SVGID_12_" gradientUnits="userSpaceOnUse" x1="170" x2="304.06" xlink:href="#lg3" y1="361.413" y2="361.413"/><linearGradient id="SVGID_13_" gradientUnits="userSpaceOnUse" x1="177.259" x2="319.752" xlink:href="#lg4" y1="361.413" y2="361.413"/><linearGradient id="lg5"><stop offset="0" stop-color="#537983"/><stop offset=".593" stop-color="#554e56"/><stop offset="1" stop-color="#433f43"/></linearGradient><linearGradient id="SVGID_14_" gradientUnits="userSpaceOnUse" x1="14.006" x2="93.63" xlink:href="#lg5" y1="119.74" y2="119.74"/><linearGradient id="SVGID_15_" gradientUnits="userSpaceOnUse" x1="117.851" x2="197.475" xlink:href="#lg5" y1="119.74" y2="119.74"/><linearGradient id="SVGID_16_" gradientUnits="userSpaceOnUse" x1="386.5" x2="466.124" xlink:href="#lg5" y1="119.74" y2="119.74"/><linearGradient id="SVGID_17_" gradientUnits="userSpaceOnUse" x1="92.324" x2="416.085" xlink:href="#lg3" y1="421.349" y2="421.349"/><linearGradient id="SVGID_18_" gradientUnits="userSpaceOnUse" x1="204.667" x2="375.1" xlink:href="#lg4" y1="421.349" y2="421.349"/><linearGradient id="SVGID_19_" gradientUnits="userSpaceOnUse" x1="102.5" x2="249.501" xlink:href="#lg3" y1="357.078" y2="357.078"/><linearGradient id="SVGID_20_" gradientUnits="userSpaceOnUse" x1="102.5" x2="249.501" xlink:href="#lg3" y1="485.62" y2="485.62"/><g><path d="m482.099 219.382h-454.198c-15.409 0-27.901-12.492-27.901-27.901v-140.483c0-15.409 12.492-27.901 27.901-27.901h454.197c15.409 0 27.901 12.492 27.901 27.901v140.482c.001 15.41-12.491 27.902-27.9 27.902z" fill="url(#SVGID_1_)"/><path d="m201.845 28.144v186.191c0 1.724.163 3.409.46 5.047h55.367c.297-1.638.46-3.323.46-5.047v-186.191c0-1.724-.163-3.409-.46-5.047h-55.367c-.297 1.638-.46 3.323-.46 5.047z" fill="url(#SVGID_2_)"/><path d="m482.099 219.382h-74.293c-54.202 0-98.142-43.94-98.142-98.142 0-54.202 43.94-98.142 98.142-98.142h74.293c15.409 0 27.901 12.492 27.901 27.901v140.482c0 15.409-12.492 27.901-27.901 27.901z" fill="url(#SVGID_3_)"/><path d="m482.099 219.382h-34.273c-54.202 0-98.142-43.94-98.142-98.142 0-54.202 43.94-98.142 98.142-98.142h34.273c15.409 0 27.901 12.492 27.901 27.901v140.482c0 15.409-12.492 27.901-27.901 27.901z" fill="url(#SVGID_4_)"/><path d="m482.099 23.097h-34.273c-1.258 0-2.509.031-3.756.078 14.479 1.022 25.91 13.084 25.91 27.823v140.482c0 14.739-11.431 26.801-25.91 27.823 1.247.047 2.498.078 3.756.078h34.273c15.409 0 27.901-12.492 27.901-27.901v-140.482c0-15.409-12.492-27.901-27.901-27.901z" fill="url(#SVGID_5_)"/><g><path d="m255 343.948c-41.08 0-74.5-33.42-74.5-74.5s33.42-74.5 74.5-74.5 74.5 33.42 74.5 74.5-33.42 74.5-74.5 74.5zm0-124c-27.294 0-49.5 22.206-49.5 49.5s22.206 49.5 49.5 49.5 49.5-22.206 49.5-49.5-22.206-49.5-49.5-49.5z" fill="url(#SVGID_6_)"/><path d="m212.989 295.583c-6.77 5.14-11.144 13.271-11.144 22.426v3.569c13.529 13.792 32.355 22.37 53.155 22.37 1.051 0 2.093-.036 3.133-.079v-25.03c-1.037.065-2.08.109-3.133.109-17.705 0-33.26-9.35-42.011-23.365z" fill="url(#SVGID_7_)"/><path d="m201.988 217.178c.933 9.303 6.401 17.265 14.157 21.657 9.073-11.491 23.112-18.888 38.856-18.888.859 0 1.709.034 2.556.08.378-1.839.577-3.742.577-5.693v-19.308c-1.04-.043-2.082-.079-3.133-.079-20.729.001-39.495 8.522-53.013 22.231z" fill="url(#SVGID_8_)"/><path d="m255 194.948c-4.263 0-8.436.379-12.505 1.07 34.26 5.818 60.62 35.091 61.924 70.669.051.914.081 1.834.081 2.76s-.031 1.846-.081 2.76c-1.305 35.578-27.665 64.851-61.924 70.669 4.069.691 8.243 1.07 12.505 1.07 41.08 0 74.5-33.42 74.5-74.5s-33.42-74.498-74.5-74.498z" fill="url(#SVGID_9_)"/></g><g><path d="m283.144 214.335v-186.191c0-15.544-12.601-28.144-28.144-28.144-15.543 0-28.144 12.6-28.144 28.144v186.191c0 15.543 12.6 28.144 28.144 28.144 15.543 0 28.144-12.601 28.144-28.144z" fill="url(#SVGID_10_)"/><path d="m255 0c-4.493 0-8.737 1.058-12.505 2.931 9.267 4.605 15.638 14.163 15.638 25.213v186.191c0 11.05-6.372 20.608-15.638 25.213 3.768 1.873 8.012 2.931 12.505 2.931 15.543 0 28.144-12.6 28.144-28.144v-186.191c0-15.544-12.601-28.144-28.144-28.144z" fill="url(#SVGID_11_)"/></g><g><path d="m283.144 404.818v-86.809c0-15.543-12.6-28.144-28.144-28.144-15.543 0-28.144 12.6-28.144 28.144v86.809c0 15.543 12.6 28.144 28.144 28.144 15.543-.001 28.144-12.601 28.144-28.144z" fill="url(#SVGID_12_)"/><path d="m255 289.865c-4.493 0-8.737 1.058-12.505 2.931 9.267 4.605 15.638 14.163 15.638 25.213v86.809c0 11.05-6.372 20.608-15.638 25.213 3.768 1.873 8.012 2.931 12.505 2.931 15.543 0 28.144-12.6 28.144-28.144v-86.809c0-15.543-12.601-28.144-28.144-28.144z" fill="url(#SVGID_13_)"/></g><g><circle cx="50.506" cy="119.739" fill="url(#SVGID_14_)" r="27.5"/><circle cx="154.351" cy="119.739" fill="url(#SVGID_15_)" r="27.5"/></g><g><circle cx="423" cy="119.739" fill="url(#SVGID_16_)" r="27.5"/></g><path d="m386.74 409.925c6.903-8.962 10.709-20.429 9.813-32.809-1.706-23.569-20.756-42.605-44.326-44.292-28.101-2.011-51.522 20.19-51.522 47.862 0 .259.021.513.025.771h-91.46c.004-.258.025-.512.025-.771 0-27.672-23.422-49.874-51.522-47.862-23.571 1.687-42.621 20.723-44.326 44.292-.896 12.379 2.911 23.847 9.813 32.809 5.199 6.75 5.199 16.097 0 22.847-6.903 8.962-10.709 20.429-9.813 32.809 1.706 23.569 20.755 42.605 44.326 44.293 28.101 2.012 51.523-20.19 51.523-47.862 0-.259-.021-.513-.025-.771h91.461c-.004.258-.025.512-.025.771 0 27.672 23.422 49.874 51.523 47.862 23.571-1.687 42.621-20.723 44.326-44.293.896-12.379-2.911-23.847-9.813-32.809-5.202-6.75-5.202-16.096-.003-22.847z" fill="url(#SVGID_17_)"/><path d="m386.74 409.925c6.903-8.962 10.709-20.429 9.813-32.809-1.706-23.57-20.756-42.605-44.326-44.292-8.443-.604-16.457.99-23.547 4.249 15.463 7.141 26.569 22.307 27.853 40.043.896 12.379-2.911 23.847-9.813 32.809-5.199 6.75-5.199 16.097 0 22.847 6.903 8.962 10.709 20.429 9.813 32.809-1.283 17.737-12.39 32.903-27.853 40.043 7.09 3.259 15.104 4.854 23.547 4.249 23.571-1.687 42.621-20.723 44.326-44.292.896-12.379-2.911-23.847-9.813-32.809-5.199-6.75-5.199-16.096 0-22.847z" fill="url(#SVGID_18_)"/><g><path d="m182.16 366.528c2.6 8.428 10.077 14.404 18.893 14.676l8.217.254c.008-.007.012-.011.019-.019.429-28.021-23.161-50.644-51.516-48.615-3.083.221-6.086.745-8.985 1.531 15.9 4.277 28.539 16.511 33.372 32.173z" fill="url(#SVGID_19_)"/><path d="m201.052 461.493c-8.816.272-16.292 6.248-18.893 14.676-4.832 15.662-17.472 27.896-33.373 32.173 2.9.786 5.902 1.31 8.985 1.531 28.355 2.03 51.946-20.594 51.517-48.615-.008-.007-.012-.011-.019-.019z" fill="url(#SVGID_20_)"/></g></g></svg>