<svg id="Capa_1" enable-background="new 0 0 510 510" height="512" viewBox="0 0 510 510" width="512" xmlns="http://www.w3.org/2000/svg" xmlns:xlink="http://www.w3.org/1999/xlink"><linearGradient id="lg1"><stop offset="0" stop-color="#fff9df"/><stop offset=".593" stop-color="#ffe177"/><stop offset="1" stop-color="#feb237"/></linearGradient><linearGradient id="SVGID_1_" gradientUnits="userSpaceOnUse" x1="206.998" x2="329.592" xlink:href="#lg1" y1="111.5" y2="111.5"/><linearGradient id="SVGID_2_" gradientUnits="userSpaceOnUse" x1="109" x2="340.78" xlink:href="#lg1" y1="111.5" y2="111.5"/><linearGradient id="SVGID_3_" gradientUnits="userSpaceOnUse" x1="114.32" x2="460.389" xlink:href="#lg1" y1="356.089" y2="356.089"/><linearGradient id="SVGID_4_" gradientUnits="userSpaceOnUse" x1="92" x2="401.364" xlink:href="#lg1" y1="356.265" y2="356.265"/><linearGradient id="SVGID_5_" gradientUnits="userSpaceOnUse" x1="29.956" x2="403.875" xlink:href="#lg1" y1="384.639" y2="384.639"/><linearGradient id="SVGID_7_" gradientUnits="userSpaceOnUse" x1="32" x2="260.02" xlink:href="#lg1" y1="384.639" y2="384.639"/><g><g><path d="m255 0c-26.62 0-48.21 21.58-48.21 48.21v174.79h96.42v-174.79c0-26.63-21.59-48.21-48.21-48.21zm0 84.3c-15.19 0-27.5-12.31-27.5-27.5s12.31-27.5 27.5-27.5 27.5 12.31 27.5 27.5-12.31 27.5-27.5 27.5z" fill="url(#SVGID_1_)"/><path d="m303.21 48.21c0-26.63-21.59-48.21-48.21-48.21-7.141 0-13.913 1.565-20.01 4.352 11.023 5.038 19.817 14.105 24.497 25.319 13.054 2.142 23.013 13.468 23.013 27.129 0 12.338-8.121 22.775-19.31 26.26v139.94h40.02z" fill="url(#SVGID_2_)"/></g><g><path d="m415.701 478.427-21.975-179.691c-9.024-55.021-68.411-96.206-138.726-96.206-70.315 0-129.702 41.185-138.726 96.206l-21.975 179.691c-2.5 15.245 10.983 28.903 29.57 31.22l14.903-154.161c7.56-55.021 57.316-96.206 116.228-96.206 58.912 0 108.668 41.185 116.228 96.206l14.903 154.161c18.587-2.316 32.071-15.975 29.57-31.22z" fill="url(#SVGID_3_)"/><path d="m415.701 478.427-21.975-179.691c-9.024-55.021-68.411-96.206-138.726-96.206-6.784 0-13.465.387-20.01 1.13 61.294 6.95 110.563 45.364 118.716 95.077l21.975 179.691c2.5 15.244-10.98 28.9-29.564 31.219v.003c-1.825.23-3.688.35-5.602.35h40.02c1.914 0 3.777-.12 5.602-.35v-.003c18.584-2.319 32.064-15.976 29.564-31.22z" fill="url(#SVGID_4_)"/><path d="m371.233 355.487 14.904 154.163c-1.825.23-3.688.35-5.602.35h-251.07c-1.914 0-3.777-.12-5.602-.35l14.904-154.163c7.566-55.02 57.324-96.21 116.233-96.21 29.454 0 56.627 10.3 77.374 27.47 20.747 17.18 35.069 41.23 38.859 68.74z" fill="url(#SVGID_5_)"/></g><path d="m371.233 355.487 14.904 154.163c-1.825.23-3.688.35-5.602.35h-251.07c-1.914 0-3.777-.12-5.602-.35l14.904-154.163c7.566-55.02 57.324-96.21 116.233-96.21 29.454 0 56.627 10.3 77.374 27.47 20.747 17.18 35.069 41.23 38.859 68.74z" fill="url(#SVGID_5_)"/><path d="m371.232 355.487c-3.79-27.51-18.111-51.56-38.858-68.74-20.747-17.17-47.92-27.47-77.374-27.47-6.81 0-13.496.557-20.01 1.616 21.663 3.521 41.414 12.654 57.365 25.854 20.747 17.18 35.069 41.23 38.858 68.74l14.905 154.163c-1.825.23-3.688.35-5.602.35h40.02c1.914 0 3.777-.12 5.602-.35z" fill="url(#SVGID_7_)"/></g></svg>