<svg id="Capa_1" enable-background="new 0 0 510 510" height="512" viewBox="0 0 510 510" width="512" xmlns="http://www.w3.org/2000/svg" xmlns:xlink="http://www.w3.org/1999/xlink"><linearGradient id="lg1"><stop offset="0" stop-color="#f8f6f7"/><stop offset=".1788" stop-color="#f8f6f7"/><stop offset="1" stop-color="#e7e6f5"/></linearGradient><linearGradient id="SVGID_1_" gradientUnits="userSpaceOnUse" x1="96.5" x2="413.5" xlink:href="#lg1" y1="92.155" y2="92.155"/><linearGradient id="SVGID_2_" gradientUnits="userSpaceOnUse" x1="184.029" x2="325.971" y1="57.766" y2="57.766"><stop offset="0" stop-color="#b0e7c9"/><stop offset=".593" stop-color="#46cc8d"/><stop offset="1" stop-color="#0ab69f"/></linearGradient><linearGradient id="SVGID_3_" gradientUnits="userSpaceOnUse" x1="201.333" x2="369.134" y1="57.766" y2="57.766"><stop offset="0" stop-color="#46cc8d"/><stop offset=".5484" stop-color="#0ab69f"/><stop offset="1" stop-color="#01998d"/></linearGradient><linearGradient id="lg2"><stop offset="0" stop-color="#fff9df"/><stop offset=".593" stop-color="#ffe177"/><stop offset="1" stop-color="#feb237"/></linearGradient><linearGradient id="SVGID_4_" gradientUnits="userSpaceOnUse" x1="69.532" x2="178.651" xlink:href="#lg2" y1="133.857" y2="133.857"/><linearGradient id="SVGID_5_" gradientUnits="userSpaceOnUse" x1="351.572" x2="460.691" xlink:href="#lg2" y1="133.857" y2="133.857"/><linearGradient id="lg3"><stop offset="0" stop-color="#ffe177"/><stop offset="1" stop-color="#feb237"/></linearGradient><linearGradient id="SVGID_6_" gradientUnits="userSpaceOnUse" x1="396.807" x2="450.401" xlink:href="#lg3" y1="133.857" y2="133.857"/><linearGradient id="SVGID_7_" gradientUnits="userSpaceOnUse" x1="114.767" x2="168.36" xlink:href="#lg3" y1="133.857" y2="133.857"/><linearGradient id="lg4"><stop offset="0" stop-color="#feb237"/><stop offset="1" stop-color="#fd6930"/></linearGradient><linearGradient id="SVGID_8_" gradientUnits="userSpaceOnUse" x1="0" x2="626.02" xlink:href="#lg4" y1="308.823" y2="308.823"/><linearGradient id="SVGID_9_" gradientUnits="userSpaceOnUse" x1="62.5" x2="482.75" xlink:href="#lg1" y1="357.48" y2="357.48"/><linearGradient id="SVGID_10_" gradientUnits="userSpaceOnUse" x1="62.5" x2="482.75" xlink:href="#lg1" y1="289.833" y2="289.833"/><linearGradient id="SVGID_12_" gradientUnits="userSpaceOnUse" x1="62.5" x2="482.75" xlink:href="#lg1" y1="216.356" y2="216.356"/><linearGradient id="SVGID_14_" gradientUnits="userSpaceOnUse" x1="98.822" x2="350.231" y1="357.48" y2="357.48"><stop offset="0" stop-color="#f8f6f7"/><stop offset="1" stop-color="#d1ceeb"/></linearGradient><linearGradient id="SVGID_15_" gradientUnits="userSpaceOnUse" x1="154.122" x2="469.11" xlink:href="#lg4" y1="308.823" y2="308.823"/><g><g><path d="m413.5 144.952h-25c0-34.701-54.826-73.366-133.5-73.366-78.673 0-133.5 38.665-133.5 73.366h-25c0-30.467 17.72-58.107 49.896-77.826 29.217-17.907 67.787-27.769 108.604-27.769 40.816 0 79.387 9.862 108.604 27.769 32.176 19.72 49.896 47.359 49.896 77.826z" fill="url(#SVGID_1_)"/><g><path d="m255 84.018c13.525 0 26.763 1.07 39.555 3.169 16.02 2.629 31.416-5.69 31.416-17.141v-20.736c0-8.283-8.246-15.421-19.836-17.316-16.677-2.728-33.84-4.136-51.134-4.136s-34.457 1.409-51.134 4.136c-11.59 1.896-19.836 9.033-19.836 17.316v20.736c0 11.451 15.396 19.77 31.416 17.141 12.79-2.099 26.028-3.169 39.553-3.169z" fill="url(#SVGID_2_)"/><path d="m325.97 49.312v20.732c0 11.451-15.4 19.772-31.42 17.142-6.58-1.078-13.27-1.885-20.06-2.414 6.83-3.11 11.46-8.446 11.46-14.728v-20.732c0-8.286-8.25-15.424-19.84-17.316-10.21-1.67-20.62-2.845-31.12-3.506 6.64-.417 13.32-.633 20.01-.633 17.29 0 34.46 1.412 51.13 4.139 11.59 1.893 19.84 9.031 19.84 17.316z" fill="url(#SVGID_3_)"/></g></g><path d="m158.428 156.857h-88.896v-27.35c0-10.3 8.35-18.65 18.65-18.65h51.595c10.3 0 18.65 8.35 18.65 18.65v27.35z" fill="url(#SVGID_4_)"/><path d="m440.468 156.857h-88.896v-27.35c0-10.3 8.35-18.65 18.65-18.65h51.595c10.3 0 18.65 8.35 18.65 18.65v27.35z" fill="url(#SVGID_5_)"/><path d="m421.818 110.857h-25.011c10.3 0 18.65 8.35 18.65 18.65v27.35h25.011v-27.35c0-10.3-8.35-18.65-18.65-18.65z" fill="url(#SVGID_6_)"/><path d="m139.778 110.857h-25.011c10.3 0 18.65 8.35 18.65 18.65v27.35h25.011v-27.35c0-10.3-8.35-18.65-18.65-18.65z" fill="url(#SVGID_7_)"/><path d="m483.273 482.143h-456.546c-14.761 0-26.727-11.966-26.727-26.727v-293.187c0-14.761 11.966-26.727 26.727-26.727h456.547c14.761 0 26.727 11.966 26.727 26.727v293.188c-.001 14.76-11.967 26.726-26.728 26.726z" fill="url(#SVGID_8_)"/><g><g><path d="m255 279.576c-25.764 0-49.986 10.033-68.204 28.251s-28.251 42.44-28.251 68.204c0 16.024 4.014 31.898 11.609 45.906 3.654 6.74 10.059 11.461 17.572 12.953 7.464 1.482 15.128-.415 21.026-5.205 13.207-10.726 29.199-16.395 46.248-16.395s33.041 5.669 46.248 16.394c4.585 3.724 10.238 5.7 16.034 5.7 2.347 0 4.717-.324 7.05-.987 6.835-1.943 12.479-6.763 15.822-13.033 7.581-14.217 11.485-30.276 11.294-46.491-.301-25.61-10.459-49.584-28.601-67.508-18.139-17.92-42.234-27.79-67.847-27.789z" fill="url(#SVGID_9_)"/><circle cx="147.428" cy="289.833" fill="url(#SVGID_10_)" r="34.095"/><circle cx="362.572" cy="289.833" fill="url(#SVGID_10_)" r="34.095"/><g fill="url(#SVGID_12_)"><circle cx="305" cy="216.356" r="34.095"/><circle cx="205" cy="216.356" r="34.095"/></g></g><path d="m322.848 307.366c-18.14-17.921-42.235-27.79-67.848-27.79-6.204 0-12.318.588-18.281 1.726 18.635 3.549 35.784 12.497 49.518 26.064 18.142 17.923 28.3 41.898 28.601 67.508.191 16.215-3.713 32.275-11.294 46.491-1.267 2.376-2.866 4.542-4.733 6.424.822.614 1.635 1.245 2.437 1.896 4.585 3.724 10.238 5.7 16.034 5.7 2.347 0 4.717-.324 7.05-.987 6.835-1.943 12.479-6.763 15.822-13.033 7.581-14.217 11.485-30.276 11.294-46.491-.301-25.61-10.458-49.585-28.6-67.508z" fill="url(#SVGID_14_)"/></g><path d="m483.273 135.502h-40.02c14.761 0 26.727 11.966 26.727 26.727v293.188c0 14.761-11.966 26.727-26.727 26.727h40.02c14.761 0 26.727-11.966 26.727-26.727v-293.188c0-14.761-11.966-26.727-26.727-26.727z" fill="url(#SVGID_15_)"/></g></svg>