<svg id="Capa_1" enable-background="new 0 0 510 510" height="512" viewBox="0 0 510 510" width="512" xmlns="http://www.w3.org/2000/svg" xmlns:xlink="http://www.w3.org/1999/xlink"><linearGradient id="lg1"><stop offset="0" stop-color="#b0e7c9"/><stop offset=".593" stop-color="#46cc8d"/><stop offset="1" stop-color="#0ab69f"/></linearGradient><linearGradient id="SVGID_1_" gradientUnits="userSpaceOnUse" x1="-1.397" x2="158.787" xlink:href="#lg1" y1="399.418" y2="399.418"/><linearGradient id="SVGID_2_" gradientUnits="userSpaceOnUse" x1="346.569" x2="525.57" xlink:href="#lg1" y1="399.418" y2="399.418"/><linearGradient id="SVGID_3_" gradientUnits="userSpaceOnUse" x1="-58" x2="89.484" xlink:href="#lg1" y1="387.961" y2="387.961"/><linearGradient id="SVGID_4_" gradientUnits="userSpaceOnUse" x1="282" x2="447.959" xlink:href="#lg1" y1="387.961" y2="387.961"/><linearGradient id="lg2"><stop offset="0" stop-color="#fbc56d"/><stop offset=".593" stop-color="#dc8758"/><stop offset="1" stop-color="#9e5528"/></linearGradient><linearGradient id="SVGID_5_" gradientUnits="userSpaceOnUse" x1="52.601" x2="535.586" xlink:href="#lg2" y1="196.695" y2="196.695"/><linearGradient id="SVGID_6_" gradientUnits="userSpaceOnUse" x1="-15" x2="242.614" xlink:href="#lg2" y1="220.364" y2="220.364"/><linearGradient id="SVGID_7_" gradientUnits="userSpaceOnUse" x1="-25.778" x2="451.8" xlink:href="#lg2" y1="196.693" y2="196.693"/><linearGradient id="SVGID_8_" gradientUnits="userSpaceOnUse" x1="-52.394" x2="551.934" xlink:href="#lg2" y1="327.477" y2="327.477"/><linearGradient id="SVGID_9_" gradientUnits="userSpaceOnUse" x1="-71.893" x2="222.046" xlink:href="#lg2" y1="334.336" y2="334.336"/><linearGradient id="SVGID_10_" gradientUnits="userSpaceOnUse" x1="47.513" x2="556.89" xlink:href="#lg1" y1="266.649" y2="266.649"/><linearGradient id="SVGID_11_" gradientUnits="userSpaceOnUse" x1="94" x2="463.439" xlink:href="#lg1" y1="266.649" y2="266.649"/><linearGradient id="SVGID_12_" gradientUnits="userSpaceOnUse" x1="-22" x2="398.804" xlink:href="#lg1" y1="399.418" y2="399.418"/><linearGradient id="SVGID_13_" gradientUnits="userSpaceOnUse" x1="192" x2="438.089" y1="399.418" y2="399.418"><stop offset="0" stop-color="#46cc8d"/><stop offset=".5484" stop-color="#0ab69f"/><stop offset="1" stop-color="#01998d"/></linearGradient><linearGradient id="lg3"><stop offset="0" stop-color="#537983"/><stop offset=".593" stop-color="#554e56"/><stop offset="1" stop-color="#433f43"/></linearGradient><linearGradient id="SVGID_14_" gradientTransform="matrix(1 0 0 -1 0 -7018.242)" gradientUnits="userSpaceOnUse" x1="149.433" x2="210.219" xlink:href="#lg3" y1="-7276.356" y2="-7276.356"/><linearGradient id="SVGID_15_" gradientTransform="matrix(1 0 0 -1 0 -7018.242)" gradientUnits="userSpaceOnUse" x1="255.182" x2="351.265" xlink:href="#lg3" y1="-7276.356" y2="-7276.356"/><g><path d="m67.076 324.304c-1.729.061-3.441.186-5.136.362.237 2.025.398 4.075.472 6.148 1.185 33.258-19.425 62.233-49.02 73.179-11.315 4.185-16.602 17.215-11.356 28.08 12.718 26.34 40.298 43.972 71.491 42.414 40.418-2.018 72.231-36.179 71.372-76.638-.894-42.014-35.971-75.036-77.823-73.545z" fill="url(#SVGID_1_)"/><path d="m442.924 324.304c1.729.061 3.441.186 5.136.362-.237 2.025-.398 4.075-.472 6.148-1.185 33.258 19.425 62.233 49.02 73.179 11.315 4.185 16.602 17.215 11.356 28.08-12.718 26.34-40.298 43.972-71.491 42.414-40.418-2.018-72.231-36.179-71.372-76.638.894-42.014 35.971-75.036 77.823-73.545z" fill="url(#SVGID_2_)"/><path d="m144.9 397.848c.44 20.76-7.72 39.86-21.23 53.81-42.72-17.83-71.24-44.19-75.58-73.97 9.55-13.11 14.95-29.41 14.32-46.88-.01-.16-.01-.33-.02-.49-.08-1.9-.23-3.79-.45-5.65 1.7-.18 3.41-.3 5.14-.36.16-.01.32-.01.47-.01 41.64-1.24 76.46 31.7 77.35 73.55z" fill="url(#SVGID_3_)"/><path d="m461.91 377.688c-4.34 29.78-32.86 56.14-75.58 73.97-13.51-13.95-21.67-33.05-21.23-53.81.89-41.85 35.71-74.79 77.35-73.55.15 0 .31 0 .47.01 1.73.06 3.44.18 5.14.36-.22 1.86-.37 3.75-.45 5.65-.01.16-.01.33-.02.49-.63 17.47 4.77 33.77 14.32 46.88z" fill="url(#SVGID_4_)"/><g><path d="m483.079 263.497c0 125.965-456.158 125.965-456.158 0s102.114-228.079 228.079-228.079 228.079 102.115 228.079 228.079z" fill="url(#SVGID_5_)"/><path d="m41.867 300.042c60.651 67.803 290.075 76.084 391.953 24.842-3.313-8.906-8.8-17.42-16.195-25.385-11.738-12.643-17.885-29.403-17.854-46.655 0-.101 0-.201 0-.302 0-93.768-76.014-169.781-169.782-169.781s-169.781 76.013-169.781 169.78v.302c.03 17.252-6.116 34.012-17.854 46.655-.167.18-.322.363-.487.544z" fill="url(#SVGID_6_)"/><path d="m364.945 63.619c-.772-.426-1.539-.834-2.304-1.233-32.065-17.199-68.709-26.968-107.641-26.968-39.862 0-77.33 10.237-109.935 28.209l48.062 48.062c34.171 34.171 89.574 34.171 123.745 0 19.722-19.722 52.093-18.712 70.382 2.346 34.762 40.025 55.805 92.284 55.805 149.462 0 59.294-101.076 90.673-208.069 94.145 120.303 3.904 248.089-27.475 248.089-94.145 0-86.101-47.71-161.058-118.134-199.878z" fill="url(#SVGID_7_)"/><path d="m39.411 265.756c-16.941-10.905-39.366 1.196-39.411 21.343v.577c0 140.833 510 140.833 510 0 0-.192 0-.385-.001-.577-.045-20.147-22.47-32.247-39.411-21.343-95.05 61.184-336.126 61.184-431.177 0z" fill="url(#SVGID_8_)"/><path d="m433.376 365.737c2.685-6.795 4.101-13.824 4.101-21.022 0-16.178-7.123-31.506-19.852-45.217-2.327-2.506-4.424-5.18-6.307-7.981-105.509 31.419-269.137 26.036-354.736-16.14-2.973 8.888-7.742 17.135-14.228 24.121-10.203 10.99-16.792 23.02-19.011 35.693 71.846 65.412 292.007 75.595 410.033 30.546z" fill="url(#SVGID_9_)"/><path d="m442.635 299.498c-11.738-12.643-17.884-29.403-17.854-46.655 0-.101 0-.201 0-.302 0-93.768-76.014-169.781-169.781-169.781s-169.781 76.014-169.781 169.781v.302c.03 17.252-6.116 34.012-17.854 46.655-12.729 13.711-19.852 29.039-19.852 45.217 0 58.445 92.895 105.823 207.487 105.823s207.487-47.378 207.487-105.823c0-16.178-7.123-31.506-19.852-45.217z" fill="url(#SVGID_10_)"/><path d="m442.635 299.498c-11.738-12.643-17.885-29.403-17.854-46.655 0-.101 0-.201 0-.302 0-93.768-76.014-169.781-169.781-169.781-6.771 0-13.446.409-20.01 1.18 84.336 9.904 149.771 81.605 149.771 168.602v.302c-.03 17.252 6.116 34.012 17.854 46.655 12.729 13.711 19.852 29.039 19.852 45.217 0 55.001-82.275 100.196-187.477 105.331 6.586.321 13.259.492 20.01.492 114.592 0 207.487-47.378 207.487-105.823 0-16.179-7.123-31.507-19.852-45.218z" fill="url(#SVGID_11_)"/><path d="m462.37 348.298c-3.7 56.78-95.13 102.24-207.37 102.24s-203.67-45.46-207.37-102.24c4.06 3.49 8.72 6.5 13.99 8.91 19.63 8.99 42.26 14.99 67.67 14.99 26.49 0 47.73 4.6 64.66 11.37 39.12 15.67 82.98 15.67 122.1 0 16.93-6.77 38.17-11.37 64.66-11.37 25.41 0 48.04-6 67.67-14.99 5.27-2.41 9.93-5.42 13.99-8.91z" fill="url(#SVGID_12_)"/><path d="m462.37 348.298c-3.7 56.78-95.13 102.24-207.37 102.24-6.76 0-13.45-.16-20.04-.49 89.99-4.38 163.22-38.08 182.52-82.16 11-2.61 21.3-6.29 30.9-10.68 5.27-2.41 9.93-5.42 13.99-8.91z" fill="url(#SVGID_13_)"/><g><path d="m181.499 239.96c-15.635 0-28.354 12.719-28.354 28.354 0 4.393 3.561 7.954 7.955 7.954 4.393 0 7.954-3.561 7.954-7.954 0-6.862 5.583-12.444 12.445-12.444s12.444 5.583 12.444 12.444c0 4.393 3.561 7.954 7.955 7.954 4.393 0 7.955-3.561 7.955-7.954 0-15.635-12.72-28.354-28.354-28.354z" fill="url(#SVGID_14_)"/><path d="m328.501 239.96c-15.635 0-28.354 12.719-28.354 28.354 0 4.393 3.561 7.954 7.954 7.954s7.955-3.561 7.955-7.954c0-6.862 5.583-12.444 12.445-12.444s12.444 5.583 12.444 12.444c0 4.393 3.561 7.954 7.954 7.954s7.955-3.561 7.955-7.954c.001-15.635-12.719-28.354-28.353-28.354z" fill="url(#SVGID_15_)"/></g></g></g></svg>