<svg id="Capa_1" enable-background="new 0 0 510 510" height="512" viewBox="0 0 510 510" width="512" xmlns="http://www.w3.org/2000/svg" xmlns:xlink="http://www.w3.org/1999/xlink"><linearGradient id="SVGID_1_" gradientUnits="userSpaceOnUse" x1="46" x2="458" y1="255" y2="255"><stop offset="0" stop-color="#f8f6f7"/><stop offset=".1788" stop-color="#f8f6f7"/><stop offset="1" stop-color="#e7e6f5"/></linearGradient><linearGradient id="SVGID_2_" gradientUnits="userSpaceOnUse" x1="34.128" x2="425.68" y1="255" y2="255"><stop offset="0" stop-color="#f8f6f7"/><stop offset="1" stop-color="#d1ceeb"/></linearGradient><linearGradient id="lg1"><stop offset="0" stop-color="#fbc56d"/><stop offset=".593" stop-color="#dc8758"/><stop offset="1" stop-color="#9e5528"/></linearGradient><linearGradient id="SVGID_3_" gradientUnits="userSpaceOnUse" x1="94.93" x2="229.293" xlink:href="#lg1" y1="191.761" y2="191.761"/><linearGradient id="SVGID_4_" gradientUnits="userSpaceOnUse" x1="94.93" x2="229.293" xlink:href="#lg1" y1="291.077" y2="291.077"/><linearGradient id="SVGID_5_" gradientUnits="userSpaceOnUse" x1="94.93" x2="229.293" xlink:href="#lg1" y1="343.042" y2="343.042"/><linearGradient id="SVGID_6_" gradientUnits="userSpaceOnUse" x1="279.766" x2="412.241" xlink:href="#lg1" y1="191.761" y2="191.761"/><linearGradient id="SVGID_7_" gradientUnits="userSpaceOnUse" x1="279.766" x2="412.241" xlink:href="#lg1" y1="291.077" y2="291.077"/><linearGradient id="SVGID_8_" gradientUnits="userSpaceOnUse" x1="279.766" x2="412.241" xlink:href="#lg1" y1="343.042" y2="343.042"/><linearGradient id="SVGID_9_" gradientUnits="userSpaceOnUse" x1="146.905" x2="318.335" xlink:href="#lg1" y1="143.471" y2="143.471"/><linearGradient id="SVGID_10_" gradientUnits="userSpaceOnUse" x1="190.498" x2="343.702" xlink:href="#lg1" y1="186.996" y2="186.996"/><linearGradient id="SVGID_11_" gradientUnits="userSpaceOnUse" x1="173.18" x2="306.153" xlink:href="#lg1" y1="186.996" y2="186.996"/><linearGradient id="SVGID_12_" gradientUnits="userSpaceOnUse" x1="20.97" x2="214.977" xlink:href="#lg1" y1="226.64" y2="226.64"/><linearGradient id="SVGID_13_" gradientUnits="userSpaceOnUse" x1="20.97" x2="214.977" xlink:href="#lg1" y1="256.659" y2="256.659"/><linearGradient id="SVGID_14_" gradientUnits="userSpaceOnUse" x1="20.97" x2="214.977" xlink:href="#lg1" y1="319.303" y2="319.303"/><linearGradient id="SVGID_15_" gradientUnits="userSpaceOnUse" x1="134.915" x2="420.137" xlink:href="#lg1" y1="295.368" y2="295.368"/><linearGradient id="SVGID_16_" gradientUnits="userSpaceOnUse" x1="102.783" x2="358.924" xlink:href="#lg1" y1="295.368" y2="295.368"/><linearGradient id="lg2"><stop offset="0" stop-color="#fe646f"/><stop offset=".593" stop-color="#fb2b3a"/><stop offset="1" stop-color="#c41926"/></linearGradient><linearGradient id="SVGID_17_" gradientUnits="userSpaceOnUse" x1="20" x2="554.24" xlink:href="#lg2" y1="255" y2="255"/><linearGradient id="SVGID_18_" gradientUnits="userSpaceOnUse" x1="-39" x2="386.569" xlink:href="#lg2" y1="289.298" y2="289.298"/><linearGradient id="SVGID_19_" gradientUnits="userSpaceOnUse" x1="-79.333" x2="268.655" xlink:href="#lg2" y1="214.742" y2="214.742"/><linearGradient id="SVGID_20_" gradientUnits="userSpaceOnUse" x1="-53" x2="486.891" xlink:href="#lg2" y1="255" y2="255"/><g><circle cx="255" cy="255" fill="url(#SVGID_1_)" r="218.526"/><path d="m255 36.474c-63.897 0-121.385 27.429-161.343 71.149 32.982-27.183 75.246-43.51 121.323-43.51 105.424 0 190.887 85.463 190.887 190.887s-85.463 190.887-190.887 190.887c-46.077 0-88.341-16.327-121.323-43.51 39.958 43.72 97.446 71.149 161.343 71.149 120.689 0 218.526-97.838 218.526-218.526s-97.837-218.526-218.526-218.526z" fill="url(#SVGID_2_)"/><g><g><path d="m216.277 224.369-32.597-12.347c-5.681-2.152-10.181-6.641-12.346-12.317l-20.675-54.203c-2.081-5.456-8.189-8.19-13.644-6.109s-8.189 8.189-6.109 13.644l20.675 54.203c4.316 11.314 13.285 20.264 24.61 24.553l32.597 12.347c1.233.467 2.498.688 3.743.688 4.267 0 8.286-2.603 9.887-6.829 2.067-5.46-.682-11.562-6.141-13.63z" fill="url(#SVGID_3_)"/><path d="m179.55 238.699-32.596 12.347c-11.325 4.289-20.295 13.239-24.61 24.553l-20.676 54.203c-2.081 5.455.654 11.563 6.109 13.644 1.24.473 2.513.697 3.766.697 4.257 0 8.271-2.591 9.878-6.806l20.676-54.203c2.165-5.676 6.665-10.165 12.346-12.317l32.596-12.347c5.459-2.068 8.209-8.17 6.141-13.629-2.069-5.461-8.171-8.21-13.63-6.142z" fill="url(#SVGID_4_)"/><path d="m167.277 341.189c-2.483-5.544-2.475-11.9.02-17.439l14.318-31.78c2.398-5.323.027-11.582-5.295-13.98-5.322-2.397-11.582-.028-13.98 5.296l-14.318 31.78c-4.974 11.041-4.989 23.712-.04 34.763l23.707 52.947c1.757 3.926 5.614 6.254 9.653 6.254 1.443 0 2.911-.298 4.314-.926 5.328-2.386 7.714-8.639 5.328-13.967z" fill="url(#SVGID_5_)"/></g><g><path d="m358.419 207.239 20.675-54.203c2.081-5.455-.654-11.563-6.109-13.644s-11.563.654-13.644 6.109l-20.675 54.203c-2.165 5.676-6.665 10.165-12.346 12.317l-32.597 12.347c-5.459 2.068-8.209 8.17-6.141 13.63 1.601 4.227 5.62 6.829 9.887 6.829 1.245 0 2.51-.221 3.743-.688l32.597-12.347c11.325-4.29 20.294-13.239 24.61-24.553z" fill="url(#SVGID_6_)"/><path d="m408.332 329.803-20.676-54.203c-4.316-11.314-13.286-20.264-24.61-24.553l-32.596-12.347c-5.459-2.068-11.562.681-13.63 6.141-2.068 5.459.681 11.562 6.141 13.629l32.596 12.347c5.681 2.152 10.181 6.641 12.346 12.317l20.676 54.203c1.607 4.215 5.621 6.806 9.878 6.806 1.253 0 2.526-.224 3.766-.697 5.455-2.08 8.19-8.189 6.109-13.643z" fill="url(#SVGID_7_)"/><path d="m347.66 283.285c-2.398-5.323-8.658-7.693-13.98-5.296-5.322 2.398-7.694 8.657-5.295 13.98l14.318 31.78c2.495 5.539 2.503 11.895.02 17.439l-23.707 52.948c-2.386 5.328-.001 11.582 5.328 13.967 1.403.628 2.87.926 4.314.926 4.039 0 7.896-2.328 9.653-6.254l23.707-52.947c4.949-11.051 4.934-23.722-.04-34.763z" fill="url(#SVGID_8_)"/></g><path d="m321.958 104.069c-4.132-4.132-10.824-4.132-14.95 0l-52.008 52.008-52.008-52.008c-4.126-4.132-10.818-4.132-14.95 0-4.126 4.126-4.126 10.818 0 14.944l66.958 66.958 66.958-66.958c4.125-4.126 4.125-10.818 0-14.944z" fill="url(#SVGID_9_)"/><circle cx="255" cy="186.995" fill="url(#SVGID_10_)" r="49.975"/><path d="m255 137.02c-4.169 0-8.215.519-12.087 1.48 21.759 5.406 37.888 25.063 37.888 48.495s-16.129 43.089-37.888 48.495c3.871.962 7.918 1.48 12.087 1.48 27.6 0 49.975-22.375 49.975-49.975s-22.375-49.975-49.975-49.975z" fill="url(#SVGID_11_)"/><g><path d="m216.275 224.369-32.594-12.347c-2.241-.846-4.301-2.06-6.101-3.57-4.911 4.953-9.351 10.48-13.229 16.49 3.516 2.881 7.508 5.207 11.839 6.85l32.594 12.346c1.238.465 2.501.689 3.745.689 4.265 0 8.287-2.603 9.888-6.832 2.067-5.453-.681-11.56-6.142-13.626z" fill="url(#SVGID_12_)"/><path d="m179.55 238.697-26.692 10.112c-2.839 8.366-4.736 17.257-5.551 26.499 2.036-1.933 4.452-3.473 7.134-4.488l32.6-12.353c5.461-2.066 8.209-8.167 6.137-13.627-2.067-5.46-8.168-8.209-13.628-6.143z" fill="url(#SVGID_13_)"/><path d="m176.318 277.99c-5.322-2.398-11.579-.03-13.977 5.297l-12.618 28.003c4.446 19.559 13.869 36.907 26.668 50.262l-9.115-20.362c-2.483-5.545-2.477-11.9.018-17.438l14.322-31.785c2.397-5.321.024-11.579-5.298-13.977z" fill="url(#SVGID_14_)"/></g><path d="m348.04 285.612c0-57.385-41.655-103.905-93.04-103.905-51.384 0-93.04 46.52-93.04 103.905 0 42.425 22.768 78.909 55.401 95.05 7.925 3.92 14.599 9.894 19.433 17.296 4.431 6.786 10.944 11.072 18.205 11.072s13.774-4.286 18.205-11.072c4.834-7.403 11.508-13.377 19.433-17.296 32.635-16.141 55.403-52.625 55.403-95.05z" fill="url(#SVGID_15_)"/><path d="m255 181.706c-4.096 0-8.13.299-12.087.872 32.03 4.641 58.946 27.473 72.17 58.913h-101.055c-4.159 0-7.727 3.254-7.803 7.412-.077 4.237 3.334 7.695 7.552 7.695h89.008c10.785 0 19.734 8.275 20.654 19.021.282 3.288.426 6.621.426 9.992 0 .745-.023 1.485-.037 2.226-.158-.01-.315-.024-.475-.024h-89.185c-4.172 0-7.554 3.382-7.554 7.554 0 4.172 3.382 7.554 7.554 7.554h66.568c11.849 0 20.055 11.844 15.881 22.934-1.064 2.827-2.236 5.589-3.512 8.282h-.001-58.002c-4.159 0-7.727 3.254-7.803 7.412-.077 4.237 3.334 7.695 7.552 7.695h28.364c8.765 0 13.057 10.795 6.597 16.719-6.415 5.882-13.548 10.825-21.229 14.638-7.914 3.929-14.702 9.896-19.518 17.303-1.75 2.692-3.831 4.985-6.152 6.783 3.556 2.756 7.682 4.341 12.087 4.341 7.278 0 13.806-4.307 18.237-11.12 4.81-7.396 11.493-13.336 19.401-17.248 32.634-16.14 55.401-52.625 55.401-95.05.001-57.383-41.655-103.904-93.039-103.904z" fill="url(#SVGID_16_)"/></g><path d="m255 0c-140.833 0-255 114.167-255 255s114.167 255 255 255 255-114.167 255-255-114.167-255-255-255zm-191.392 255c0-105.703 85.689-191.392 191.392-191.392 41.326 0 79.593 13.099 110.876 35.37l-266.898 266.898c-22.271-31.283-35.37-69.55-35.37-110.876zm191.392 191.392c-41.326 0-79.593-13.099-110.876-35.37l266.898-266.898c22.271 31.283 35.37 69.55 35.37 110.876 0 105.703-85.689 191.392-191.392 191.392z" fill="url(#SVGID_17_)"/><path d="m125.765 389.361c-11.664 11.664-8.169 31.263 6.71 38.383 24.982 11.954 52.962 18.648 82.505 18.648 6.761 0 13.438-.355 20.018-1.04-33.646-3.495-64.704-15.7-90.874-34.331l266.898-266.898c-.044-.087-.088-.174-.132-.262-6.559-12.986-23.99-15.636-34.278-5.348z" fill="url(#SVGID_18_)"/><path d="m234.982 64.647c-6.575-.683-13.247-1.04-20.003-1.04-105.702.001-191.391 85.69-191.391 191.393 0 23.656 4.292 46.31 12.14 67.225 9.873 26.312 35.147 43.652 63.25 43.652-6.895-9.126-15.05-24.97-15.05-24.97-12.999-25.834-20.32-55.015-20.32-85.906 0-98.943 75.08-180.345 171.374-190.354z" fill="url(#SVGID_19_)"/><path d="m255 0c-6.735 0-13.407.266-20.01.778 131.479 10.206 234.99 120.124 234.99 254.222s-103.511 244.016-234.99 254.222c6.603.512 13.275.778 20.01.778 140.833 0 255-114.167 255-255s-114.167-255-255-255z" fill="url(#SVGID_20_)"/></g></svg>