<svg id="Capa_1" enable-background="new 0 0 510 510" height="512" viewBox="0 0 510 510" width="512" xmlns="http://www.w3.org/2000/svg" xmlns:xlink="http://www.w3.org/1999/xlink"><linearGradient id="lg1"><stop offset="0" stop-color="#fbc56d"/><stop offset=".593" stop-color="#dc8758"/><stop offset="1" stop-color="#9e5528"/></linearGradient><linearGradient id="SVGID_1_" gradientUnits="userSpaceOnUse" x1="15" x2="500.845" xlink:href="#lg1" y1="402.437" y2="402.437"/><linearGradient id="SVGID_2_" gradientUnits="userSpaceOnUse" x1="-43.395" x2="427.668" xlink:href="#lg1" y1="402.437" y2="402.437"/><linearGradient id="SVGID_3_" gradientUnits="userSpaceOnUse" x1="112" x2="330.33" xlink:href="#lg1" y1="119.165" y2="119.165"/><linearGradient id="SVGID_4_" gradientUnits="userSpaceOnUse" x1="44.667" x2="302.791" xlink:href="#lg1" y1="119.133" y2="119.133"/><linearGradient id="SVGID_5_" gradientUnits="userSpaceOnUse" x1="34" x2="443.646" xlink:href="#lg1" y1="215.115" y2="215.115"/><linearGradient id="SVGID_6_" gradientUnits="userSpaceOnUse" x1="120.097" x2="390.683" xlink:href="#lg1" y1="215.113" y2="215.113"/><linearGradient id="SVGID_7_" gradientUnits="userSpaceOnUse" x1="-3" x2="529.114" xlink:href="#lg1" y1="352.225" y2="352.225"/><linearGradient id="SVGID_8_" gradientUnits="userSpaceOnUse" x1="-151.389" x2="486.065" xlink:href="#lg1" y1="352.235" y2="352.235"/><g><path d="m393.476 498.852h-272.911c-53.248 0-96.414-43.166-96.414-96.414 0-53.248 43.166-96.414 96.414-96.414h272.911c53.248 0 96.414 43.166 96.414 96.414.001 53.247-43.166 96.414-96.414 96.414z" fill="url(#SVGID_1_)"/><path d="m489.89 402.442c0 26.62-10.79 50.72-28.24 68.17s-41.55 28.24-68.17 28.24h-40.02c26.62 0 50.72-10.79 68.17-28.24.145-.145.289-.29.433-.435 14.952-15.143-2.306-39.773-21.718-31.055-54.503 24.475-110.998 44.438-168.994 59.731h-110.781c-53.25 0-96.42-43.17-96.42-96.41 0-18.85 5.41-36.44 14.77-51.29 3.85-6.13 8.37-11.79 13.47-16.89 17.45-17.45 41.55-28.24 68.18-28.24h272.91c47.8 0 87.48 34.8 95.08 80.44.88 5.199 1.33 10.539 1.33 15.979z" fill="url(#SVGID_2_)"/><path d="m327.599 108.511c-49.304 0-91.118-32.043-105.765-76.439-5.6-16.974-24.614-25.488-40.977-18.295-39.671 17.441-67.231 57.346-66.569 103.613.857 59.95 49.758 108.855 109.708 109.716 62.251.894 112.995-49.3 112.995-111.346 0-2.563-.094-5.104-.265-7.624-3.01.245-6.053.375-9.127.375z" fill="url(#SVGID_3_)"/><path d="m336.726 108.137c-3.011.244-6.054.374-9.127.374-49.303 0-91.118-32.043-105.765-76.439-5.583-16.924-24.376-25.535-40.712-18.411-3.057 1.333-6.031 2.816-8.937 4.409 4.323 3.522 7.74 8.278 9.628 14.002 8.97 27.188 28.128 49.744 52.956 63.144 33.98 18.34 44.934 62.165 22.852 93.842-12.151 17.43-28.939 31.964-51.953 36.251 5.962 1.09 12.083 1.708 18.327 1.798 62.251.894 112.995-49.3 112.995-111.346.001-2.563-.093-5.104-.264-7.624z" fill="url(#SVGID_4_)"/><path d="m410.022 136.675c-.293-.393-.586-.787-.88-1.18-22.181-29.771-64.414-38.942-98.104-21.369-64.24 33.506-133.558 56.159-205.936 67.297-37.958 5.842-65.251 37.733-63.355 74.132.025.481.05.962.075 1.443 2.223 42.686 43.172 73.907 87.685 67.05 89.573-13.797 175.564-41.898 255.073-83.355 39.513-20.601 51.454-69.106 25.442-104.018z" fill="url(#SVGID_5_)"/><path d="m410.022 136.675c-.293-.394-.586-.787-.88-1.18-18.691-25.086-51.619-35.543-81.677-27.699 16.339 4.246 31.219 13.69 41.657 27.699.293.393.586.787.88 1.18 26.011 34.912 14.071 83.417-25.441 104.019-76.935 40.114-159.939 67.722-246.384 81.968 9.898 2.454 20.506 3.054 31.331 1.387 89.573-13.797 175.564-41.898 255.073-83.355 39.512-20.602 51.452-69.107 25.441-104.019z" fill="url(#SVGID_6_)"/><path d="m491.557 247.553c-.391-.525-.783-1.05-1.174-1.575-29.599-39.727-85.956-51.964-130.912-28.516-85.723 44.712-178.223 74.939-274.805 89.803-50.652 7.795-87.072 50.351-84.542 98.924.033.642.067 1.284.1 1.926 2.966 56.961 57.61 98.623 117.009 89.474 119.528-18.412 234.277-55.91 340.375-111.231 52.725-27.491 68.659-92.217 33.949-138.805z" fill="url(#SVGID_7_)"/><path d="m491.557 247.553c-.391-.525-.782-1.05-1.174-1.575-23.562-31.624-64.078-45.804-102.303-38.454 24.406 4.679 46.942 17.863 62.283 38.454.391.525.782 1.05 1.174 1.575 34.71 46.588 18.776 111.314-33.949 138.805-104.967 54.731-218.405 92.005-336.558 110.623 11.575 2.205 23.784 2.521 36.203.608 119.528-18.411 234.277-55.91 340.375-111.231 52.725-27.491 68.659-92.217 33.949-138.805z" fill="url(#SVGID_8_)"/></g></svg>