<svg id="Capa_1" enable-background="new 0 0 510 510" height="512" viewBox="0 0 510 510" width="512" xmlns="http://www.w3.org/2000/svg" xmlns:xlink="http://www.w3.org/1999/xlink"><linearGradient id="lg1"><stop offset="0" stop-color="#01d0fb"/><stop offset=".6075" stop-color="#26a6fe"/><stop offset="1" stop-color="#0182fc"/></linearGradient><linearGradient id="SVGID_1_" gradientUnits="userSpaceOnUse" x1="221.452" x2="488.98" xlink:href="#lg1" y1="427.815" y2="427.815"/><linearGradient id="SVGID_2_" gradientUnits="userSpaceOnUse" x1="259.768" x2="430.191" xlink:href="#lg1" y1="383.954" y2="383.954"/><linearGradient id="SVGID_3_" gradientUnits="userSpaceOnUse" x1="-94.232" x2="388.213" xlink:href="#lg1" y1="229.747" y2="229.747"/><linearGradient id="SVGID_4_" gradientUnits="userSpaceOnUse" x1="49.768" x2="554.967" y1="229.745" y2="229.745"><stop offset="0" stop-color="#01bffa"/><stop offset=".2539" stop-color="#1f9efc"/><stop offset=".5724" stop-color="#407afd"/><stop offset=".8326" stop-color="#5464ff"/><stop offset="1" stop-color="#5b5cff"/></linearGradient><linearGradient id="SVGID_5_" gradientUnits="userSpaceOnUse" x1="27.471" x2="448.934" xlink:href="#lg1" y1="259.77" y2="259.77"/><linearGradient id="SVGID_6_" gradientTransform="matrix(.9 -.437 .437 .9 -103.592 143.74)" gradientUnits="userSpaceOnUse" x1="41.007" x2="522.868" xlink:href="#lg1" y1="253.489" y2="253.489"/><linearGradient id="SVGID_7_" gradientUnits="userSpaceOnUse" x1="28.517" x2="413.172" xlink:href="#lg1" y1="199.725" y2="199.725"/><linearGradient id="SVGID_8_" gradientUnits="userSpaceOnUse" x1="70.734" x2="324.039" xlink:href="#lg1" y1="218.582" y2="218.582"/><linearGradient id="SVGID_9_" gradientUnits="userSpaceOnUse" x1="101.089" x2="370.253" xlink:href="#lg1" y1="229.747" y2="229.747"/><linearGradient id="SVGID_10_" gradientUnits="userSpaceOnUse" x1="140.864" x2="346.338" xlink:href="#lg1" y1="240.912" y2="240.912"/><g><path d="m287.417 510c-22.982 0-44.588-8.95-60.839-25.2-6.834-6.834-6.834-17.915 0-24.749s17.915-6.834 24.749 0c9.64 9.64 22.457 14.949 36.09 14.949s26.45-5.309 36.089-14.949l2.883-2.883c16.25-16.25 37.856-25.199 60.838-25.199s44.588 8.95 60.839 25.2l1.309 1.309c.382.382 1.273 1.276 2.939.585 1.665-.69 1.665-1.953 1.665-2.492 0-.71-.288-1.405-.79-1.907l-79.16-79.16c-6.834-6.834-6.834-17.915 0-24.749 6.835-6.834 17.914-6.834 24.749 0l79.16 79.16c7.12 7.12 11.041 16.587 11.041 26.656 0 15.302-9.134 28.972-23.271 34.828-14.137 5.854-30.263 2.647-41.083-8.172l-1.309-1.309c-9.64-9.64-22.457-14.949-36.09-14.949s-26.45 5.309-36.09 14.949l-2.883 2.883c-16.249 16.249-37.855 25.199-60.836 25.199z" fill="url(#SVGID_1_)"/><path d="m445.388 397.36c-7.53 8.94-15.75 17.28-24.58 24.92l-46.78-46.78c-6.83-6.83-6.83-17.91 0-24.75 6.84-6.83 17.92-6.83 24.75 0z" fill="url(#SVGID_2_)"/><g><circle cx="250.768" cy="229.747" fill="url(#SVGID_3_)" r="222.124"/><path d="m472.618 218.69c-.63-12.94-2.38-25.59-5.14-37.85-22.27-99.15-110.83-173.22-216.71-173.22-6.74 0-13.42.3-20.01.89 50.977 4.552 96.988 26.334 132.191 59.47-16.87 11.068-35.544 29.804-55.754 55.987-26.173 33.907-52.221 76.987-75.328 124.583-17.859 36.785-32.483 73.263-43.043 107.118-44.325 15.263-80.671 22.355-103.595 22.172 11.11 12.43 23.61 23.59 37.25 33.26 9.68-1.62 20.08-3.82 31.16-6.61 41.53-10.46 88.65-28.2 136.25-51.3 21.158-10.275 50.245-27.975 76.455-44.831 22.641-14.561 49.342 11.328 35.617 34.485-35.479 59.86-98.268 101.624-171.202 108.136 6.59.59 13.27.89 20.01.89 122.68 0 222.12-99.45 222.12-222.12-.001-3.71-.091-7.4-.271-11.06zm-198.73 101.54c-13.92 6.758-27.482 12.873-40.603 18.392 8.376-23.005 18.841-47.92 31.538-74.072 30.605-63.04 63.591-111.547 90.273-140.778 15.881-17.399 44.404-13.509 54.851 7.605 12.207 24.67 19.968 51.933 22.231 80.743-24.51 28.71-80.27 70.23-158.29 108.11z" fill="url(#SVGID_4_)"/><g><path d="m289.886 315.693c-47.599 23.109-94.714 40.85-136.25 51.304-43.709 11.001-76.637 12.912-97.869 5.68-9.576-3.262-14.695-13.669-11.433-23.245 3.261-9.576 13.669-14.695 23.245-11.433 26.347 8.974 107.607-7.344 206.308-55.262s161.784-101.677 171.028-127.931c3.36-9.541 13.82-14.554 23.361-11.193 9.542 3.36 14.554 13.819 11.194 23.361-7.45 21.156-29.319 45.849-65.001 73.391-33.907 26.173-76.987 52.221-124.583 75.328z" fill="url(#SVGID_5_)"/><path d="m278.721 285.671c-47.599 23.109-94.714 40.85-136.251 51.304-43.709 11.001-76.637 12.912-97.869 5.68-9.576-3.262-14.695-13.669-11.433-23.245 3.261-9.576 13.669-14.695 23.245-11.433 26.347 8.974 107.607-7.344 206.308-55.262s161.785-101.678 171.029-127.931c3.36-9.541 13.82-14.554 23.361-11.193 9.542 3.36 14.554 13.819 11.194 23.361-7.45 21.156-29.319 45.849-65.001 73.391-33.907 26.172-76.987 52.22-124.583 75.328z" fill="url(#SVGID_6_)"/><path d="m267.556 255.648c-47.599 23.109-94.714 40.85-136.25 51.304-43.709 11.001-76.637 12.912-97.869 5.68-9.576-3.262-14.695-13.669-11.433-23.245 3.261-9.576 13.669-14.695 23.245-11.433 26.347 8.974 107.607-7.344 206.308-55.262s161.784-101.677 171.028-127.931c3.36-9.541 13.82-14.554 23.361-11.193 9.542 3.36 14.554 13.819 11.194 23.361-7.45 21.156-29.319 45.849-65.001 73.391-33.907 26.173-76.987 52.221-124.583 75.328z" fill="url(#SVGID_7_)"/></g><g><path d="m164.821 190.628c-23.109 47.599-40.85 94.714-51.304 136.25-11.001 43.709-12.912 76.637-5.68 97.869 3.262 9.576 13.669 14.695 23.245 11.433 9.576-3.261 14.695-13.669 11.433-23.245-8.974-26.347 7.344-107.607 55.262-206.308s101.678-161.783 127.932-171.027c9.541-3.36 14.553-13.82 11.193-23.361-3.36-9.542-13.819-14.554-23.361-11.194-21.156 7.45-45.849 29.319-73.391 65.001-26.173 33.907-52.221 76.987-75.329 124.582z" fill="url(#SVGID_8_)"/><path d="m194.844 201.793c-23.109 47.599-40.85 94.714-51.304 136.25-11.001 43.709-12.912 76.637-5.68 97.869 3.262 9.576 13.669 14.695 23.245 11.433 9.576-3.26 14.695-13.669 11.433-23.245-8.974-26.347 7.344-107.607 55.262-206.308s101.677-161.783 127.931-171.027c9.542-3.36 14.553-13.82 11.193-23.361-3.36-9.542-13.819-14.554-23.361-11.194-21.156 7.45-45.849 29.319-73.391 65.001-26.173 33.906-52.221 76.986-75.328 124.582z" fill="url(#SVGID_9_)"/><path d="m224.866 212.958c-23.109 47.599-40.85 94.714-51.304 136.25-11.001 43.709-12.912 76.637-5.68 97.869 3.262 9.576 13.669 14.695 23.245 11.433 9.576-3.26 14.695-13.669 11.433-23.245-8.974-26.347 7.344-107.607 55.262-206.308s101.678-161.783 127.932-171.028c9.541-3.36 14.553-13.82 11.193-23.361-3.36-9.542-13.819-14.554-23.361-11.194-21.156 7.45-45.848 29.319-73.391 65.001-26.173 33.907-52.221 76.987-75.329 124.583z" fill="url(#SVGID_10_)"/></g></g></g></svg>