<svg id="Capa_1" enable-background="new 0 0 510 510" height="512" viewBox="0 0 510 510" width="512" xmlns="http://www.w3.org/2000/svg" xmlns:xlink="http://www.w3.org/1999/xlink"><linearGradient id="lg1"><stop offset="0" stop-color="#ffdcbd"/><stop offset=".0028" stop-color="#ffdcbd"/><stop offset="1" stop-color="#ffa9b1"/></linearGradient><linearGradient id="SVGID_1_" gradientTransform="matrix(.825 -.825 .707 .707 -135.775 285.151)" gradientUnits="userSpaceOnUse" x1="-3.179" x2="556.916" xlink:href="#lg1" y1="255" y2="255"/><linearGradient id="SVGID_2_" gradientTransform="matrix(.707 -.707 .707 .707 -105.625 255)" gradientUnits="userSpaceOnUse" x1="-103" x2="248.95" xlink:href="#lg1" y1="255" y2="255"/><linearGradient id="lg2"><stop offset="0" stop-color="#ffc2b5"/><stop offset="1" stop-color="#ff89a8"/></linearGradient><linearGradient id="SVGID_3_" gradientTransform="matrix(.707 -.707 .707 .707 -105.625 255)" gradientUnits="userSpaceOnUse" x1="339" x2="597.774" xlink:href="#lg2" y1="255" y2="255"/><linearGradient id="SVGID_4_" gradientTransform="matrix(.707 -.707 .707 .707 -105.625 255)" gradientUnits="userSpaceOnUse" x1="141.649" x2="411.673" xlink:href="#lg2" y1="255" y2="255"/><linearGradient id="SVGID_5_" gradientTransform="matrix(.707 -.707 .707 .707 -105.625 255)" gradientUnits="userSpaceOnUse" x1="34" x2="318.007" xlink:href="#lg2" y1="255" y2="255"/><linearGradient id="SVGID_6_" gradientTransform="matrix(.707 -.707 .707 .707 -105.625 255)" gradientUnits="userSpaceOnUse" x1="-40.667" x2="164.754" xlink:href="#lg2" y1="221.112" y2="221.112"/><linearGradient id="SVGID_7_" gradientTransform="matrix(.707 -.707 .707 .707 -105.625 255)" gradientUnits="userSpaceOnUse" x1="-40.667" x2="164.754" xlink:href="#lg2" y1="263.522" y2="263.522"/><linearGradient id="SVGID_8_" gradientTransform="matrix(.707 -.707 .707 .707 -105.625 255)" gradientUnits="userSpaceOnUse" x1="-40.667" x2="164.754" xlink:href="#lg2" y1="268.223" y2="268.223"/><linearGradient id="SVGID_9_" gradientTransform="matrix(.707 -.707 .707 .707 -105.625 255)" gradientUnits="userSpaceOnUse" x1="288.667" x2="475.333" xlink:href="#lg2" y1="221.112" y2="221.112"/><linearGradient id="SVGID_10_" gradientTransform="matrix(.707 -.707 .707 .707 -105.625 255)" gradientUnits="userSpaceOnUse" x1="288.667" x2="475.333" xlink:href="#lg2" y1="263.522" y2="263.522"/><linearGradient id="SVGID_11_" gradientTransform="matrix(.707 -.707 .707 .707 -105.625 255)" gradientUnits="userSpaceOnUse" x1="288.667" x2="475.333" xlink:href="#lg2" y1="268.223" y2="268.223"/><g><path d="m473.222 214.358-258.864 258.864c-49.037 49.037-128.543 49.037-177.58 0-49.037-49.037-49.037-128.543 0-177.58l258.864-258.864c49.037-49.037 128.543-49.037 177.58 0 49.037 49.038 49.037 128.543 0 177.58z" fill="url(#SVGID_1_)"/><path d="m338.952 297.662-97.887 97.887c-21.198 21.198-55.566 21.198-76.764 0l-49.85-49.85c-21.198-21.198-21.198-55.566 0-76.764l97.887-97.887c21.198-21.198 55.566-21.198 76.764 0l49.85 49.85c21.198 21.198 21.198 55.566 0 76.764z" fill="url(#SVGID_2_)"/><path d="m295.642 36.778-28.298 28.298c49.037-49.037 128.543-49.037 177.58 0 49.037 49.037 49.037 128.543 0 177.58l28.298-28.298c49.037-49.037 49.037-128.543 0-177.58-49.038-49.037-128.543-49.037-177.58 0z" fill="url(#SVGID_3_)"/><path d="m367.25 269.364-97.887 97.887c-21.198 21.198-55.566 21.198-76.764 0l-49.85-49.85c-21.198-21.198-21.198-55.566 0-76.764l97.887-97.887c21.198-21.198 55.566-21.198 76.764 0l49.85 49.85c21.198 21.197 21.198 55.566 0 76.764z" fill="url(#SVGID_4_)"/><path d="m240.636 142.75-28.298 28.298c21.198-21.198 55.566-21.198 76.764 0l49.85 49.85c21.198 21.198 21.198 55.566 0 76.764l28.298-28.298c21.198-21.198 21.198-55.566 0-76.764l-49.85-49.85c-21.197-21.198-55.566-21.198-76.764 0z" fill="url(#SVGID_5_)"/><g><circle cx="72.501" cy="389.575" fill="url(#SVGID_6_)" r="8"/><path d="m76.09 423.602c-6.175 6.175-6.175 16.186 0 22.36 6.174 6.174 16.185 6.174 22.36 0 6.175-6.175 6.175-16.185 0-22.36-6.174-6.174-16.185-6.175-22.36 0z" fill="url(#SVGID_7_)"/><path d="m117.194 395.794c-4.339 4.339-4.339 11.374 0 15.713s11.374 4.339 15.713 0 4.339-11.374 0-15.713c-4.34-4.339-11.374-4.339-15.713 0z" fill="url(#SVGID_8_)"/></g><g><circle cx="370.428" cy="91.647" fill="url(#SVGID_9_)" r="8"/><path d="m374.018 125.674c-6.175 6.175-6.175 16.186 0 22.36 6.174 6.174 16.185 6.174 22.36 0 6.175-6.175 6.175-16.185 0-22.36-6.174-6.174-16.185-6.174-22.36 0z" fill="url(#SVGID_10_)"/><path d="m415.121 97.866c-4.339 4.339-4.339 11.374 0 15.713s11.374 4.339 15.712 0 4.339-11.374 0-15.713c-4.338-4.339-11.373-4.339-15.712 0z" fill="url(#SVGID_11_)"/></g></g></svg>