<svg id="Capa_1" enable-background="new 0 0 510 510" height="512" viewBox="0 0 510 510" width="512" xmlns="http://www.w3.org/2000/svg" xmlns:xlink="http://www.w3.org/1999/xlink"><linearGradient id="lg1"><stop offset="0" stop-color="#fff9df"/><stop offset=".593" stop-color="#ffe177"/><stop offset="1" stop-color="#feb237"/></linearGradient><linearGradient id="SVGID_1_" gradientUnits="userSpaceOnUse" x1="34" x2="465.227" xlink:href="#lg1" y1="96.704" y2="96.704"/><linearGradient id="SVGID_2_" gradientUnits="userSpaceOnUse" x1="127.5" x2="253.62" xlink:href="#lg1" y1="96.704" y2="96.704"/><linearGradient id="SVGID_3_" gradientUnits="userSpaceOnUse" x1="58.087" x2="228.125" xlink:href="#lg1" y1="96.704" y2="96.704"/><linearGradient id="SVGID_4_" gradientUnits="userSpaceOnUse" x1="63" x2="395.385" xlink:href="#lg1" y1="96.704" y2="96.704"/><linearGradient id="lg2"><stop offset="0" stop-color="#ffe177"/><stop offset="1" stop-color="#feb237"/></linearGradient><linearGradient id="SVGID_5_" gradientUnits="userSpaceOnUse" x1="213.333" x2="430.496" xlink:href="#lg2" y1="96.704" y2="96.704"/><linearGradient id="SVGID_6_" gradientUnits="userSpaceOnUse" x1="170" x2="304.06" xlink:href="#lg1" y1="156.3" y2="156.3"/><linearGradient id="SVGID_7_" gradientUnits="userSpaceOnUse" x1="177.259" x2="319.752" xlink:href="#lg2" y1="156.3" y2="156.3"/><linearGradient id="SVGID_8_" gradientTransform="matrix(1 0 0 -1 0 782.32)" gradientUnits="userSpaceOnUse" x1=".796" x2="89.192" y1="321.226" y2="321.226"><stop offset="0" stop-color="#fe99a0"/><stop offset=".593" stop-color="#fe646f"/><stop offset="1" stop-color="#e41f2d"/></linearGradient><linearGradient id="lg3"><stop offset="0" stop-color="#537983"/><stop offset=".593" stop-color="#554e56"/><stop offset="1" stop-color="#433f43"/></linearGradient><linearGradient id="SVGID_9_" gradientUnits="userSpaceOnUse" x1="37.823" x2="672.071" xlink:href="#lg3" y1="359.626" y2="359.626"/><linearGradient id="SVGID_10_" gradientUnits="userSpaceOnUse" x1="70.126" x2="518.855" xlink:href="#lg3" y1="376.202" y2="376.202"/><linearGradient id="SVGID_11_" gradientUnits="userSpaceOnUse" x1="75" x2="417.045" xlink:href="#lg3" y1="316.554" y2="316.554"/><linearGradient id="SVGID_12_" gradientUnits="userSpaceOnUse" x1="113.7" x2="274.925" y1="339.324" y2="339.324"><stop offset="0" stop-color="#ffc2b5"/><stop offset="1" stop-color="#ff89a8"/></linearGradient><linearGradient id="SVGID_13_" gradientUnits="userSpaceOnUse" x1="-3.945" x2="113.209" xlink:href="#lg3" y1="418.594" y2="418.594"/><linearGradient id="SVGID_14_" gradientUnits="userSpaceOnUse" x1="-3.945" x2="113.209" xlink:href="#lg3" y1="461.128" y2="461.128"/><linearGradient id="SVGID_15_" gradientUnits="userSpaceOnUse" x1="382.111" x2="577.729" xlink:href="#lg3" y1="240.242" y2="240.242"/><g><path d="m439.521 28.324c-37.765-37.765-98.994-37.765-136.759 0-26.378 26.378-69.145 26.378-95.523 0-37.765-37.765-98.994-37.765-136.759 0-37.765 37.765-37.765 98.994 0 136.759 37.765 37.765 98.994 37.765 136.759 0 26.378-26.378 69.145-26.378 95.523 0 37.765 37.765 98.994 37.765 136.759 0 37.765-37.765 37.765-98.994 0-136.759z" fill="url(#SVGID_1_)"/><path d="m226.856 41.977c-7.106-3.255-13.766-7.802-19.618-13.653-1.744-1.744-3.554-3.38-5.393-4.963v146.685c1.839-1.583 3.649-3.219 5.393-4.963 5.851-5.851 12.511-10.398 19.618-13.653z" fill="url(#SVGID_2_)"/><g><circle cx="142.881" cy="96.703" fill="url(#SVGID_3_)" r="57.636"/><circle cx="367.119" cy="96.703" fill="url(#SVGID_4_)" r="57.636"/></g><path d="m439.521 28.324c-24.003-24.003-57.479-32.725-88.39-26.217 17.724 3.732 34.607 12.454 48.37 26.217 37.765 37.765 37.765 98.994 0 136.759-13.763 13.763-30.646 22.485-48.37 26.217 30.911 6.508 64.387-2.214 88.39-26.217 37.765-37.765 37.765-98.994 0-136.759z" fill="url(#SVGID_5_)"/><g><path d="m283.144 284.455v-256.311c0-15.544-12.601-28.144-28.144-28.144-15.543 0-28.144 12.6-28.144 28.144v256.311c0 15.543 12.6 28.144 28.144 28.144 15.543 0 28.144-12.6 28.144-28.144z" fill="url(#SVGID_6_)"/><path d="m255 0c-4.493 0-8.737 1.058-12.505 2.931 9.267 4.605 15.638 14.163 15.638 25.213v256.311c0 11.05-6.372 20.608-15.638 25.213 3.768 1.873 8.012 2.931 12.505 2.931 15.543 0 28.144-12.6 28.144-28.144v-256.311c0-15.544-12.601-28.144-28.144-28.144z" fill="url(#SVGID_7_)"/></g><g><g><path d="m68.187 456.177-6.28-10.878c-11.642-20.165-40.749-20.165-52.391 0l-6.28 10.878c-9.195 15.927 2.299 35.835 20.69 35.835h23.572c18.39 0 29.884-19.908 20.689-35.835z" fill="url(#SVGID_8_)"/><path d="m292.13 242.407c-12.476 0-25.254 1.49-38.134 4.221-16.416-22.644-43.079-37.375-73.186-37.375-49.894 0-90.34 40.447-90.34 90.34 0 12.633 2.597 24.659 7.28 35.577-44.11 42.263-74.24 91.427-74.24 130.379 0 52.664 486.49 82.836 486.49-52.995 0-93.97-97.544-170.147-217.87-170.147z" fill="url(#SVGID_9_)"/><path d="m292.13 242.407c-5.727 0-11.519.314-17.354.913 109.675 8.854 195.204 81.242 195.204 169.233 0 68.413-123.409 94.711-245.915 97.238 134.041 2.726 285.935-21.339 285.935-97.238 0-93.969-97.544-170.146-217.87-170.146z" fill="url(#SVGID_10_)"/><path d="m276.376 243.175c-7.396.693-14.867 1.871-22.373 3.462 10.784 14.88 17.147 33.173 17.147 52.955 0 45.648-33.858 83.382-77.83 89.474 4.087.566 8.258.866 12.501.866 49.894 0 90.34-40.447 90.34-90.34 0-21.345-7.407-40.957-19.785-56.417z" fill="url(#SVGID_11_)"/><circle cx="161.076" cy="339.324" fill="url(#SVGID_12_)" r="50.609"/><g><path d="m100.389 434.864c3.905 3.905 10.237 3.905 14.142 0l18.398-18.398c3.905-3.905 3.905-10.237 0-14.142-3.905-3.905-10.237-3.905-14.142 0l-18.398 18.398c-3.905 3.905-3.905 10.237 0 14.142z" fill="url(#SVGID_13_)"/><path d="m147.286 451.128h-26.018c-5.523 0-10 4.477-10 10s4.477 10 10 10h26.018c5.523 0 10-4.477 10-10 0-5.523-4.477-10-10-10z" fill="url(#SVGID_14_)"/></g></g><path d="m471.941 233.848c0 13.633-5.309 26.45-14.949 36.089l-2.883 2.883c-4.859 4.859-9.05 10.206-12.559 15.916 9.881 7.275 18.887 15.265 26.892 23.862 2.504-5.524 6-10.613 10.417-15.03l2.883-2.883c16.25-16.25 25.199-37.855 25.199-60.837s-8.95-44.588-25.2-60.839c-6.834-6.834-17.915-6.834-24.749 0s-6.834 17.915 0 24.749c9.64 9.64 14.949 22.457 14.949 36.09z" fill="url(#SVGID_15_)"/></g></g></svg>