<svg id="Capa_1" enable-background="new 0 0 510 510" height="512" viewBox="0 0 510 510" width="512" xmlns="http://www.w3.org/2000/svg" xmlns:xlink="http://www.w3.org/1999/xlink"><linearGradient id="lg1"><stop offset="0" stop-color="#f8f6f7"/><stop offset="1" stop-color="#d1ceeb"/></linearGradient><linearGradient id="SVGID_1_" gradientUnits="userSpaceOnUse" x1="190.297" x2="466.639" xlink:href="#lg1" y1="188.704" y2="188.704"/><linearGradient id="SVGID_2_" gradientUnits="userSpaceOnUse" x1="272.138" x2="383.463" xlink:href="#lg1" y1="106.768" y2="106.768"/><linearGradient id="lg2"><stop offset="0" stop-color="#537983"/><stop offset=".593" stop-color="#554e56"/><stop offset="1" stop-color="#433f43"/></linearGradient><linearGradient id="SVGID_3_" gradientTransform="matrix(.707 .707 -.707 .707 248.878 -108.16)" gradientUnits="userSpaceOnUse" x1="242.846" x2="328.057" xlink:href="#lg2" y1="541.078" y2="541.078"/><linearGradient id="lg3"><stop offset="0" stop-color="#fff9df"/><stop offset=".593" stop-color="#ffe177"/><stop offset="1" stop-color="#feb237"/></linearGradient><linearGradient id="SVGID_4_" gradientTransform="matrix(.707 .707 -.707 .707 248.878 -108.16)" gradientUnits="userSpaceOnUse" x1="203.454" x2="310.862" xlink:href="#lg3" y1="474.247" y2="474.247"/><linearGradient id="SVGID_5_" gradientTransform="matrix(.707 .707 -.707 .707 248.878 -108.16)" gradientUnits="userSpaceOnUse" x1="119.121" x2="319.61" xlink:href="#lg3" y1="474.246" y2="474.246"/><linearGradient id="SVGID_6_" gradientTransform="matrix(.707 .707 -.707 .707 248.878 -108.16)" gradientUnits="userSpaceOnUse" x1="129.124" x2="404.514" y1="285.954" y2="285.954"><stop offset="0" stop-color="#f8f6f7"/><stop offset=".1788" stop-color="#f8f6f7"/><stop offset="1" stop-color="#e7e6f5"/></linearGradient><linearGradient id="SVGID_7_" gradientTransform="matrix(.707 .707 -.707 .707 248.878 -108.16)" gradientUnits="userSpaceOnUse" x1="172.935" x2="356.92" y1="309.706" y2="309.706"><stop offset="0" stop-color="#b0e7c9"/><stop offset=".593" stop-color="#46cc8d"/><stop offset="1" stop-color="#0ab69f"/></linearGradient><linearGradient id="lg4"><stop offset="0" stop-color="#46cc8d"/><stop offset=".5484" stop-color="#0ab69f"/><stop offset="1" stop-color="#01998d"/></linearGradient><linearGradient id="SVGID_8_" gradientTransform="matrix(.707 .707 -.707 .707 248.878 -108.16)" gradientUnits="userSpaceOnUse" x1="151.69" x2="514.85" xlink:href="#lg4" y1="260.844" y2="260.844"/><linearGradient id="SVGID_9_" gradientTransform="matrix(.707 .707 -.707 .707 248.878 -108.16)" gradientUnits="userSpaceOnUse" x1="151.69" x2="514.85" xlink:href="#lg4" y1="303.254" y2="303.254"/><linearGradient id="SVGID_10_" gradientTransform="matrix(.707 .707 -.707 .707 248.878 -108.16)" gradientUnits="userSpaceOnUse" x1="151.69" x2="514.85" xlink:href="#lg4" y1="307.954" y2="307.954"/><linearGradient id="SVGID_11_" gradientTransform="matrix(.707 .707 -.707 .707 248.878 -108.16)" gradientUnits="userSpaceOnUse" x1="233.739" x2="401.201" xlink:href="#lg4" y1="309.706" y2="309.706"/><linearGradient id="SVGID_12_" gradientTransform="matrix(.707 .707 -.707 .707 248.878 -108.16)" gradientUnits="userSpaceOnUse" x1="208.241" x2="412.5" xlink:href="#lg1" y1="285.954" y2="285.954"/><linearGradient id="SVGID_13_" gradientTransform="matrix(.707 .707 -.707 .707 188.16 -337.629)" gradientUnits="userSpaceOnUse" x1="344.528" x2="631.641" xlink:href="#lg3" y1="131.189" y2="131.189"/><linearGradient id="SVGID_14_" gradientTransform="matrix(.707 .707 -.707 .707 188.16 -337.629)" gradientUnits="userSpaceOnUse" x1="354.469" x2="563.471" xlink:href="#lg3" y1="131.189" y2="131.189"/><linearGradient id="SVGID_15_" gradientTransform="matrix(.707 .707 -.707 .707 246.096 -115.422)" gradientUnits="userSpaceOnUse" x1="159.123" x2="246.255" xlink:href="#lg2" y1="388.683" y2="388.683"/><linearGradient id="SVGID_16_" gradientTransform="matrix(.707 .707 -.707 .707 246.096 -115.422)" gradientUnits="userSpaceOnUse" x1="159.123" x2="246.255" xlink:href="#lg2" y1="334.381" y2="334.381"/><linearGradient id="SVGID_17_" gradientTransform="matrix(.707 .707 -.707 .707 246.096 -115.422)" gradientUnits="userSpaceOnUse" x1="159.123" x2="246.255" xlink:href="#lg2" y1="280.079" y2="280.079"/><linearGradient id="SVGID_18_" gradientTransform="matrix(.707 .707 -.707 .707 246.096 -115.422)" gradientUnits="userSpaceOnUse" x1="159.123" x2="246.255" xlink:href="#lg2" y1="225.778" y2="225.778"/><g><g><path d="m250.578 299.225 181.24-181.24c10.991-10.991 10.991-28.811 0-39.801-10.991-10.991-28.811-10.991-39.801 0l-181.24 181.24c-10.991 10.991-10.991 28.811 0 39.801 10.991 10.991 28.81 10.991 39.801 0z" fill="url(#SVGID_1_)"/><path d="m431.818 117.983-25.61 25.61-39.8-39.8 25.61-25.61c5.5-5.5 12.7-8.24 19.9-8.24s14.4 2.74 19.9 8.24c10.99 10.99 10.99 28.81 0 39.8z" fill="url(#SVGID_2_)"/></g><g><path d="m89.337 402.983-85.676 85.677c-4.881 4.881-4.881 12.796 0 17.678s12.796 4.881 17.678 0l85.676-85.676z" fill="url(#SVGID_3_)"/><path d="m98.309 467.819-56.129-56.13c-13.719-13.719-13.719-35.963 0-49.682l31.02-31.02 105.811 105.811-31.02 31.02c-13.719 13.72-35.963 13.72-49.682.001z" fill="url(#SVGID_4_)"/><path d="m179.013 436.797-31.021 31.021c-13.719 13.719-35.962 13.719-49.681 0l-28.299-28.298c1.082 1.082 2.217 2.078 3.396 2.99 15.641 12.082 34.76-10.158 20.785-24.134l-43.133-43.133c-6.123-6.123-6.123-16.047.001-22.167 9.659-9.653 22.139-22.09 22.139-22.09z" fill="url(#SVGID_5_)"/><path d="m169.656 458.464-118.122-118.122c-14.469-14.469-14.469-37.928 0-52.396l189.05-189.05c14.469-14.469 37.928-14.469 52.396 0l118.122 118.122c14.469 14.469 14.469 37.928 0 52.396l-189.05 189.05c-14.468 14.469-37.927 14.469-52.396 0z" fill="url(#SVGID_6_)"/><path d="m151.303 392.671-33.976-33.976c-22.076-22.076-22.076-57.869 0-79.945l102.621-102.621c9.843-9.843 25.802-9.843 35.645 0l78.276 78.277c9.843 9.843 9.843 25.802 0 35.645l-102.621 102.62c-22.076 22.077-57.869 22.077-79.945 0z" fill="url(#SVGID_7_)"/><g><circle cx="239.884" cy="251.734" fill="url(#SVGID_8_)" r="8"/><path d="m205.857 255.324c-6.175-6.175-16.186-6.175-22.36 0-6.174 6.174-6.174 16.185 0 22.36 6.175 6.175 16.185 6.175 22.36 0 6.174-6.175 6.175-16.186 0-22.36z" fill="url(#SVGID_9_)"/><path d="m233.665 296.427c-4.339-4.339-11.374-4.339-15.713 0s-4.339 11.374 0 15.712c4.339 4.339 11.374 4.339 15.713 0 4.339-4.338 4.339-11.373 0-15.712z" fill="url(#SVGID_10_)"/></g><path d="m333.869 254.406-28.298-28.298c9.843 9.843 9.843 25.802 0 35.645l-102.621 102.62c-22.076 22.076-57.869 22.076-79.945 0l28.298 28.298c22.076 22.076 57.869 22.076 79.945 0l102.621-102.621c9.843-9.842 9.843-25.801 0-35.644z" fill="url(#SVGID_11_)"/><path d="m411.103 217.018-28.298-28.298c14.469 14.469 14.469 37.928 0 52.397l-189.05 189.05c-14.469 14.469-37.928 14.469-52.397 0l28.298 28.298c14.469 14.469 37.928 14.469 52.396 0l189.05-189.05c14.469-14.47 14.469-37.928.001-52.397z" fill="url(#SVGID_12_)"/></g><g><path d="m348.503 48.046 113.452 113.452c10.991 10.991 28.811 10.991 39.801 0 10.991-10.991 10.991-28.811 0-39.801l-113.451-113.452c-10.991-10.991-28.811-10.991-39.801 0-10.991 10.991-10.991 28.81-.001 39.801z" fill="url(#SVGID_13_)"/><path d="m501.757 121.697-28.298-28.298c10.991 10.991 10.991 28.811 0 39.801-10.991 10.991-28.811 10.991-39.801 0l28.298 28.298c10.991 10.991 28.811 10.991 39.801 0 10.991-10.991 10.991-28.811 0-39.801z" fill="url(#SVGID_14_)"/></g><g><path d="m125.056 299.076-18.397-18.397c-3.905-3.905-10.237-3.905-14.142 0-3.905 3.905-3.905 10.237 0 14.142l18.397 18.397c3.905 3.905 10.237 3.905 14.142 0 3.905-3.905 3.905-10.236 0-14.142z" fill="url(#SVGID_15_)"/><path d="m163.453 260.679-18.397-18.397c-3.905-3.905-10.237-3.905-14.142 0-3.905 3.905-3.905 10.237 0 14.142l18.397 18.397c3.905 3.905 10.237 3.905 14.142 0 3.905-3.905 3.905-10.237 0-14.142z" fill="url(#SVGID_16_)"/><path d="m201.85 222.282-18.397-18.397c-3.905-3.905-10.237-3.905-14.142 0-3.905 3.905-3.905 10.237 0 14.142l18.397 18.397c3.905 3.905 10.237 3.905 14.142 0 3.905-3.905 3.905-10.237 0-14.142z" fill="url(#SVGID_17_)"/><path d="m240.247 183.885-18.397-18.397c-3.905-3.905-10.237-3.905-14.142 0-3.905 3.905-3.905 10.237 0 14.142l18.397 18.397c3.905 3.905 10.237 3.905 14.142 0 3.906-3.905 3.906-10.237 0-14.142z" fill="url(#SVGID_18_)"/></g></g></svg>