<svg id="Capa_1" enable-background="new 0 0 509.994 509.994" height="512" viewBox="0 0 509.994 509.994" width="512" xmlns="http://www.w3.org/2000/svg" xmlns:xlink="http://www.w3.org/1999/xlink"><linearGradient id="lg1"><stop offset="0" stop-color="#f8f6f7"/><stop offset=".1788" stop-color="#f8f6f7"/><stop offset="1" stop-color="#e7e6f5"/></linearGradient><linearGradient id="SVGID_1_" gradientTransform="matrix(1 0 0 -1 0 512)" gradientUnits="userSpaceOnUse" x1="172.757" x2="347.349" xlink:href="#lg1" y1="262.795" y2="262.795"/><linearGradient id="SVGID_2_" gradientTransform="matrix(1 0 0 -1 0 512)" gradientUnits="userSpaceOnUse" x1="124.114" x2="298.706" xlink:href="#lg1" y1="214.152" y2="214.152"/><linearGradient id="SVGID_3_" gradientTransform="matrix(1 0 0 -1 0 512)" gradientUnits="userSpaceOnUse" x1="75.472" x2="250.063" xlink:href="#lg1" y1="165.509" y2="165.509"/><linearGradient id="lg2"><stop offset="0" stop-color="#f8f6f7"/><stop offset="1" stop-color="#d1ceeb"/></linearGradient><linearGradient id="SVGID_4_" gradientTransform="matrix(1 0 0 -1 0 512)" gradientUnits="userSpaceOnUse" x1="105.153" x2="381.494" xlink:href="#lg2" y1="238.16" y2="238.16"/><linearGradient id="SVGID_5_" gradientTransform="matrix(1 0 0 -1 0 512)" gradientUnits="userSpaceOnUse" x1="186.994" x2="298.319" xlink:href="#lg2" y1="320.095" y2="320.095"/><linearGradient id="SVGID_6_" gradientTransform="matrix(1 0 0 -1 0 512)" gradientUnits="userSpaceOnUse" x1="274.858" x2="508.803" xlink:href="#lg1" y1="391.104" y2="391.104"/><linearGradient id="SVGID_7_" gradientTransform="matrix(1 0 0 -1 0 512)" gradientUnits="userSpaceOnUse" x1="280.109" x2="534.593" xlink:href="#lg2" y1="391.104" y2="391.104"/><linearGradient id="SVGID_8_" gradientTransform="matrix(1 0 0 -1 0 512)" gradientUnits="userSpaceOnUse" x1="0" x2="263.139" xlink:href="#lg1" y1="108.079" y2="108.079"/><linearGradient id="SVGID_9_" gradientTransform="matrix(1 0 0 -1 0 512)" gradientUnits="userSpaceOnUse" x1="-25.875" x2="231.841" xlink:href="#lg2" y1="108.073" y2="108.073"/><linearGradient id="SVGID_10_" gradientTransform="matrix(1 0 0 -1 0 512)" gradientUnits="userSpaceOnUse" x1="382.261" x2="452.933" y1="419.603" y2="419.603"><stop offset="0" stop-color="#537983"/><stop offset=".593" stop-color="#554e56"/><stop offset="1" stop-color="#433f43"/></linearGradient><g><g><path d="m334.994 335.912c-6.903 0-12.5-5.597-12.5-12.5v-135.913h-135.912c-6.903 0-12.5-5.597-12.5-12.5s5.597-12.5 12.5-12.5h148.412c6.903 0 12.5 5.597 12.5 12.5v148.412c0 6.904-5.596 12.501-12.5 12.501z" fill="url(#SVGID_1_)"/><path d="m286.352 384.554c-6.903 0-12.5-5.597-12.5-12.5v-135.912h-135.913c-6.903 0-12.5-5.597-12.5-12.5s5.597-12.5 12.5-12.5h148.412c6.903 0 12.5 5.597 12.5 12.5v148.412c.001 6.904-5.596 12.5-12.499 12.5z" fill="url(#SVGID_2_)"/><path d="m237.709 433.197c-6.903 0-12.5-5.597-12.5-12.5v-135.912h-135.912c-6.903 0-12.5-5.597-12.5-12.5s5.597-12.5 12.5-12.5h148.412c6.903 0 12.5 5.597 12.5 12.5v148.412c0 6.903-5.597 12.5-12.5 12.5z" fill="url(#SVGID_3_)"/></g><path d="m165.434 384.361 181.24-181.24c10.991-10.991 10.991-28.811 0-39.801-10.991-10.991-28.811-10.991-39.801 0l-181.24 181.24c-10.991 10.991-10.991 28.811 0 39.801 10.99 10.991 28.81 10.991 39.801 0z" fill="url(#SVGID_4_)"/><path d="m346.674 203.12-25.61 25.61-39.8-39.8 25.61-25.61c5.5-5.5 12.7-8.24 19.9-8.24s14.4 2.74 19.9 8.24c10.99 10.99 10.99 28.81 0 39.8z" fill="url(#SVGID_5_)"/><path d="m402.131 3.008-70.423 18.87c-63.659 17.058-84.98 96.632-38.379 143.233l51.553 51.553c46.602 46.602 126.175 25.28 143.233-38.379l18.87-70.423c17.058-63.659-41.194-121.912-104.854-104.854z" fill="url(#SVGID_6_)"/><path d="m404.555 2.402c44.134 10.796 75.522 56.528 62.41 105.46l-18.87 70.423c-8.773 32.741-34.083 54.279-62.939 61.141 42.678 10.289 90.228-13.631 102.959-61.141l18.87-70.423c16.841-62.85-39.726-120.421-102.43-105.46z" fill="url(#SVGID_7_)"/><path d="m197.449 500.327c21.422-35.688 19.645-81.886-6.783-116.17l-25.201-32.692c-.768-.996-1.6-1.91-2.482-2.746-.585-.554-1.155-1.123-1.708-1.708-.835-.883-1.749-1.714-2.746-2.482l-32.692-25.201c-34.285-26.428-80.483-28.205-116.17-6.783-10.179 6.11-12.8 19.7-5.553 29.103l22.922 29.737c13.281 17.229 31.459 28.155 50.918 32.547 13.954 3.15 24.958 14.154 28.108 28.108 4.392 19.46 15.318 37.637 32.547 50.918l29.737 22.922c9.403 7.247 22.993 4.625 29.103-5.553z" fill="url(#SVGID_8_)"/><path d="m190.666 384.156-25.201-32.692c-.818-1.052-5.436-5.89-6.935-6.936l-32.692-25.201c-24.344-18.765-54.692-25.088-83.021-19.517 15.233 3.004 29.977 9.477 43.001 19.517l32.692 25.201c2.122 1.325 6.167 5.939 6.935 6.936l25.201 32.692c25.943 33.655 28.115 78.783 7.923 114.186l9.777 7.537c9.402 7.248 22.993 4.626 29.103-5.552 21.423-35.688 19.645-81.886-6.783-116.171z" fill="url(#SVGID_9_)"/><path d="m445.433 84.896h-20.336v-20.335c0-4.142-3.358-7.5-7.5-7.5s-7.5 3.358-7.5 7.5v20.336h-20.336c-4.142 0-7.5 3.358-7.5 7.5s3.358 7.5 7.5 7.5h20.336v20.336c0 4.142 3.358 7.5 7.5 7.5s7.5-3.358 7.5-7.5v-20.337h20.336c4.142 0 7.5-3.358 7.5-7.5s-3.358-7.5-7.5-7.5z" fill="url(#SVGID_10_)"/></g></svg>