<svg id="Capa_1" enable-background="new 0 0 510 510" height="512" viewBox="0 0 510 510" width="512" xmlns="http://www.w3.org/2000/svg" xmlns:xlink="http://www.w3.org/1999/xlink"><linearGradient id="lg1"><stop offset="0" stop-color="#b0e7c9"/><stop offset=".593" stop-color="#46cc8d"/><stop offset="1" stop-color="#0ab69f"/></linearGradient><linearGradient id="SVGID_1_" gradientUnits="userSpaceOnUse" x1="81.226" x2="482.079" xlink:href="#lg1" y1="255" y2="255"/><linearGradient id="SVGID_2_" gradientUnits="userSpaceOnUse" x1="-102" x2="394.729" xlink:href="#lg1" y1="289.383" y2="289.383"/><linearGradient id="SVGID_3_" gradientUnits="userSpaceOnUse" x1="222" x2="446.27" y1="255" y2="255"><stop offset="0" stop-color="#46cc8d"/><stop offset=".5484" stop-color="#0ab69f"/><stop offset="1" stop-color="#01998d"/></linearGradient><linearGradient id="SVGID_4_" gradientUnits="userSpaceOnUse" x1="105.547" x2="450.298" y1="268.236" y2="268.236"><stop offset="0" stop-color="#f8f6f7"/><stop offset=".1788" stop-color="#f8f6f7"/><stop offset="1" stop-color="#e7e6f5"/></linearGradient><linearGradient id="lg2"><stop offset="0" stop-color="#f8f6f7"/><stop offset="1" stop-color="#d1ceeb"/></linearGradient><linearGradient id="SVGID_5_" gradientUnits="userSpaceOnUse" x1="289.951" x2="467.044" xlink:href="#lg2" y1="268.236" y2="268.236"/><linearGradient id="lg3"><stop offset="0" stop-color="#537983"/><stop offset=".593" stop-color="#554e56"/><stop offset="1" stop-color="#433f43"/></linearGradient><linearGradient id="SVGID_6_" gradientUnits="userSpaceOnUse" x1="62.5" x2="482.75" xlink:href="#lg3" y1="292.968" y2="292.968"/><linearGradient id="SVGID_7_" gradientUnits="userSpaceOnUse" x1="62.5" x2="482.75" xlink:href="#lg3" y1="225.322" y2="225.322"/><linearGradient id="SVGID_9_" gradientUnits="userSpaceOnUse" x1="62.5" x2="482.75" xlink:href="#lg3" y1="151.844" y2="151.844"/><linearGradient id="SVGID_11_" gradientUnits="userSpaceOnUse" x1="98.822" x2="350.231" xlink:href="#lg3" y1="292.968" y2="292.968"/><linearGradient id="SVGID_12_" gradientUnits="userSpaceOnUse" x1="198.456" x2="395.089" xlink:href="#lg2" y1="414.853" y2="414.853"/><linearGradient id="SVGID_13_" gradientUnits="userSpaceOnUse" x1="157.532" x2="387.311" y1="49.291" y2="49.291"><stop offset="0" stop-color="#fff9df"/><stop offset=".593" stop-color="#ffe177"/><stop offset="1" stop-color="#feb237"/></linearGradient><linearGradient id="SVGID_14_" gradientUnits="userSpaceOnUse" x1="245.994" x2="384.994" y1="49.291" y2="49.291"><stop offset="0" stop-color="#ffe177"/><stop offset="1" stop-color="#feb237"/></linearGradient><linearGradient id="SVGID_15_" gradientUnits="userSpaceOnUse" x1="271.333" x2="333.348" xlink:href="#lg3" y1="225.322" y2="225.322"/><g><g><path d="m400.84 510h-291.68c-22.493 0-40.727-18.234-40.727-40.727v-428.546c0-22.493 18.234-40.727 40.727-40.727h291.68c22.493 0 40.727 18.234 40.727 40.727v428.547c0 22.492-18.234 40.726-40.727 40.726z" fill="url(#SVGID_1_)"/><path d="m389.345 378v-277.312c0-17.63-14.292-31.923-31.923-31.923h-257.066c-17.63 0-31.923 14.292-31.923 31.923v368.585c0 22.493 18.234 40.727 40.727 40.727h148.185c72.901 0 132-59.098 132-132z" fill="url(#SVGID_2_)"/><path d="m400.84 0h-40.02c22.493 0 40.727 18.234 40.727 40.727v428.547c0 22.493-18.234 40.727-40.727 40.727h40.02c22.493 0 40.727-18.234 40.727-40.727v-428.547c0-22.493-18.234-40.727-40.727-40.727z" fill="url(#SVGID_3_)"/></g><g><g><path d="m94.544 456.93v-377.389c0-17.63 14.292-31.923 31.923-31.923h257.066c17.63 0 31.923 14.292 31.923 31.923v277.311c0 72.902-59.098 132-132 132h-156.989c-17.63.001-31.923-14.292-31.923-31.922z" fill="url(#SVGID_4_)"/><path d="m383.533 47.618h-40.02c17.63 0 31.923 14.292 31.923 31.923v277.312c0 72.902-59.098 132-132 132h40.02c72.902 0 132-59.098 132-132v-277.312c0-17.63-14.293-31.923-31.923-31.923z" fill="url(#SVGID_5_)"/><g><g><path d="m255 215.064c-25.764 0-49.986 10.033-68.204 28.251s-28.251 42.44-28.251 68.204c0 16.024 4.014 31.898 11.609 45.906 3.654 6.74 10.059 11.461 17.572 12.953 7.464 1.482 15.128-.415 21.026-5.205 13.207-10.726 29.199-16.395 46.248-16.395s33.041 5.669 46.248 16.394c4.585 3.724 10.238 5.7 16.034 5.7 2.347 0 4.717-.324 7.05-.987 6.835-1.943 12.479-6.763 15.822-13.033 7.581-14.217 11.485-30.276 11.294-46.491-.301-25.61-10.459-49.584-28.601-67.508-18.139-17.92-42.234-27.789-67.847-27.789z" fill="url(#SVGID_6_)"/><circle cx="147.428" cy="225.322" fill="url(#SVGID_7_)" r="34.095"/><circle cx="362.572" cy="225.322" fill="url(#SVGID_7_)" r="34.095"/><g fill="url(#SVGID_9_)"><circle cx="305" cy="151.844" r="34.095"/><circle cx="205" cy="151.844" r="34.095"/></g></g><path d="m322.848 242.854c-18.14-17.921-42.235-27.79-67.848-27.79-6.204 0-12.318.588-18.281 1.726 18.635 3.549 35.784 12.497 49.518 26.064 18.142 17.923 28.3 41.898 28.601 67.508.191 16.215-3.713 32.275-11.294 46.491-1.267 2.376-2.866 4.542-4.733 6.424.822.614 1.635 1.245 2.437 1.896 4.585 3.724 10.238 5.7 16.034 5.7 2.347 0 4.717-.324 7.05-.987 6.835-1.943 12.479-6.763 15.822-13.033 7.581-14.217 11.485-30.276 11.294-46.491-.301-25.61-10.458-49.585-28.6-67.508z" fill="url(#SVGID_11_)"/></g><path d="m415.456 340.853v16c0 72.902-59.098 132-132 132h-16v-116.07c0-17.634 14.296-31.93 31.93-31.93z" fill="url(#SVGID_12_)"/></g></g><g><path d="m196.417 77.435h117.166c15.543 0 28.144-12.6 28.144-28.144 0-15.543-12.6-28.144-28.144-28.144h-117.166c-15.543 0-28.144 12.6-28.144 28.144 0 15.544 12.601 28.144 28.144 28.144z" fill="url(#SVGID_13_)"/><path d="m313.583 21.147h-40.02c15.543 0 28.144 12.6 28.144 28.144 0 15.543-12.601 28.144-28.144 28.144h40.02c15.543 0 28.144-12.6 28.144-28.144 0-15.543-12.601-28.144-28.144-28.144z" fill="url(#SVGID_14_)"/></g><path d="m396.667 225.322c0-14.277-8.779-26.498-21.231-31.576v63.152c12.451-5.079 21.231-17.299 21.231-31.576z" fill="url(#SVGID_15_)"/></g></svg>