<svg id="Capa_1" enable-background="new 0 0 510 510" height="512" viewBox="0 0 510 510" width="512" xmlns="http://www.w3.org/2000/svg" xmlns:xlink="http://www.w3.org/1999/xlink"><linearGradient id="lg1"><stop offset="0" stop-color="#fbc56d"/><stop offset=".593" stop-color="#dc8758"/><stop offset="1" stop-color="#9e5528"/></linearGradient><linearGradient id="SVGID_1_" gradientUnits="userSpaceOnUse" x1="120.203" x2="559.538" xlink:href="#lg1" y1="137.325" y2="137.325"/><linearGradient id="SVGID_2_" gradientUnits="userSpaceOnUse" x1="141.333" x2="404.052" xlink:href="#lg1" y1="137.325" y2="137.325"/><linearGradient id="SVGID_3_" gradientUnits="userSpaceOnUse" x1="148.63" x2="463.184" xlink:href="#lg1" y1="139.825" y2="139.825"/><linearGradient id="SVGID_4_" gradientUnits="userSpaceOnUse" x1="-138" x2="402.133" y1="338.659" y2="338.659"><stop offset="0" stop-color="#b0e7c9"/><stop offset=".593" stop-color="#46cc8d"/><stop offset="1" stop-color="#0ab69f"/></linearGradient><linearGradient id="SVGID_5_" gradientUnits="userSpaceOnUse" x1="-13" x2="600.264" y1="338.66" y2="338.66"><stop offset="0" stop-color="#46cc8d"/><stop offset=".5484" stop-color="#0ab69f"/><stop offset="1" stop-color="#01998d"/></linearGradient><linearGradient id="lg2"><stop offset="0" stop-color="#f8f6f7"/><stop offset="1" stop-color="#d1ceeb"/></linearGradient><linearGradient id="SVGID_6_" gradientUnits="userSpaceOnUse" x1="105.333" x2="239.572" xlink:href="#lg2" y1="137.325" y2="137.325"/><linearGradient id="lg3"><stop offset="0" stop-color="#f8f6f7"/><stop offset=".1788" stop-color="#f8f6f7"/><stop offset="1" stop-color="#e7e6f5"/></linearGradient><linearGradient id="SVGID_7_" gradientUnits="userSpaceOnUse" x1="34.41" x2="163.323" xlink:href="#lg3" y1="87.416" y2="87.416"/><linearGradient id="SVGID_8_" gradientUnits="userSpaceOnUse" x1="20.667" x2="209.363" xlink:href="#lg2" y1="87.416" y2="87.416"/><linearGradient id="SVGID_9_" gradientUnits="userSpaceOnUse" x1="1.602" x2="542.603" xlink:href="#lg3" y1="478.077" y2="478.077"/><linearGradient id="SVGID_10_" gradientUnits="userSpaceOnUse" x1="175.121" x2="379.309" xlink:href="#lg2" y1="478.077" y2="478.077"/><linearGradient id="SVGID_11_" gradientUnits="userSpaceOnUse" x1="1.602" x2="542.603" xlink:href="#lg3" y1="199.241" y2="199.241"/><linearGradient id="SVGID_12_" gradientUnits="userSpaceOnUse" x1="175.121" x2="379.309" xlink:href="#lg2" y1="199.241" y2="199.241"/><g><g><path d="m404.38 101.08c-6.1 0-12.01.77-17.66 2.22-5.06-18.55-22.01-32.18-42.16-32.18-13.19 0-25.02 5.86-33.03 15.1-12.82-12.43-30.29-20.1-49.56-20.1-34.43 0-63.15 24.44-69.77 56.91-4.06-1.24-8.36-1.91-12.82-1.91-24.14 0-43.71 19.57-43.71 43.71 0 24.13 19.57 43.7 43.71 43.7h286.31c6.17-10.4 9.76-22.52 9.89-35.46.01-.26.01-.52.01-.78 0-39.33-31.88-71.21-71.21-71.21z" fill="url(#SVGID_1_)"/><path d="m298.852 111.65c0-37.16-44.927-55.769-71.203-29.494-9.879 9.879-20.335 19.046-31.281 27.482-1.805 4.27-3.219 8.745-4.166 13.392-3.728-1.139-7.66-1.789-11.73-1.89-12.655 8.581-25.876 16.227-39.552 22.91-3.346 6.181-5.248 13.258-5.248 20.78 0 17.838 10.7 33.174 26.03 39.964h44.008c51.439 0 93.142-41.702 93.142-93.144z" fill="url(#SVGID_2_)"/><path d="m404.38 101.08c-6.1 0-12.01.77-17.66 2.22-5.06-18.55-22.01-32.18-42.16-32.18-7.208 0-14.004 1.76-19.999 4.856 6.001 3.1 11.192 7.548 15.172 12.945 5.721 7.759 14.804 12.184 24.444 12.159h.183c39.33 0 71.21 31.88 71.21 71.21 0 .26 0 .52-.01.78-.13 12.94-3.72 25.06-9.89 35.46h40.02c6.17-10.4 9.76-22.52 9.89-35.46.01-.26.01-.52.01-.78 0-39.33-31.88-71.21-71.21-71.21z" fill="url(#SVGID_3_)"/></g><path d="m34.41 203.613h441.181v270.093h-441.181z" fill="url(#SVGID_4_)"/><path d="m34.41 203.61v52.56h324.173c29.653 0 55.373 16.774 68.234 41.342h-287.165c-6.886 0-12.792 5.387-12.918 12.271-.128 7.014 5.519 12.74 12.503 12.74h266.223c16.437 0 29.81 13.24 29.976 29.676.088 8.709.134 15.929.134 15.929h-195.731c-6.907 0-12.506 5.599-12.506 12.506 0 6.907 5.599 12.505 12.505 12.505h160.396c19.515 0 35.335 15.82 35.335 35.335v45.236h40.02v-270.1z" fill="url(#SVGID_5_)"/><path d="m202.637 82.156c-46.205 46.206-104.947 76.977-168.227 89.049v33.589h146.287c51.442 0 93.144-41.702 93.144-93.144 0-37.16-44.928-55.77-71.204-29.494z" fill="url(#SVGID_6_)"/><path d="m97.074 0c-38.074 0-67.346 33.679-62.042 71.382l14.555 103.45h94.974l14.555-103.45c5.304-37.703-23.968-71.382-62.042-71.382zm39.479 64.297c-.323 9.974-11.242 15.706-19.903 10.749-5.769-3.302-12.451-5.19-19.576-5.19s-13.807 1.888-19.576 5.19c-8.765 5.016-19.653-.924-19.911-11.019-.009-.341-.013-.683-.013-1.027 0-21.815 17.684-39.499 39.498-39.5 21.836-.001 39.618 17.878 39.501 39.714-.002.362-.009.723-.02 1.083z" fill="url(#SVGID_7_)"/><path d="m97.074 0c-4.296 0-8.471.45-12.506 1.265 23.001 4.645 41.154 21.825 47.606 43.678 2.835 5.479 4.434 11.693 4.399 18.272-.002.362-.009.723-.02 1.082-.09 2.783-1.006 5.234-2.467 7.217l-14.536 103.317h25.011l14.555-103.45c5.304-37.702-23.968-71.381-62.042-71.381z" fill="url(#SVGID_8_)"/><g><g><path d="m478.077 510h-446.154c-17.631 0-31.923-14.292-31.923-31.923 0-17.63 14.292-31.923 31.923-31.923h446.154c17.63 0 31.923 14.292 31.923 31.923 0 17.631-14.292 31.923-31.923 31.923z" fill="url(#SVGID_9_)"/><path d="m478.077 446.155h-41.025c17.63 0 31.923 14.292 31.923 31.923 0 17.63-14.292 31.923-31.923 31.923h41.025c17.63 0 31.923-14.292 31.923-31.923 0-17.631-14.292-31.923-31.923-31.923z" fill="url(#SVGID_10_)"/></g><g><path d="m478.077 231.164h-446.154c-17.631 0-31.923-14.293-31.923-31.923 0-17.63 14.292-31.923 31.923-31.923h446.154c17.63 0 31.923 14.292 31.923 31.923 0 17.63-14.292 31.923-31.923 31.923z" fill="url(#SVGID_11_)"/><path d="m478.077 167.318h-41.025c17.63 0 31.923 14.292 31.923 31.923 0 17.63-14.292 31.923-31.923 31.923h41.025c17.63 0 31.923-14.292 31.923-31.923 0-17.631-14.292-31.923-31.923-31.923z" fill="url(#SVGID_12_)"/></g></g></g></svg>