<svg id="Capa_1" enable-background="new 0 0 510.007 510.007" height="512" viewBox="0 0 510.007 510.007" width="512" xmlns="http://www.w3.org/2000/svg" xmlns:xlink="http://www.w3.org/1999/xlink"><linearGradient id="lg1"><stop offset="0" stop-color="#f8f6f7"/><stop offset=".1788" stop-color="#f8f6f7"/><stop offset="1" stop-color="#e7e6f5"/></linearGradient><linearGradient id="SVGID_1_" gradientUnits="userSpaceOnUse" x1="282.713" x2="365.34" xlink:href="#lg1" y1="91.292" y2="8.665"/><linearGradient id="lg2"><stop offset="0" stop-color="#b0e7c9"/><stop offset=".593" stop-color="#46cc8d"/><stop offset="1" stop-color="#0ab69f"/></linearGradient><linearGradient id="SVGID_2_" gradientUnits="userSpaceOnUse" x1="240.108" x2="390.13" xlink:href="#lg2" y1="26.547" y2="26.547"/><linearGradient id="SVGID_3_" gradientUnits="userSpaceOnUse" x1="241.951" x2="401.813" xlink:href="#lg2" y1="103.759" y2="103.759"/><linearGradient id="lg3"><stop offset="0" stop-color="#46cc8d"/><stop offset=".5484" stop-color="#0ab69f"/><stop offset="1" stop-color="#01998d"/></linearGradient><linearGradient id="SVGID_4_" gradientUnits="userSpaceOnUse" x1="264.382" x2="412.936" xlink:href="#lg3" y1="109.7" y2="109.7"/><linearGradient id="SVGID_6_" gradientUnits="userSpaceOnUse" x1="264.382" x2="412.936" xlink:href="#lg3" y1="103.759" y2="103.759"/><linearGradient id="lg4"><stop offset="0" stop-color="#fff9df"/><stop offset=".593" stop-color="#ffe177"/><stop offset="1" stop-color="#feb237"/></linearGradient><linearGradient id="SVGID_7_" gradientUnits="userSpaceOnUse" x1="148.471" x2="495.294" xlink:href="#lg4" y1="311.334" y2="311.334"/><linearGradient id="SVGID_8_" gradientUnits="userSpaceOnUse" x1="55.38" x2="338.103" xlink:href="#lg4" y1="446.759" y2="446.759"/><linearGradient id="SVGID_9_" gradientUnits="userSpaceOnUse" x1="303.634" x2="469.293" y1="311.334" y2="311.334"><stop offset="0" stop-color="#ffe177"/><stop offset="1" stop-color="#feb237"/></linearGradient><linearGradient id="lg5"><stop offset="0" stop-color="#feb237"/><stop offset="1" stop-color="#fd6930"/></linearGradient><linearGradient id="SVGID_10_" gradientUnits="userSpaceOnUse" x1="206.882" x2="409.367" xlink:href="#lg5" y1="353.317" y2="353.317"/><linearGradient id="SVGID_11_" gradientUnits="userSpaceOnUse" x1="206.882" x2="409.367" xlink:href="#lg5" y1="303.179" y2="303.179"/><linearGradient id="SVGID_13_" gradientUnits="userSpaceOnUse" x1="206.882" x2="409.367" xlink:href="#lg5" y1="248.719" y2="248.719"/><linearGradient id="SVGID_15_" gradientUnits="userSpaceOnUse" x1="3.29" x2="327.773" xlink:href="#lg1" y1="457.416" y2="457.416"/><linearGradient id="SVGID_16_" gradientUnits="userSpaceOnUse" x1="-4.295" x2="263.631" y1="459.263" y2="459.263"><stop offset="0" stop-color="#f8f6f7"/><stop offset="1" stop-color="#d1ceeb"/></linearGradient><linearGradient id="SVGID_17_" gradientUnits="userSpaceOnUse" x1="98.708" x2="179.364" xlink:href="#lg1" y1="378.003" y2="378.003"/><linearGradient id="SVGID_18_" gradientUnits="userSpaceOnUse" x1="30.706" x2="111.362" xlink:href="#lg1" y1="338.662" y2="338.662"/><linearGradient id="SVGID_19_" gradientUnits="userSpaceOnUse" x1="94.741" x2="175.396" xlink:href="#lg1" y1="300.895" y2="300.895"/><g><g><path d="m293.738 9.245h56.288v85.755h-56.288z" fill="url(#SVGID_1_)"/><path d="m257.608 53.094c-4.479 0-8.957-1.708-12.374-5.125-6.834-6.834-6.835-17.914-.001-24.749 14.972-14.974 34.88-23.22 56.056-23.22h71.341c9.665 0 17.5 7.835 17.5 17.5s-7.835 17.5-17.5 17.5h-71.341c-11.827 0-22.945 4.605-31.307 12.968-3.416 3.417-7.896 5.126-12.374 5.126z" fill="url(#SVGID_2_)"/><g><path d="m401.813 138.651h-159.862v-47.342c0-12.394 10.047-22.441 22.441-22.441h114.978c12.394 0 22.441 10.047 22.441 22.441v47.342z" fill="url(#SVGID_3_)"/></g><g><path d="m267.582 80.75c-2.76 0-5.26 1.12-7.07 2.93s-2.93 4.31-2.93 7.07v47.9h20v-47.9c0-5.52-4.48-10-10-10z" fill="url(#SVGID_4_)"/><path d="m321.882 80.75c-2.76 0-5.26 1.12-7.07 2.93s-2.93 4.31-2.93 7.07v47.9h20v-47.9c0-5.52-4.48-10-10-10z" fill="url(#SVGID_4_)"/><path d="m379.371 68.867h-40.02c12.394 0 22.441 10.047 22.441 22.441v47.343h40.02v-47.342c.001-12.394-10.047-22.442-22.441-22.442z" fill="url(#SVGID_6_)"/></g><path d="m446.925 189.938c0-42.676-34.595-77.271-77.271-77.271h-95.544c-42.675 0-77.271 34.595-77.271 77.271 0 30.513-4.649 60.849-13.787 89.962l-29.726 94.707c-21.067 67.118 29.062 135.393 99.408 135.393h138.296c70.346 0 120.475-68.275 99.409-135.393l-29.727-94.707c-9.138-29.113-13.787-59.448-13.787-89.962z" fill="url(#SVGID_7_)"/><path d="m283.378 510c4.547-7.495 7.236-16.214 7.379-25.52l.002-.162c.009-.359.012-.719.012-1.078 0-42.44-34.252-77.032-76.563-77.587-10.627-13.627-27.176-22.135-45.212-22.135-6.434 0-12.742 1.083-18.69 3.138-11.966 62.997 36.293 123.344 102.428 123.344z" fill="url(#SVGID_8_)"/><path d="m490.438 374.607-29.726-94.707c-9.138-29.113-13.787-59.448-13.787-89.962 0-42.675-34.595-77.271-77.271-77.271h-40.02c42.676 0 77.271 34.595 77.271 77.271 0 30.513 4.649 60.849 13.787 89.962l29.726 94.707c21.067 67.118-29.062 135.393-99.408 135.393h40.02c70.346 0 120.475-68.275 99.408-135.393z" fill="url(#SVGID_9_)"/><g><path d="m321.882 295.576c-19.096 0-37.048 7.436-50.551 20.939s-20.939 31.455-20.939 50.551c0 11.876 2.975 23.642 8.604 34.025 2.708 4.996 7.455 8.495 13.024 9.6 5.532 1.098 11.212-.308 15.584-3.858 9.789-7.95 21.642-12.151 34.278-12.151s24.49 4.202 34.278 12.151c3.398 2.76 7.588 4.224 11.884 4.224 1.739 0 3.496-.24 5.225-.732 5.066-1.44 9.249-5.012 11.727-9.66 5.619-10.537 8.512-22.44 8.371-34.458-.223-18.981-7.752-36.751-21.198-50.035-13.444-13.281-31.304-20.596-50.287-20.596z" fill="url(#SVGID_10_)"/><circle cx="242.152" cy="303.179" fill="url(#SVGID_11_)" r="25.27"/><circle cx="401.612" cy="303.179" fill="url(#SVGID_11_)" r="25.27"/><g fill="url(#SVGID_13_)"><circle cx="358.941" cy="248.719" r="25.27"/><circle cx="284.823" cy="248.719" r="25.27"/></g></g></g><g><path d="m213.176 430.646c-4.505 0-8.87.569-13.043 1.64-3.737-13.701-16.256-23.767-31.139-23.767-9.742 0-18.479 4.328-24.395 11.153-9.469-9.181-22.372-14.845-36.604-14.845-25.429 0-46.641 18.051-51.531 42.033-3.673-1.122-7.611-1.612-11.707-1.335-15.893 1.075-28.8 13.904-29.957 29.791-1.377 18.913 13.566 34.692 32.195 34.692h192.152c14.423 0 26.389-11.483 26.611-25.904.001-.095.003-.191.004-.287.007-.192.007-.384.007-.576.001-29.049-23.544-52.595-52.593-52.595z" fill="url(#SVGID_15_)"/><g><path d="m213.176 430.646c-4.505 0-8.87.569-13.043 1.64-3.737-13.701-16.256-23.767-31.138-23.767-7.556 0-14.501 2.612-20.001 6.965 2.279 1.806 4.31 3.913 6.031 6.262 4.107 5.605 10.531 8.989 17.479 8.905.217-.003.434-.004.652-.004 29.048 0 52.594 23.546 52.594 52.594 0 .192 0 .384-.007.576-.001.096-.002.191-.004.286-.222 14.421-12.189 25.904-26.611 25.904h40.111c14.466 0 26.34-11.589 26.523-26.053.001-.046.001-.091.002-.137.007-.192.007-.384.007-.576-.001-29.049-23.546-52.595-52.595-52.595z" fill="url(#SVGID_16_)"/></g><circle cx="144.209" cy="378.003" fill="url(#SVGID_17_)" r="26.501"/><circle cx="76.208" cy="338.662" fill="url(#SVGID_18_)" r="26.501"/><circle cx="140.242" cy="300.895" fill="url(#SVGID_19_)" r="26.501"/></g></g></svg>