<svg id="Capa_1" enable-background="new 0 0 510 510" height="512" viewBox="0 0 510 510" width="512" xmlns="http://www.w3.org/2000/svg" xmlns:xlink="http://www.w3.org/1999/xlink"><linearGradient id="SVGID_1_" gradientUnits="userSpaceOnUse" x1="43.277" x2="466.723" y1="217.486" y2="217.486"><stop offset="0" stop-color="#f8f6f7"/><stop offset=".1788" stop-color="#f8f6f7"/><stop offset="1" stop-color="#e7e6f5"/></linearGradient><linearGradient id="SVGID_2_" gradientUnits="userSpaceOnUse" x1="-11.343" x2="563.205" y1="217.485" y2="217.485"><stop offset="0" stop-color="#f8f6f7"/><stop offset="1" stop-color="#d1ceeb"/></linearGradient><linearGradient id="lg1"><stop offset="0" stop-color="#fbc56d"/><stop offset=".593" stop-color="#dc8758"/><stop offset="1" stop-color="#9e5528"/></linearGradient><linearGradient id="SVGID_3_" gradientUnits="userSpaceOnUse" x1="188.878" x2="350.011" xlink:href="#lg1" y1="473.159" y2="473.159"/><linearGradient id="SVGID_4_" gradientUnits="userSpaceOnUse" x1="104.001" x2="334.219" xlink:href="#lg1" y1="473.16" y2="473.16"/><linearGradient id="SVGID_5_" gradientUnits="userSpaceOnUse" x1="-83.393" x2="704.214" y1="425.969" y2="425.969"><stop offset="0" stop-color="#01d0fb"/><stop offset=".6075" stop-color="#26a6fe"/><stop offset="1" stop-color="#0182fc"/></linearGradient><linearGradient id="SVGID_6_" gradientUnits="userSpaceOnUse" x1="157.121" x2="361.309" y1="425.969" y2="425.969"><stop offset="0" stop-color="#01bffa"/><stop offset=".2539" stop-color="#1f9efc"/><stop offset=".5724" stop-color="#407afd"/><stop offset=".8326" stop-color="#5464ff"/><stop offset="1" stop-color="#5b5cff"/></linearGradient><linearGradient id="lg2"><stop offset="0" stop-color="#feb237"/><stop offset="1" stop-color="#fd6930"/></linearGradient><linearGradient id="SVGID_7_" gradientUnits="userSpaceOnUse" x1="230" x2="300.036" xlink:href="#lg2" y1="58.187" y2="58.187"/><linearGradient id="SVGID_8_" gradientUnits="userSpaceOnUse" x1="177.259" x2="319.752" xlink:href="#lg2" y1="58.187" y2="58.187"/><linearGradient id="SVGID_9_" gradientUnits="userSpaceOnUse" x1="250.52" x2="305.337" xlink:href="#lg2" y1="383.111" y2="383.111"/><linearGradient id="lg3"><stop offset="0" stop-color="#fff9df"/><stop offset=".593" stop-color="#ffe177"/><stop offset="1" stop-color="#feb237"/></linearGradient><linearGradient id="SVGID_10_" gradientUnits="userSpaceOnUse" x1="113.343" x2="186.229" xlink:href="#lg3" y1="341.711" y2="341.711"/><linearGradient id="SVGID_11_" gradientUnits="userSpaceOnUse" x1="164.009" x2="348.468" xlink:href="#lg3" y1="311.299" y2="311.299"/><linearGradient id="SVGID_12_" gradientUnits="userSpaceOnUse" x1="91.009" x2="329.446" xlink:href="#lg3" y1="311.292" y2="311.292"/><linearGradient id="SVGID_13_" gradientUnits="userSpaceOnUse" x1="129.343" x2="273.905" xlink:href="#lg3" y1="318.375" y2="318.375"/><linearGradient id="SVGID_14_" gradientUnits="userSpaceOnUse" x1="181.009" x2="271.965" y1="300.247" y2="300.247"><stop offset="0" stop-color="#ffe177"/><stop offset="1" stop-color="#feb237"/></linearGradient><linearGradient id="SVGID_15_" gradientUnits="userSpaceOnUse" x1="335.676" x2="360.336" xlink:href="#lg2" y1="243.945" y2="243.945"/><linearGradient id="SVGID_16_" gradientUnits="userSpaceOnUse" x1="350.343" x2="391.455" xlink:href="#lg2" y1="225.438" y2="225.438"/><linearGradient id="SVGID_17_" gradientTransform="matrix(1 -.003 .003 1 -.683 .825)" gradientUnits="userSpaceOnUse" x1="225.328" x2="372.322" xlink:href="#lg3" y1="227.769" y2="227.769"/><linearGradient id="SVGID_18_" gradientUnits="userSpaceOnUse" x1="187.009" x2="360.298" xlink:href="#lg3" y1="227.751" y2="227.751"/><linearGradient id="SVGID_19_" gradientTransform="matrix(1 0 0 -1 0 -5954.242)" gradientUnits="userSpaceOnUse" x1="279.716" x2="340.502" y1="-6179.679" y2="-6179.679"><stop offset="0" stop-color="#537983"/><stop offset=".593" stop-color="#554e56"/><stop offset="1" stop-color="#433f43"/></linearGradient><g><path d="m466.723 412.959h-65v-179.223c0-80.903-65.819-146.723-146.723-146.723s-146.723 65.819-146.723 146.723v179.224h-65v-179.224c0-116.744 94.979-211.723 211.723-211.723s211.723 94.979 211.723 211.723z" fill="url(#SVGID_1_)"/><path d="m466.72 233.74v179.22h-40.02v-179.22c0-107.55-80.59-196.62-184.55-210v63.83c-2.4.21-4.79.47-7.16.8-11.3 1.55-22.19 4.38-32.52 8.36v-68.12c10.55-2.71 21.41-4.62 32.52-5.66 2.38-.23 4.76-.41 7.16-.55 4.25-.26 8.54-.39 12.85-.39 116.74 0 211.72 94.98 211.72 211.73z" fill="url(#SVGID_2_)"/><path d="m301.009 510h-92.017c-10.763 0-19.489-8.726-19.489-19.489v-54.194h130.995v54.194c0 10.763-8.726 19.489-19.489 19.489z" fill="url(#SVGID_3_)"/><path d="m320.5 436.32v54.19c0 10.764-8.726 19.49-19.49 19.49h-40.02c10.76 0 19.49-8.73 19.49-19.49 0-4.203-3.407-7.61-7.61-7.61h-83.37v-46.58z" fill="url(#SVGID_4_)"/><g><path d="m478.077 457.892h-446.154c-17.631 0-31.923-14.293-31.923-31.923 0-17.63 14.292-31.923 31.923-31.923h446.154c17.63 0 31.923 14.292 31.923 31.923 0 17.63-14.292 31.923-31.923 31.923z" fill="url(#SVGID_5_)"/><path d="m478.077 394.046h-41.025c17.63 0 31.923 14.292 31.923 31.923 0 17.63-14.292 31.923-31.923 31.923h41.025c17.63 0 31.923-14.292 31.923-31.923 0-17.631-14.292-31.923-31.923-31.923z" fill="url(#SVGID_6_)"/></g><g><path d="m283.144 88.23v-60.086c0-15.544-12.601-28.144-28.144-28.144-15.543 0-28.144 12.6-28.144 28.144v60.086c0 15.543 12.6 28.144 28.144 28.144 15.543-.001 28.144-12.601 28.144-28.144z" fill="url(#SVGID_7_)"/><path d="m255 0c-4.493 0-8.737 1.058-12.505 2.931 9.267 4.605 15.638 14.163 15.638 25.213v60.086c0 11.05-6.372 20.608-15.638 25.213 3.768 1.873 8.012 2.931 12.505 2.931 15.543 0 28.144-12.6 28.144-28.144v-60.086c0-15.544-12.601-28.144-28.144-28.144z" fill="url(#SVGID_8_)"/></g><g><path d="m289.51 380.467c-11.055-11.055-29.043-11.055-40.098 0v11.249c4.852-4.852 23.996-4.852 28.848 0 3.106 3.106 8.143 3.106 11.249 0s3.107-8.143.001-11.249z" fill="url(#SVGID_9_)"/><path d="m144.807 305.839c-14.574-.526-22.481 7.381-21.955 21.955.111 3.088 2.884 7.799 7.031 11.946 17.516 17.516 37.235 30.712 53.043 35.497l6.63 2.007c4.019 1.216 5.918-.679 4.705-4.697l-1.989-6.587c-4.776-15.813-17.978-35.548-35.507-53.077l-.013-.013c-4.146-4.147-8.857-6.92-11.945-7.031z" fill="url(#SVGID_10_)"/><path d="m301.24 234.848c-36.419-36.419-168.302 95.465-131.884 131.884 36.419 36.419 95.465 36.419 131.884 0s36.419-95.465 0-131.884z" fill="url(#SVGID_11_)"/><path d="m326.429 320.58c-3.65 16.92-12.04 33-25.19 46.15-21.4 21.4-50.61 30.22-78.45 26.46 19.54-2.61 38.42-11.44 53.44-26.46 11.28-11.28 19.07-24.74 23.36-39.02-4.25.43-8.58.56-12.98.37-35.2-1.53-65.32-24.01-78.02-55.22 19.86-19.72 42.93-36.09 62.07-41.97 12.55-3.86 23.41-3.21 30.58 3.96 23.27 23.27 31.68 55.79 25.19 85.73z" fill="url(#SVGID_12_)"/><path d="m276.645 275.845c-20.26-20.26-93.627 53.108-73.367 73.367 20.26 20.26 53.108 20.26 73.367 0 20.259-20.259 20.259-53.107 0-73.367z" fill="url(#SVGID_13_)"/><path d="m286.609 328.08c.943.041 1.882.059 2.819.071 5.623-17.857 1.371-38.152-12.783-52.306-10.245-10.245-34.067 3.455-52.499 22.12 15.439 17.573 37.688 29.038 62.463 30.115z" fill="url(#SVGID_14_)"/><g><path d="m346.361 245.264v8.848h5.727c8.107 0 14.678-6.572 14.678-14.678v-5.655c.001-.001-20.405 2.637-20.405 11.485z" fill="url(#SVGID_15_)"/><path d="m346.363 205.612c-.001.001-.001.001-.001.001v39.651c6.129-3.135 13.066-4.914 20.423-4.914 3.466 0 6.84.394 10.08 1.139 6.884 1.583 12.64-5.512 9.363-11.769-7.513-14.345-22.545-24.128-39.865-24.108z" fill="url(#SVGID_16_)"/></g><path d="m306.971 166.725c-8.461-8.862-20.148-13.793-32.174-13.879-7.135-.051-11.048 8.335-6.405 13.753 1.717 2.003 3.269 4.191 4.644 6.54-29.006 7.967-50.005 35.227-48.348 67.09 1.752 33.689 29.208 60.903 62.911 62.363 37.848 1.639 68.99-28.617 68.878-66.074-.074-24.813-13.844-46.384-34.132-57.578-5.766-3.18-10.827-7.452-15.374-12.215z" fill="url(#SVGID_17_)"/><path d="m322.345 178.941c-5.766-3.181-10.827-7.453-15.374-12.217-8.461-8.862-20.148-13.793-32.174-13.879-3.144-.022-5.66 1.595-7.096 3.874 5.291 2.344 10.156 5.708 14.259 10.005 4.548 4.763 9.608 9.035 15.374 12.217 20.287 11.193 34.058 32.764 34.132 57.578.096 32.218-22.937 59.087-53.464 64.936 3.129.607 6.333.996 9.597 1.137 37.848 1.639 68.99-28.616 68.878-66.073-.075-24.813-13.845-46.384-34.132-57.578z" fill="url(#SVGID_18_)"/><path d="m311.782 207.284c-15.635 0-28.354 12.719-28.354 28.353 0 4.393 3.561 7.955 7.954 7.955s7.955-3.561 7.955-7.955c0-6.862 5.583-12.444 12.445-12.444s12.444 5.583 12.444 12.444c0 4.393 3.561 7.955 7.955 7.955 4.393 0 7.954-3.561 7.954-7.955.001-15.634-12.719-28.353-28.353-28.353z" fill="url(#SVGID_19_)"/></g></g></svg>