<svg id="Capa_1" enable-background="new 0 0 510 510" height="512" viewBox="0 0 510 510" width="512" xmlns="http://www.w3.org/2000/svg" xmlns:xlink="http://www.w3.org/1999/xlink"><linearGradient id="lg1"><stop offset="0" stop-color="#fbc56d"/><stop offset=".593" stop-color="#dc8758"/><stop offset="1" stop-color="#9e5528"/></linearGradient><linearGradient id="SVGID_1_" gradientUnits="userSpaceOnUse" x1="188.878" x2="350.011" xlink:href="#lg1" y1="473.159" y2="473.159"/><linearGradient id="SVGID_2_" gradientUnits="userSpaceOnUse" x1="104.001" x2="334.219" xlink:href="#lg1" y1="473.16" y2="473.16"/><linearGradient id="SVGID_3_" gradientUnits="userSpaceOnUse" x1="94" x2="415.055" y1="246.621" y2="246.621"><stop offset="0" stop-color="#f8f6f7"/><stop offset=".1788" stop-color="#f8f6f7"/><stop offset="1" stop-color="#e7e6f5"/></linearGradient><linearGradient id="SVGID_4_" gradientUnits="userSpaceOnUse" x1="-75.92" x2="401.153" y1="246.62" y2="246.62"><stop offset="0" stop-color="#f8f6f7"/><stop offset="1" stop-color="#d1ceeb"/></linearGradient><linearGradient id="lg2"><stop offset="0" stop-color="#fe646f"/><stop offset=".593" stop-color="#fb2b3a"/><stop offset="1" stop-color="#c41926"/></linearGradient><linearGradient id="SVGID_5_" gradientUnits="userSpaceOnUse" x1="212.875" x2="478.855" xlink:href="#lg2" y1="140.937" y2="140.937"/><linearGradient id="SVGID_6_" gradientUnits="userSpaceOnUse" x1="83.072" x2="454.721" xlink:href="#lg2" y1="140.937" y2="140.937"/><linearGradient id="lg3"><stop offset="0" stop-color="#537983"/><stop offset=".593" stop-color="#554e56"/><stop offset="1" stop-color="#433f43"/></linearGradient><linearGradient id="SVGID_7_" gradientUnits="userSpaceOnUse" x1="140.07" x2="392.343" xlink:href="#lg3" y1="310.445" y2="310.445"/><linearGradient id="SVGID_8_" gradientUnits="userSpaceOnUse" x1="93" x2="289.919" xlink:href="#lg3" y1="310.445" y2="310.445"/><linearGradient id="SVGID_9_" gradientUnits="userSpaceOnUse" x1="129.873" x2="424.857" xlink:href="#lg1" y1="339.631" y2="339.631"/><linearGradient id="SVGID_10_" gradientUnits="userSpaceOnUse" x1="110" x2="364.468" xlink:href="#lg1" y1="339.63" y2="339.63"/><g><path d="m301.009 510h-92.017c-10.763 0-19.489-8.726-19.489-19.489v-54.194h130.995v54.194c0 10.764-8.726 19.489-19.489 19.489z" fill="url(#SVGID_1_)"/><path d="m320.5 436.32v54.19c0 10.764-8.726 19.49-19.49 19.49h-40.02c10.76 0 19.49-8.73 19.49-19.49 0-4.203-3.407-7.61-7.61-7.61h-83.37v-46.58z" fill="url(#SVGID_2_)"/><path d="m352.626 457.892h-195.252c-18.636 0-34.801-12.875-38.97-31.038l-51.3-223.481 187.896-168.023 187.896 168.022-51.3 223.481c-4.169 18.164-20.334 31.039-38.97 31.039z" fill="url(#SVGID_3_)"/><path d="m442.9 203.37-16.49 71.83-34.81 151.65c-4.17 18.17-20.34 31.04-38.97 31.04h-40.02c18.63 0 34.8-12.87 38.97-31.04l24.202-105.442c11.248-49.003-3.51-100.345-39.061-135.896l-63.571-63.572c-10.02-10.03-26.28-10.03-36.3 0l-153.26 153.26-16.49-71.83 167.89-150.13 20.01-17.89z" fill="url(#SVGID_4_)"/><g><path d="m273.15 96.924 179.233 179.234c7.621 7.621 19.977 7.621 27.598 0l24.303-24.303c7.621-7.621 7.621-19.977 0-27.598l-206.559-206.56c-23.597-23.597-61.854-23.597-85.451 0l-206.558 206.559c-7.621 7.621-7.621 19.977 0 27.598l24.303 24.303c7.621 7.621 19.977 7.621 27.598 0l179.234-179.233c10.023-10.024 26.275-10.024 36.299 0z" fill="url(#SVGID_5_)"/><path d="m504.284 224.256-206.559-206.558c-16.965-16.966-41.51-21.733-62.735-14.303 8.296 2.904 16.084 7.671 22.715 14.302l206.559 206.559c7.621 7.621 7.621 19.977 0 27.598l-18.092 18.092 6.211 6.211c7.621 7.621 19.977 7.621 27.598 0l24.303-24.303c7.621-7.621 7.621-19.977 0-27.598z" fill="url(#SVGID_6_)"/></g><circle cx="255" cy="310.445" fill="url(#SVGID_7_)" r="111.351"/><path d="m255 199.095c-6.832 0-13.518.619-20.01 1.797 51.947 9.427 91.341 54.888 91.341 109.554s-39.394 100.128-91.341 109.554c6.492 1.178 13.178 1.796 20.01 1.796 61.497 0 111.351-49.853 111.351-111.351 0-61.497-49.854-111.35-111.351-111.35z" fill="url(#SVGID_8_)"/><path d="m159.527 367.774h190.945c9.91-16.469 15.676-35.711 15.865-56.288h-222.674c.189 20.577 5.954 39.819 15.864 56.288z" fill="url(#SVGID_9_)"/><path d="m326.32 311.49c-.053 6.034-.599 11.948-1.577 17.715h-91.903c-6.886 0-12.792 5.387-12.918 12.271-.128 7.014 5.519 12.74 12.503 12.74h70.415c6.889 0 11.235 7.519 7.688 13.424l-.078.13h40.02c9.91-16.46 15.68-35.71 15.87-56.28z" fill="url(#SVGID_10_)"/></g></svg>