<svg id="Capa_1" enable-background="new 0 0 510 510" height="512" viewBox="0 0 510 510" width="512" xmlns="http://www.w3.org/2000/svg" xmlns:xlink="http://www.w3.org/1999/xlink"><linearGradient id="lg1"><stop offset="0" stop-color="#01d0fb"/><stop offset=".6075" stop-color="#26a6fe"/><stop offset="1" stop-color="#0182fc"/></linearGradient><linearGradient id="SVGID_1_" gradientTransform="matrix(1 0 0 -1 0 512)" gradientUnits="userSpaceOnUse" x1="193.655" x2="277.907" xlink:href="#lg1" y1="430.707" y2="430.707"/><linearGradient id="SVGID_2_" gradientTransform="matrix(1 0 0 -1 0 512)" gradientUnits="userSpaceOnUse" x1="63.965" x2="606.667" y1="257" y2="257"><stop offset="0" stop-color="#f8f6f7"/><stop offset=".1788" stop-color="#f8f6f7"/><stop offset="1" stop-color="#e7e6f5"/></linearGradient><linearGradient id="SVGID_3_" gradientTransform="matrix(1 0 0 -1 0 512)" gradientUnits="userSpaceOnUse" x1="213" x2="446.215" y1="257" y2="257"><stop offset="0" stop-color="#f8f6f7"/><stop offset="1" stop-color="#d1ceeb"/></linearGradient><linearGradient id="SVGID_4_" gradientTransform="matrix(1 0 0 -1 0 512)" gradientUnits="userSpaceOnUse" x1="63.965" x2="606.667" xlink:href="#lg1" y1="274.23" y2="274.23"/><linearGradient id="SVGID_5_" gradientTransform="matrix(1 0 0 -1 0 512)" gradientUnits="userSpaceOnUse" x1="-10" x2="360.438" xlink:href="#lg1" y1="161.435" y2="161.435"/><linearGradient id="SVGID_6_" gradientTransform="matrix(1 0 0 -1 0 512)" gradientUnits="userSpaceOnUse" x1="218" x2="574.724" y1="274.397" y2="274.397"><stop offset="0" stop-color="#01bffa"/><stop offset=".2539" stop-color="#1f9efc"/><stop offset=".5724" stop-color="#407afd"/><stop offset=".8326" stop-color="#5464ff"/><stop offset="1" stop-color="#5b5cff"/></linearGradient><linearGradient id="lg2"><stop offset="0" stop-color="#537983"/><stop offset=".593" stop-color="#554e56"/><stop offset="1" stop-color="#433f43"/></linearGradient><linearGradient id="SVGID_7_" gradientUnits="userSpaceOnUse" x1="149.433" x2="210.219" xlink:href="#lg2" y1="235.64" y2="235.64"/><linearGradient id="SVGID_8_" gradientUnits="userSpaceOnUse" x1="255.182" x2="351.265" xlink:href="#lg2" y1="235.64" y2="235.64"/><linearGradient id="lg3"><stop offset="0" stop-color="#ffe177"/><stop offset="1" stop-color="#feb237"/></linearGradient><linearGradient id="SVGID_9_" gradientTransform="matrix(1 0 0 -1 0 512)" gradientUnits="userSpaceOnUse" x1="197.202" x2="321.938" xlink:href="#lg3" y1="113.11" y2="113.11"/><linearGradient id="SVGID_10_" gradientTransform="matrix(1 0 0 -1 0 512)" gradientUnits="userSpaceOnUse" x1="133.004" x2="387.529" y1="176.292" y2="176.292"><stop offset="0" stop-color="#fff9df"/><stop offset=".593" stop-color="#ffe177"/><stop offset="1" stop-color="#feb237"/></linearGradient><linearGradient id="lg4"><stop offset="0" stop-color="#ffc2b5"/><stop offset="1" stop-color="#ff89a8"/></linearGradient><linearGradient id="SVGID_11_" gradientTransform="matrix(1 0 0 -1 0 512)" gradientUnits="userSpaceOnUse" x1="68.298" x2="197.848" xlink:href="#lg4" y1="199.813" y2="199.813"/><linearGradient id="SVGID_12_" gradientTransform="matrix(1 0 0 -1 0 512)" gradientUnits="userSpaceOnUse" x1="367.421" x2="496.971" xlink:href="#lg4" y1="199.813" y2="199.813"/><linearGradient id="SVGID_13_" gradientTransform="matrix(1 0 0 -1 0 512)" gradientUnits="userSpaceOnUse" x1="212" x2="362.748" xlink:href="#lg3" y1="176.291" y2="176.291"/><g><path d="m255 121.446h-70.267v-34.295c0-25.411 20.6-46.011 46.011-46.011h24.256z" fill="url(#SVGID_1_)"/><path d="m485.441 287.178c-15.544-20.365-28.415-42.713-36.544-67.008-17.302-51.709-54.708-94.202-102.938-118.205-26.907-13.391-44.113-40.638-44.113-70.692 0-7.038 1.583-13.705 4.41-19.668 2.556-5.393-1.365-11.605-7.332-11.605-25.411 0-46.011 20.6-46.011 46.011 0 18.493-13.312 34.388-31.557 37.409-76.13 12.606-138.056 67.273-161.098 139.332-7.187 22.477-18.407 43.434-33.459 61.609-12.909 15.586-20.67 35.587-20.67 57.409 0 32.884 17.612 61.654 43.917 77.393 14.204 8.498 27.461 18.478 39.205 30.142 18.373 18.246 36.944 33.188 39.556 34.839 25.897 16.373 56.583 25.856 89.488 25.856h73.411c32.905 0 63.59-9.483 89.488-25.856 2.611-1.651 21.183-16.594 39.557-34.84 11.744-11.663 25.001-21.642 39.204-30.141 26.306-15.739 43.917-44.51 43.917-77.393-.001-20.529-6.869-39.446-18.431-54.592z" fill="url(#SVGID_2_)"/><path d="m485.441 287.178c-15.544-20.365-28.416-42.713-36.545-67.008-17.302-51.709-54.708-94.202-102.938-118.204-26.906-13.391-44.113-40.638-44.113-70.692 0-7.038 1.583-13.705 4.41-19.668 2.557-5.394-1.364-11.606-7.331-11.606-13.583 0-25.787 5.889-34.209 15.249-1.858 4.991-2.889 10.385-2.889 16.024 0 30.054 17.206 57.302 44.113 70.692 48.229 24.003 85.636 66.496 102.938 118.204 8.129 24.295 21 46.644 36.545 67.008 11.561 15.146 18.43 34.064 18.43 54.592 0 32.884-17.612 61.654-43.917 77.393-14.203 8.498-27.46 18.478-39.204 30.141-18.374 18.247-36.945 33.189-39.557 34.84-25.898 16.374-56.584 25.857-89.489 25.857h40.02c32.905 0 63.59-9.483 89.488-25.856 2.612-1.651 21.183-16.594 39.557-34.84 11.744-11.663 25-21.642 39.204-30.141 26.306-15.739 43.917-44.51 43.917-77.393 0-20.529-6.868-39.446-18.43-54.592z" fill="url(#SVGID_3_)"/><path d="m485.441 287.178c-15.544-20.365-28.416-42.713-36.545-67.008-17.302-51.709-54.708-94.202-102.938-118.204-26.906-13.391-44.113-40.638-44.113-70.692 0-7.038 1.583-13.705 4.41-19.668 2.557-5.394-1.364-11.606-7.331-11.606-25.411 0-46.011 20.6-46.011 46.011 0 18.493-13.312 34.388-31.557 37.409-76.13 12.606-138.056 67.273-161.098 139.332-7.187 22.477-18.407 43.434-33.459 61.609-12.909 15.586-20.67 35.587-20.67 57.409 0 32.884 17.612 61.654 43.917 77.393 14.204 8.498 27.461 18.478 39.205 30.142 10.533 10.46 21.124 19.828 28.743 26.235-.132-.111-.26-.219-.394-.331 30.433-43.099 80.627-71.249 137.4-71.249s106.968 28.149 137.4 71.249c7.588-6.396 18-15.626 28.35-25.904 11.744-11.663 25-21.642 39.204-30.141 26.306-15.739 43.917-44.51 43.917-77.393 0-20.53-6.868-39.447-18.43-54.593z" fill="url(#SVGID_4_)"/><path d="m351.921 360.986c-7.461-4.395-13.854-10.048-17.365-17.071-10.215-20.43-36.775-61.916-79.555-61.916s-69.34 41.485-79.555 61.916c-3.511 7.023-9.904 12.676-17.365 17.071-20.063 11.818-19.236 41.173 1.881 50.984 7.494 3.481 15.893 6.073 25.14 7.077.007.029.017.057.024.085 21.279-9.741 44.942-15.173 69.875-15.173s48.596 5.433 69.875 15.173c.007-.029.017-.057.024-.085 9.247-1.004 17.646-3.596 25.14-7.077 21.117-9.81 21.944-39.166 1.881-50.984z" fill="url(#SVGID_5_)"/><path d="m484.67 286.181c-15.477-19.701-27.715-41.716-35.601-65.496-17.225-51.942-54.72-94.638-103.11-118.721-26.906-13.391-44.113-40.638-44.113-70.692 0-7.057 1.591-13.74 4.432-19.715 2.552-5.368-1.41-11.557-7.354-11.557-7.544 0-14.664 1.817-20.946 5.036-9.783 5.014-16.112 15.074-16.152 26.067v.169c0 30.054 17.206 57.302 44.113 70.692 48.39 24.082 85.885 66.778 103.11 118.721 7.886 23.78 20.125 45.795 35.601 65.496 12.027 15.309 19.201 34.607 19.201 55.588 0 32.932-17.664 61.739-44.033 77.463-14.109 8.413-27.266 18.316-38.914 29.899-1.886 1.875-3.773 3.713-5.647 5.508 6.236 6.387 11.981 13.256 17.144 20.568 7.592-6.4 18.012-15.637 28.368-25.923 11.621-11.542 24.653-21.535 38.754-29.866 26.544-15.682 44.348-44.587 44.348-77.65 0-20.979-7.174-40.277-19.201-55.587z" fill="url(#SVGID_6_)"/><path d="m181.499 217.486c-15.635 0-28.354 12.719-28.354 28.353 0 4.393 3.561 7.955 7.955 7.955 4.393 0 7.954-3.561 7.954-7.955 0-6.862 5.583-12.444 12.445-12.444s12.444 5.583 12.444 12.444c0 4.393 3.561 7.955 7.955 7.955 4.393 0 7.955-3.561 7.955-7.955 0-15.633-12.72-28.353-28.354-28.353z" fill="url(#SVGID_7_)"/><path d="m328.501 217.486c-15.635 0-28.354 12.719-28.354 28.353 0 4.393 3.561 7.955 7.954 7.955s7.955-3.561 7.955-7.955c0-6.862 5.583-12.444 12.445-12.444s12.444 5.583 12.444 12.444c0 4.393 3.561 7.955 7.954 7.955s7.955-3.561 7.955-7.955c.001-15.633-12.719-28.353-28.353-28.353z" fill="url(#SVGID_8_)"/><path d="m326.529 381.272c0 33.221-32.024 60.153-71.529 60.153s-71.528-26.931-71.528-60.153 143.057-33.221 143.057 0z" fill="url(#SVGID_9_)"/><path d="m334.555 318.904c-10.215-20.43-36.775-61.916-79.555-61.916s-69.34 41.485-79.555 61.916c-3.511 7.023-9.904 12.676-17.365 17.071-20.063 11.818-19.236 41.173 1.881 50.984 9.706 4.509 20.923 7.538 33.545 7.538 23.377 0 38.404 7.318 47.747 15.021 7.941 6.548 19.554 6.548 27.495 0 9.343-7.704 24.371-15.021 47.747-15.021 12.622 0 23.839-3.029 33.545-7.538 21.117-9.81 21.944-39.166 1.881-50.984-7.462-4.395-13.854-10.048-17.366-17.071z" fill="url(#SVGID_10_)"/><ellipse cx="105.439" cy="312.187" fill="url(#SVGID_11_)" rx="48.405" ry="23.521"/><ellipse cx="404.561" cy="312.187" fill="url(#SVGID_12_)" rx="48.405" ry="23.521"/><path d="m351.921 335.975c-7.461-4.395-13.854-10.048-17.365-17.071-10.215-20.43-36.775-61.916-79.555-61.916-7.12 0-13.789 1.154-20.01 3.165 31.156 10.067 51.031 41.721 59.545 58.751 3.511 7.023 9.904 12.676 17.365 17.071 20.063 11.818 19.236 41.173-1.881 50.984-9.706 4.509-20.923 7.538-33.545 7.538-18.74 0-32.103 4.706-41.485 10.54 2.321 1.444 4.409 2.954 6.262 4.482 7.941 6.548 19.554 6.548 27.495 0 9.343-7.704 24.371-15.021 47.747-15.021 12.622 0 23.839-3.029 33.545-7.538 21.118-9.811 21.945-39.167 1.882-50.985z" fill="url(#SVGID_13_)"/></g></svg>