<svg id="Capa_1" enable-background="new 0 0 510 510" height="512" viewBox="0 0 510 510" width="512" xmlns="http://www.w3.org/2000/svg" xmlns:xlink="http://www.w3.org/1999/xlink"><linearGradient id="lg1"><stop offset="0" stop-color="#fbc56d"/><stop offset=".593" stop-color="#dc8758"/><stop offset="1" stop-color="#9e5528"/></linearGradient><linearGradient id="SVGID_1_" gradientUnits="userSpaceOnUse" x1="182.712" x2="327.288" xlink:href="#lg1" y1="28.249" y2="28.249"/><linearGradient id="lg2"><stop offset="0" stop-color="#fff9df"/><stop offset=".593" stop-color="#ffe177"/><stop offset="1" stop-color="#feb237"/></linearGradient><linearGradient id="SVGID_2_" gradientUnits="userSpaceOnUse" x1="32.237" x2="477.763" xlink:href="#lg2" y1="258.105" y2="258.105"/><linearGradient id="lg3"><stop offset="0" stop-color="#ffe177"/><stop offset="1" stop-color="#feb237"/></linearGradient><linearGradient id="SVGID_3_" gradientUnits="userSpaceOnUse" x1="234" x2="364.553" xlink:href="#lg3" y1="155.473" y2="155.473"/><linearGradient id="SVGID_4_" gradientUnits="userSpaceOnUse" x1="31.128" x2="454.429" xlink:href="#lg3" y1="339.631" y2="339.631"/><linearGradient id="SVGID_5_" gradientUnits="userSpaceOnUse" x1="31.128" x2="454.429" xlink:href="#lg3" y1="403.997" y2="403.997"/><linearGradient id="SVGID_7_" gradientUnits="userSpaceOnUse" x1="31.128" x2="454.429" xlink:href="#lg3" y1="258.11" y2="258.11"/><linearGradient id="SVGID_8_" gradientUnits="userSpaceOnUse" x1="19" x2="309.028" xlink:href="#lg3" y1="298.981" y2="298.981"/><linearGradient id="lg4"><stop offset="0" stop-color="#feb237"/><stop offset="1" stop-color="#fd6930"/></linearGradient><linearGradient id="SVGID_9_" gradientUnits="userSpaceOnUse" x1="155" x2="217.37" xlink:href="#lg4" y1="298.981" y2="298.981"/><linearGradient id="SVGID_10_" gradientUnits="userSpaceOnUse" x1="341" x2="519.18" xlink:href="#lg3" y1="298.981" y2="298.981"/><linearGradient id="SVGID_11_" gradientUnits="userSpaceOnUse" x1="451" x2="563.872" xlink:href="#lg4" y1="298.981" y2="298.981"/><linearGradient id="SVGID_12_" gradientUnits="userSpaceOnUse" x1="163.337" x2="346.663" xlink:href="#lg2" y1="360.736" y2="360.736"/><linearGradient id="SVGID_13_" gradientUnits="userSpaceOnUse" x1="1.602" x2="542.603" xlink:href="#lg1" y1="465.898" y2="465.898"/><linearGradient id="SVGID_14_" gradientUnits="userSpaceOnUse" x1="175.121" x2="379.309" xlink:href="#lg1" y1="465.898" y2="465.898"/><g><path d="m208.903 56.499c7.218-18.417 25.153-31.499 46.097-31.499s38.879 13.082 46.097 31.499h26.191c-8.073-32.41-37.415-56.499-72.288-56.499s-64.215 24.089-72.288 56.499z" fill="url(#SVGID_1_)"/><path d="m412.518 100.588c-42.075-42.075-98.016-65.246-157.518-65.246s-115.443 23.171-157.518 65.246c-42.074 42.074-65.246 98.015-65.246 157.517v222.764h80.801 283.924 80.801v-222.765c.001-59.501-23.17-115.442-65.244-157.516zm-181.271-6.493c0-13.098 10.656-23.753 23.753-23.753s23.753 10.655 23.753 23.753v146.51h-47.507v-146.51zm-164.01 351.773v-187.764c0-52.241 21.453-99.559 56.002-133.63-6.574 16.338-10.201 34.167-10.201 52.829v268.564h-45.801zm80.801 0v-268.564c0-37.444 19.343-70.449 48.558-89.564-.226 2.089-.349 4.208-.349 6.355v181.51h117.507v-181.51c0-2.148-.124-4.267-.349-6.355 29.214 19.115 48.558 52.121 48.558 89.564v268.564zm294.725 0h-45.801v-268.564c0-18.662-3.627-36.491-10.201-52.829 34.549 34.071 56.002 81.389 56.002 133.63z" fill="url(#SVGID_2_)"/><path d="m255 35.342c-6.092 0-11.97.933-17.5 2.662 23.505 7.349 40.692 29.1 41.222 54.87.021.404.031.812.031 1.221v146.51 35h35v-181.51c0-32.397-26.357-58.753-58.753-58.753z" fill="url(#SVGID_3_)"/><g><path d="m32.237 327.125h35v25.011h-35z" fill="url(#SVGID_4_)"/><path d="m113.038 327.125v25.011h1.141c13.336 0 24.147 10.811 24.147 24.147v104.585h9.712v-153.743z" fill="url(#SVGID_5_)"/><path d="m361.962 327.125h35v25.011h-35z" fill="url(#SVGID_4_)"/><path d="m412.52 100.59c-41.6-41.6-96.74-64.72-155.48-65.24 58.75.84 108.97 37.53 129.73 89.13 34.55 34.06 55.99 81.38 55.99 133.62v187.77h-45.8v35h80.8v-222.77c0-59.5-23.17-115.44-65.24-157.51z" fill="url(#SVGID_7_)"/></g><path d="m28.144 270.837c-15.544 0-28.144 12.601-28.144 28.144s12.6 28.144 28.144 28.144h161.856v-56.288z" fill="url(#SVGID_8_)"/><path d="m173.326 327.125v-12.011c0-13.282 6.594-25.045 16.674-32.212v-12.066h-37.048c-9.183 12.388-14.626 27.707-14.626 44.277v12.011h35z" fill="url(#SVGID_9_)"/><path d="m481.856 270.837h-161.856v56.288h161.856c15.543 0 28.144-12.6 28.144-28.144 0-15.543-12.6-28.144-28.144-28.144z" fill="url(#SVGID_10_)"/><path d="m481.856 270.837h-40.02c15.543 0 28.144 12.6 28.144 28.144 0 15.543-12.6 28.144-28.144 28.144h40.02c15.543 0 28.144-12.6 28.144-28.144 0-15.543-12.6-28.144-28.144-28.144z" fill="url(#SVGID_11_)"/><path d="m346.663 480.868h-183.326v-165.754c0-41.085 33.425-74.51 74.509-74.51h34.307c41.084 0 74.509 33.425 74.509 74.51v165.754zm-148.326-35h113.325v-130.754c0-21.786-17.724-39.51-39.509-39.51h-34.307c-21.786 0-39.509 17.724-39.509 39.51z" fill="url(#SVGID_12_)"/><g><path d="m478.077 510h-446.154c-17.631 0-31.923-14.292-31.923-31.923v-24.359c0-17.63 14.292-31.923 31.923-31.923h446.154c17.63 0 31.923 14.292 31.923 31.923v24.359c0 17.631-14.292 31.923-31.923 31.923z" fill="url(#SVGID_13_)"/><path d="m478.077 421.796h-41.025c17.63 0 31.923 14.292 31.923 31.923v24.359c0 17.63-14.292 31.923-31.923 31.923h41.025c17.63 0 31.923-14.292 31.923-31.923v-24.359c0-17.631-14.292-31.923-31.923-31.923z" fill="url(#SVGID_14_)"/></g></g></svg>