<svg id="Capa_1" enable-background="new 0 0 510 510" height="512" viewBox="0 0 510 510" width="512" xmlns="http://www.w3.org/2000/svg" xmlns:xlink="http://www.w3.org/1999/xlink"><linearGradient id="lg1"><stop offset="0" stop-color="#f8f6f7"/><stop offset="1" stop-color="#d1ceeb"/></linearGradient><linearGradient id="SVGID_1_" gradientUnits="userSpaceOnUse" x1="146.714" x2="174.998" xlink:href="#lg1" y1="34.25" y2="34.25"/><linearGradient id="SVGID_2_" gradientUnits="userSpaceOnUse" x1="181.381" x2="238.52" y1="76.768" y2="76.768"><stop offset="0" stop-color="#fff9df"/><stop offset=".593" stop-color="#ffe177"/><stop offset="1" stop-color="#feb237"/></linearGradient><linearGradient id="lg2"><stop offset="0" stop-color="#feb237"/><stop offset="1" stop-color="#fd6930"/></linearGradient><linearGradient id="SVGID_3_" gradientUnits="userSpaceOnUse" x1="182.714" x2="406.937" xlink:href="#lg2" y1="63.526" y2="63.526"/><linearGradient id="SVGID_4_" gradientUnits="userSpaceOnUse" x1="73.761" x2="324.41" xlink:href="#lg2" y1="63.526" y2="63.526"/><linearGradient id="SVGID_5_" gradientUnits="userSpaceOnUse" x1="200.783" x2="474.722" xlink:href="#lg2" y1="150.062" y2="150.062"/><linearGradient id="SVGID_6_" gradientUnits="userSpaceOnUse" x1="164.714" x2="346.989" xlink:href="#lg2" y1="156.002" y2="156.002"/><linearGradient id="SVGID_8_" gradientUnits="userSpaceOnUse" x1="164.714" x2="346.989" xlink:href="#lg2" y1="150.062" y2="150.062"/><linearGradient id="SVGID_9_" gradientUnits="userSpaceOnUse" x1="169.183" x2="462.533" y1="337.364" y2="337.364"><stop offset="0" stop-color="#f8f6f7"/><stop offset=".1788" stop-color="#f8f6f7"/><stop offset="1" stop-color="#e7e6f5"/></linearGradient><linearGradient id="SVGID_10_" gradientUnits="userSpaceOnUse" x1="211.754" x2="382.772" xlink:href="#lg1" y1="337.364" y2="337.364"/><linearGradient id="lg3"><stop offset="0" stop-color="#01d0fb"/><stop offset=".6075" stop-color="#26a6fe"/><stop offset="1" stop-color="#0182fc"/></linearGradient><linearGradient id="SVGID_11_" gradientUnits="userSpaceOnUse" x1="190.788" x2="423.506" xlink:href="#lg3" y1="388.395" y2="388.395"/><linearGradient id="lg4"><stop offset="0" stop-color="#01bffa"/><stop offset=".2539" stop-color="#1f9efc"/><stop offset=".5724" stop-color="#407afd"/><stop offset=".8326" stop-color="#5464ff"/><stop offset="1" stop-color="#5b5cff"/></linearGradient><linearGradient id="SVGID_12_" gradientUnits="userSpaceOnUse" x1="150.257" x2="506.122" xlink:href="#lg4" y1="314.707" y2="314.707"/><linearGradient id="SVGID_13_" gradientUnits="userSpaceOnUse" x1="150.257" x2="506.122" xlink:href="#lg4" y1="391.36" y2="391.36"/><linearGradient id="SVGID_14_" gradientUnits="userSpaceOnUse" x1="113.16" x2="145.7" xlink:href="#lg3" y1="81.804" y2="49.264"/><linearGradient id="SVGID_15_" gradientUnits="userSpaceOnUse" x1="98.236" x2="125.387" xlink:href="#lg3" y1="36.576" y2="9.425"/><g><path d="m196.214 55.5h-28.383c-7.797 0-14.117-6.32-14.117-14.117v-14.266c0-7.797 6.32-14.117 14.117-14.117h28.383z" fill="url(#SVGID_1_)"/><path d="m186.351 45.063c6.79 15.813 2.272 33.638-9.951 44.45-4.673 4.134-4.785 11.405-.224 15.662 11.057 10.322 27.652 13.665 42.401 7.081 19.11-8.531 28.061-30.951 20.081-50.298-8.287-20.089-31.374-29.452-51.275-20.907-.822.353-1.624.733-2.409 1.135.493.933.954 1.891 1.377 2.877z" fill="url(#SVGID_2_)"/><path d="m226.414 127.052v-8.416c0-15.739-8.807-30.154-22.811-37.337l-15.765-8.086c-6.829-3.503-11.124-10.533-11.124-18.208v-34.542c0-11.301 9.162-20.463 20.463-20.463h129.004c11.301 0 20.463 9.162 20.463 20.463v44.439c0 8.224-4.844 15.676-12.36 19.014-7.516 3.338-12.36 10.79-12.36 19.014v24.122z" fill="url(#SVGID_3_)"/><path d="m326.181 0h-40.02c11.302 0 20.463 9.162 20.463 20.463v44.439c0 8.224-4.844 15.676-12.36 19.014s-12.36 10.79-12.36 19.014v24.122h40.02v-24.122c0-8.224 4.844-15.676 12.36-19.014s12.36-10.79 12.36-19.014v-44.439c.001-11.301-9.161-20.463-20.463-20.463z" fill="url(#SVGID_4_)"/><g><path d="m324.203 115.17h-100.978c-12.394 0-22.441 10.047-22.441 22.441v47.343h145.861v-47.343c0-12.394-10.048-22.441-22.442-22.441z" fill="url(#SVGID_5_)"/><g><path d="m226.414 127.052c-2.76 0-5.26 1.12-7.07 2.93s-2.93 4.31-2.93 7.07v47.9h20v-47.9c0-5.52-4.48-10-10-10z" fill="url(#SVGID_6_)"/><path d="m273.714 127.052c-2.76 0-5.26 1.12-7.07 2.93s-2.93 4.31-2.93 7.07v47.9h20v-47.9c0-5.52-4.48-10-10-10z" fill="url(#SVGID_6_)"/><path d="m324.203 115.17h-40.02c12.394 0 22.441 10.047 22.441 22.441v47.343h40.02v-47.343c.001-12.394-10.047-22.441-22.441-22.441z" fill="url(#SVGID_8_)"/></g></g><path d="m358.744 201.269c0-20.181-16.36-36.54-36.54-36.54h-96.979c-20.181 0-36.54 16.36-36.54 36.54 0 21.638-12.036 41.48-31.227 51.478-19.19 9.998-31.227 29.84-31.227 51.478v172.855c0 18.181 14.739 32.92 32.92 32.92h229.127c18.181 0 32.92-14.739 32.92-32.92v-172.855c0-21.638-12.036-41.48-31.227-51.478-19.191-9.998-31.227-29.84-31.227-51.478z" fill="url(#SVGID_9_)"/><path d="m389.971 252.747c-19.19-9.998-31.227-29.84-31.227-51.478 0-20.181-16.36-36.54-36.54-36.54h-40.02c20.181 0 36.54 16.36 36.54 36.54 0 21.638 12.036 41.48 31.227 51.478 19.19 9.998 31.227 29.84 31.227 51.478v172.855c0 18.181-14.739 32.92-32.92 32.92h40.02c18.181 0 32.92-14.739 32.92-32.92v-172.855c-.001-21.639-12.037-41.481-31.227-51.478z" fill="url(#SVGID_10_)"/><path d="m390.714 317.74v94.78c0 37.809-30.651 68.46-68.46 68.46h-97.08c-37.809 0-68.46-30.651-68.46-68.46v-94.78c0-.057 0-.114 0-.172.037-9.885 7.183-18.413 16.887-20.297 5.015-.974 10.104-1.461 15.193-1.461 18.31 0 36.63 6.31 51.48 18.91 29.7 25.2 73.28 25.2 102.98 0 9.035-7.672 19.4-11.802 29.825-12.893 9.328-.976 17.602 6.374 17.634 15.753.001.053.001.107.001.16z" fill="url(#SVGID_11_)"/><g><path d="m202.974 314.72c19.927 16.908 46.1 22.453 70.14 16.672-11.789-2.835-23.068-8.38-32.84-16.672-14.85-12.6-33.17-18.91-51.48-18.91-5.089 0-10.178.488-15.193 1.461-1.061.206-2.085.505-3.079.863 11.647 2.866 22.786 8.385 32.452 16.586z" fill="url(#SVGID_12_)"/><path d="m390.714 317.58c-.033-9.379-8.306-16.729-17.634-15.753-7.572.793-15.11 3.197-22.131 7.389 1.539 2.422 2.455 5.279 2.466 8.364v.16 94.78c0 37.809-30.651 68.46-68.46 68.46h37.3c37.809 0 68.46-30.651 68.46-68.46v-94.78c-.001-.053-.001-.107-.001-.16z" fill="url(#SVGID_13_)"/></g><g><path d="m145.7 49.264c-3.905-3.905-10.237-3.905-14.142 0l-18.398 18.398c-3.905 3.905-3.905 10.237 0 14.142 3.905 3.905 10.237 3.905 14.142 0l18.398-18.398c3.905-3.905 3.905-10.236 0-14.142z" fill="url(#SVGID_14_)"/><path d="m134.82 23c0-5.523-4.477-10-10-10h-26.018c-5.523 0-10 4.477-10 10s4.477 10 10 10h26.018c5.523 0 10.001-4.477 10-10z" fill="url(#SVGID_15_)"/></g></g></svg>