<svg id="Capa_1" enable-background="new 0 0 510 510" height="512" viewBox="0 0 510 510" width="512" xmlns="http://www.w3.org/2000/svg" xmlns:xlink="http://www.w3.org/1999/xlink"><linearGradient id="lg1"><stop offset="0" stop-color="#f8f6f7"/><stop offset=".1788" stop-color="#f8f6f7"/><stop offset="1" stop-color="#e7e6f5"/></linearGradient><linearGradient id="SVGID_1_" gradientUnits="userSpaceOnUse" x1="138" x2="313.283" xlink:href="#lg1" y1="342.086" y2="342.086"/><linearGradient id="lg2"><stop offset="0" stop-color="#fff9df"/><stop offset=".593" stop-color="#ffe177"/><stop offset="1" stop-color="#feb237"/></linearGradient><linearGradient id="SVGID_2_" gradientUnits="userSpaceOnUse" x1="39.154" x2="174.53" xlink:href="#lg2" y1="190.126" y2="190.126"/><linearGradient id="SVGID_3_" gradientUnits="userSpaceOnUse" x1="-3.5" x2="158.29" xlink:href="#lg2" y1="202.515" y2="202.515"/><linearGradient id="lg3"><stop offset="0" stop-color="#ffc2b5"/><stop offset="1" stop-color="#ff89a8"/></linearGradient><linearGradient id="SVGID_4_" gradientUnits="userSpaceOnUse" x1="79.139" x2="162.002" xlink:href="#lg3" y1="190.126" y2="190.126"/><linearGradient id="SVGID_5_" gradientUnits="userSpaceOnUse" x1="21" x2="123.001" xlink:href="#lg3" y1="190.608" y2="190.608"/><linearGradient id="SVGID_6_" gradientUnits="userSpaceOnUse" x1="212.146" x2="485.285" xlink:href="#lg2" y1="190.126" y2="190.126"/><linearGradient id="lg4"><stop offset="0" stop-color="#ffe177"/><stop offset="1" stop-color="#feb237"/></linearGradient><linearGradient id="SVGID_7_" gradientUnits="userSpaceOnUse" x1="212.143" x2="485.285" xlink:href="#lg4" y1="190.129" y2="190.129"/><linearGradient id="SVGID_8_" gradientUnits="userSpaceOnUse" x1="300.641" x2="441.706" xlink:href="#lg3" y1="190.126" y2="190.126"/><linearGradient id="SVGID_9_" gradientUnits="userSpaceOnUse" x1="269" x2="356.006" xlink:href="#lg3" y1="190.471" y2="190.471"/><linearGradient id="SVGID_10_" gradientUnits="userSpaceOnUse" x1="52" x2="508.968" xlink:href="#lg1" y1="261.861" y2="261.861"/><linearGradient id="lg5"><stop offset="0" stop-color="#f8f6f7"/><stop offset="1" stop-color="#d1ceeb"/></linearGradient><linearGradient id="SVGID_11_" gradientUnits="userSpaceOnUse" x1="-45.841" x2="502.65" xlink:href="#lg5" y1="387.749" y2="387.749"/><linearGradient id="SVGID_12_" gradientUnits="userSpaceOnUse" x1="-45.841" x2="502.65" xlink:href="#lg5" y1="261.861" y2="261.861"/><linearGradient id="SVGID_13_" gradientUnits="userSpaceOnUse" x1="223.572" x2="303.138" xlink:href="#lg3" y1="287.326" y2="287.326"/><linearGradient id="SVGID_14_" gradientUnits="userSpaceOnUse" x1="6.656" x2="449.226" xlink:href="#lg2" y1="203.607" y2="203.607"/><linearGradient id="lg6"><stop offset="0" stop-color="#537983"/><stop offset=".593" stop-color="#554e56"/><stop offset="1" stop-color="#433f43"/></linearGradient><linearGradient id="SVGID_15_" gradientTransform="matrix(1 0 0 -1 0 -7018.242)" gradientUnits="userSpaceOnUse" x1="149.433" x2="210.219" xlink:href="#lg6" y1="-7225.765" y2="-7225.765"/><linearGradient id="SVGID_16_" gradientTransform="matrix(1 0 0 -1 0 -7018.242)" gradientUnits="userSpaceOnUse" x1="255.182" x2="351.265" xlink:href="#lg6" y1="-7225.765" y2="-7225.765"/><linearGradient id="SVGID_17_" gradientUnits="userSpaceOnUse" x1="116.151" x2="347.378" xlink:href="#lg4" y1="192.474" y2="192.474"/><linearGradient id="lg7"><stop offset="0" stop-color="#feb237"/><stop offset="1" stop-color="#fd6930"/></linearGradient><linearGradient id="SVGID_18_" gradientUnits="userSpaceOnUse" x1="234" x2="332.615" xlink:href="#lg7" y1="142.313" y2="142.313"/><linearGradient id="SVGID_19_" gradientUnits="userSpaceOnUse" x1="197.333" x2="311.474" xlink:href="#lg7" y1="107.15" y2="107.15"/><linearGradient id="SVGID_20_" gradientUnits="userSpaceOnUse" x1="-16.396" x2="127.628" xlink:href="#lg5" y1="331.678" y2="331.678"/><linearGradient id="SVGID_21_" gradientUnits="userSpaceOnUse" x1="-16.396" x2="127.628" xlink:href="#lg5" y1="399.151" y2="399.151"/><linearGradient id="SVGID_22_" gradientUnits="userSpaceOnUse" x1="-16.396" x2="127.628" xlink:href="#lg5" y1="264.206" y2="264.206"/><linearGradient id="SVGID_23_" gradientUnits="userSpaceOnUse" x1="273.09" x2="463.675" xlink:href="#lg5" y1="331.678" y2="331.678"/><linearGradient id="SVGID_24_" gradientUnits="userSpaceOnUse" x1="273.09" x2="463.675" xlink:href="#lg5" y1="264.205" y2="264.205"/><linearGradient id="SVGID_25_" gradientUnits="userSpaceOnUse" x1="273.09" x2="463.675" xlink:href="#lg5" y1="399.15" y2="399.15"/><g><g><circle cx="255" cy="342.086" fill="url(#SVGID_1_)" r="94.63"/><g><path d="m193.9 306.968c-84.816 0-150.324-74.531-139.439-158.646l3.178-24.556c5.323-41.137 51.051-63.564 86.692-42.343 41.686 24.82 71.583 67.843 78.2 118.977l8.346 64.498c2.886 22.306-14.485 42.07-36.977 42.07z" fill="url(#SVGID_2_)"/><path d="m193.9 306.97c-23.7 0-45.89-5.82-65.33-16.04-35.27-18.54-61.47-51.58-71.17-90.64 14.42-10.66 27.18-23.44 37.29-38.28 18.96-27.83 43.96-50.01 72.74-63.95 29.43 25.39 49.78 61.25 55.1 102.34l2.93 22.64 5.42 41.86c2.88 22.3-14.49 42.07-36.98 42.07z" fill="url(#SVGID_3_)"/><path d="m173.858 261.644c-51.916 0-92.013-45.62-85.35-97.107l1.945-15.031c3.258-25.18 31.248-38.907 53.064-25.918 25.516 15.192 43.816 41.527 47.866 72.825l5.109 39.479c1.767 13.655-8.866 25.752-22.634 25.752z" fill="url(#SVGID_4_)"/><path d="m196.492 235.894-5.109-39.479c-4.05-31.299-22.35-57.633-47.866-72.825-3.191-1.9-6.515-3.212-9.873-4.017-14.74 11.882-27.883 26.187-38.954 42.438-2.142 3.144-4.409 6.189-6.779 9.148-2.581 48.713 36.269 90.487 85.948 90.487 13.767-.002 24.4-12.099 22.633-25.752z" fill="url(#SVGID_5_)"/></g><g><path d="m316.1 306.968c84.816 0 150.324-74.531 139.439-158.646l-3.178-24.556c-5.323-41.137-51.051-63.564-86.692-42.343-41.686 24.82-71.583 67.843-78.2 118.977l-8.346 64.498c-2.886 22.306 14.485 42.07 36.977 42.07z" fill="url(#SVGID_6_)"/><path d="m455.539 148.322-3.178-24.556c-4.512-34.87-38.055-56.29-69.878-49.085 22.507 5.049 41.547 23.426 44.867 49.085l3.178 24.556c1.425 11.015 1.531 21.863.464 32.403-4.833-5.176-9.252-10.74-13.162-16.695-19.13-29.11-44.78-52.24-74.51-66.61-29.83 25.42-50.48 61.54-55.85 102.98l-2.83 21.88-5.52 42.62c-2.88 22.3 14.49 42.07 36.98 42.07 24.12 0 46.67-6.02 66.36-16.59 34.938-18.739 60.826-51.776 70.308-90.742.001-.001.005-.008.005-.008 3.96-16.271 5.061-33.577 2.766-51.308z" fill="url(#SVGID_7_)"/><path d="m336.142 261.644c51.916 0 92.013-45.62 85.35-97.107l-1.945-15.031c-3.258-25.18-31.248-38.907-53.064-25.918-25.516 15.192-43.816 41.527-47.866 72.825l-5.109 39.479c-1.767 13.655 8.866 25.752 22.634 25.752z" fill="url(#SVGID_8_)"/><path d="m422.017 169.959c-1.445-1.937-2.856-3.902-4.187-5.929-11.301-17.196-24.891-32.283-40.239-44.732-3.778.76-7.526 2.159-11.108 4.291-25.516 15.192-43.816 41.527-47.866 72.825l-5.109 39.479c-1.767 13.653 8.866 25.751 22.633 25.751 50.086 0 89.165-42.46 85.876-91.685z" fill="url(#SVGID_9_)"/></g><path d="m255 405.75c-7.656 0-14.16-5.602-15.294-13.173l-8.515-56.826h47.618l-8.515 56.826c-1.134 7.571-7.638 13.173-15.294 13.173z" fill="#fff"/><path d="m442.363 223.47c-17.101-11.384-31.998-25.855-43.544-42.847-33.27-48.964-85.255-80.331-143.82-80.331-58.335 0-110.255 31.409-143.571 80.253-11.577 16.973-26.474 31.449-43.6 42.798-29.894 19.811-49.462 53.954-48.893 92.634.879 59.85 50.623 108.194 110.475 107.445 38.757-.485 72.643-21.181 91.609-52.034 7.245-11.786 19.888-19.297 33.723-19.319h.259s.173 0 .259 0c13.835.023 26.477 7.533 33.723 19.319 19.4 31.558 54.41 52.49 94.276 52.035 58.797-.671 106.896-48.563 107.807-107.357.596-38.634-18.893-72.752-48.703-92.596z" fill="url(#SVGID_10_)"/><g><path d="m215.239 352.069c-.086 0-.172 0-.259 0-.086 0-.172 0-.259 0-13.835.023-26.477 7.533-33.723 19.319-15.846 25.777-42.11 44.453-72.924 50.187 6.916 1.296 14.05 1.938 21.335 1.846 38.757-.485 72.643-21.181 91.609-52.033 3.534-5.749 8.358-10.469 13.971-13.811-5.895-3.509-12.663-5.497-19.75-5.508z" fill="url(#SVGID_11_)"/><path d="m442.363 223.47c-17.101-11.384-31.998-25.855-43.544-42.847-33.27-48.964-85.255-80.331-143.82-80.331-6.749 0-13.408.439-19.967 1.258 50.294 6.259 94.348 35.778 123.767 79.073 11.546 16.992 26.443 31.463 43.544 42.847 29.81 19.844 49.299 53.962 48.701 92.596-.812 52.42-39.136 96.172-89.109 105.518 6.902 1.282 14.029 1.922 21.322 1.839 58.797-.671 106.896-48.563 107.807-107.357.598-38.634-18.891-72.752-48.701-92.596z" fill="url(#SVGID_12_)"/></g><path d="m265.609 259.496h-21.217c-16.553 0-26.899 17.92-18.623 32.255l5.653 9.791c10.479 18.151 36.678 18.151 47.157 0l5.653-9.791c8.276-14.336-2.07-32.255-18.623-32.255z" fill="url(#SVGID_13_)"/><path d="m440.964 220.575c-15.967-10.287-29.962-23.409-40.393-39.282-33.179-50.491-85.981-83.001-145.604-83.001-58.375 0-110.326 31.451-143.639 80.353-11.665 17.123-26.853 31.503-44.057 43.048-.301.202-.601.405-.899.61-23.584 16.169-23.496 51.217.059 67.428 17.935 12.343 39.676 19.474 62.946 19.183 38.978-.488 73.029-21.418 91.932-52.562 7.093-11.686 19.809-18.773 33.479-18.791h.179.13c13.765.015 26.48 7.234 33.647 18.986 19.358 31.744 54.474 52.825 94.48 52.368 22.45-.256 43.338-7.398 60.636-19.402 23.339-16.196 23.182-51.091-.238-67.17-.877-.602-1.763-1.191-2.658-1.768z" fill="url(#SVGID_14_)"/><g><path d="m181.499 189.369c-15.635 0-28.354 12.719-28.354 28.353 0 4.393 3.561 7.955 7.955 7.955 4.393 0 7.954-3.561 7.954-7.955 0-6.862 5.583-12.444 12.445-12.444s12.444 5.583 12.444 12.444c0 4.393 3.561 7.955 7.955 7.955 4.393 0 7.955-3.561 7.955-7.955 0-15.633-12.72-28.353-28.354-28.353z" fill="url(#SVGID_15_)"/><path d="m328.501 189.369c-15.635 0-28.354 12.719-28.354 28.353 0 4.393 3.561 7.955 7.954 7.955s7.955-3.561 7.955-7.955c0-6.862 5.583-12.444 12.445-12.444s12.444 5.583 12.444 12.444c0 4.393 3.561 7.955 7.954 7.955s7.955-3.561 7.955-7.955c.001-15.633-12.719-28.353-28.353-28.353z" fill="url(#SVGID_16_)"/></g><path d="m358.799 180.623c11.546 16.992 26.443 31.463 43.544 42.847 21.956 14.616 38.301 36.982 45.157 63.186 19.598-17.145 18.248-49.122-3.878-64.313-.877-.602-1.763-1.192-2.658-1.768-15.967-10.287-29.962-23.409-40.393-39.282-33.179-50.491-85.981-83.001-145.604-83.001-9.511 0-18.846.849-27.963 2.458 53.623 3.97 100.821 34.288 131.795 79.873z" fill="url(#SVGID_17_)"/><path d="m293.44 102.92c-.18.31-.38.61-.58.91l-7.57 11.18c-5.55 8.22-8.24 18.17-7.58 28.02l.89 13.42c.7 10.66-4.39 20.92-13.31 26.8-6.243 4.114-14.337 4.114-20.58 0-8.92-5.88-14.01-16.14-13.31-26.8l.89-13.42c.66-9.85-2.03-19.8-7.58-28.02l-7.57-11.18c-.2-.29-.39-.59-.57-.89 12.38-3.05 25.22-4.65 38.4-4.65 13.21 0 26.08 1.6 38.47 4.63z" fill="url(#SVGID_18_)"/><path d="m254.97 98.29c-9.506 0-18.832.845-27.939 2.453-.009.002-.018.005-.027.007 20.315 1.504 39.704 6.796 57.641 15.26.213-.335.423-.671.645-1l7.57-11.18c.2-.3.4-.6.58-.91-12.39-3.03-25.26-4.63-38.47-4.63z" fill="url(#SVGID_19_)"/></g><g><path d="m112.671 331.678c0-4.142-3.358-7.5-7.5-7.5h-97.671c-4.142 0-7.5 3.358-7.5 7.5s3.358 7.5 7.5 7.5h97.671c4.142 0 7.5-3.358 7.5-7.5z" fill="url(#SVGID_20_)"/><path d="m112.435 371.451-88.254 41.844c-3.743 1.774-5.338 6.247-3.563 9.99 1.283 2.705 3.975 4.289 6.782 4.289 1.077 0 2.17-.233 3.208-.725l88.254-41.844c3.743-1.774 5.338-6.247 3.563-9.99s-6.25-5.337-9.99-3.564z" fill="url(#SVGID_21_)"/><path d="m24.181 250.06 88.254 41.844c1.038.492 2.131.725 3.208.725 2.807 0 5.499-1.584 6.782-4.289 1.774-3.743.179-8.215-3.564-9.99l-88.254-41.844c-3.741-1.774-8.215-.179-9.99 3.564-1.774 3.743-.179 8.216 3.564 9.99z" fill="url(#SVGID_22_)"/></g><g><path d="m502.5 324.178h-97.672c-4.143 0-7.5 3.358-7.5 7.5s3.357 7.5 7.5 7.5h97.672c4.143 0 7.5-3.358 7.5-7.5s-3.357-7.5-7.5-7.5z" fill="url(#SVGID_23_)"/><path d="m394.356 292.629c1.077 0 2.171-.233 3.208-.725l88.254-41.844c3.743-1.774 5.339-6.247 3.564-9.99-1.776-3.744-6.252-5.34-9.99-3.564l-88.254 41.844c-3.743 1.774-5.339 6.247-3.564 9.99 1.283 2.706 3.976 4.289 6.782 4.289z" fill="url(#SVGID_24_)"/><path d="m485.818 413.295-88.254-41.844c-3.738-1.774-8.215-.179-9.989 3.563-1.775 3.743-.18 8.216 3.563 9.99l88.254 41.844c1.037.492 2.131.725 3.208.725 2.807 0 5.499-1.584 6.781-4.289 1.776-3.742.181-8.214-3.563-9.989z" fill="url(#SVGID_25_)"/></g></g></svg>