<svg id="Capa_1" enable-background="new 0 0 510 510" height="512" viewBox="0 0 510 510" width="512" xmlns="http://www.w3.org/2000/svg" xmlns:xlink="http://www.w3.org/1999/xlink"><linearGradient id="lg1"><stop offset="0" stop-color="#01bffa"/><stop offset=".2539" stop-color="#1f9efc"/><stop offset=".5724" stop-color="#407afd"/><stop offset=".8326" stop-color="#5464ff"/><stop offset="1" stop-color="#5b5cff"/></linearGradient><linearGradient id="SVGID_1_" gradientUnits="userSpaceOnUse" x1="110" x2="580.106" xlink:href="#lg1" y1="217.273" y2="217.273"/><linearGradient id="SVGID_2_" gradientUnits="userSpaceOnUse" x1="65.627" x2="304.346" xlink:href="#lg1" y1="42.789" y2="42.789"/><linearGradient id="SVGID_3_" gradientUnits="userSpaceOnUse" x1="65.627" x2="304.346" xlink:href="#lg1" y1="391.758" y2="391.758"/><linearGradient id="SVGID_4_" gradientUnits="userSpaceOnUse" x1="65.627" x2="304.346" xlink:href="#lg1" y1="106.545" y2="106.545"/><linearGradient id="SVGID_5_" gradientUnits="userSpaceOnUse" x1="65.627" x2="304.346" xlink:href="#lg1" y1="328.001" y2="328.001"/><linearGradient id="SVGID_6_" gradientUnits="userSpaceOnUse" x1="65.627" x2="304.346" xlink:href="#lg1" y1="217.273" y2="217.273"/><linearGradient id="lg2"><stop offset="0" stop-color="#01d0fb"/><stop offset=".6075" stop-color="#26a6fe"/><stop offset="1" stop-color="#0182fc"/></linearGradient><linearGradient id="SVGID_7_" gradientUnits="userSpaceOnUse" x1="44" x2="495.008" xlink:href="#lg2" y1="217.273" y2="217.273"/><linearGradient id="SVGID_9_" gradientUnits="userSpaceOnUse" x1="53.627" x2="518.248" xlink:href="#lg1" y1="217.273" y2="217.273"/><linearGradient id="SVGID_10_" gradientUnits="userSpaceOnUse" x1="-28.869" x2="269.944" xlink:href="#lg2" y1="217.273" y2="217.273"/><linearGradient id="lg3"><stop offset="0" stop-color="#ffe177"/><stop offset="1" stop-color="#feb237"/></linearGradient><linearGradient id="SVGID_11_" gradientUnits="userSpaceOnUse" x1="181" x2="336.116" xlink:href="#lg3" y1="357.271" y2="357.271"/><linearGradient id="SVGID_12_" gradientUnits="userSpaceOnUse" x1="-50" x2="271.076" xlink:href="#lg3" y1="357.27" y2="357.27"/><linearGradient id="lg4"><stop offset="0" stop-color="#feb237"/><stop offset="1" stop-color="#fd6930"/></linearGradient><linearGradient id="SVGID_13_" gradientUnits="userSpaceOnUse" x1="205.091" x2="328.222" xlink:href="#lg4" y1="217.273" y2="217.273"/><linearGradient id="SVGID_14_" gradientUnits="userSpaceOnUse" x1="101.625" x2="293.902" xlink:href="#lg4" y1="217.273" y2="217.273"/><linearGradient id="SVGID_15_" gradientUnits="userSpaceOnUse" x1="1.602" x2="542.603" y1="478.077" y2="478.077"><stop offset="0" stop-color="#fff9df"/><stop offset=".593" stop-color="#ffe177"/><stop offset="1" stop-color="#feb237"/></linearGradient><linearGradient id="SVGID_16_" gradientUnits="userSpaceOnUse" x1="175.121" x2="379.309" xlink:href="#lg3" y1="478.077" y2="478.077"/><g><g><path d="m430.215 199.773h-132.966l94.021-94.021c8.599-8.599 10.029-21.109 3.195-27.944-6.835-6.834-19.346-5.403-27.944 3.195l-94.021 94.021v-132.966c0-12.16-7.835-22.018-17.5-22.018-9.665.001-17.5 9.859-17.5 22.018v132.966l-94.021-94.021c-8.599-8.598-21.109-10.029-27.944-3.195-3.417 3.417-4.768 8.254-4.19 13.31.578 5.057 3.085 10.334 7.385 14.634l94.021 94.021h-132.966c-12.16 0-22.018 7.835-22.018 17.5 0 4.833 2.465 9.208 6.449 12.374 3.984 3.167 9.489 5.126 15.569 5.126h132.966l-94.021 94.021c-8.599 8.599-10.029 21.109-3.195 27.944 3.417 3.417 8.254 4.768 13.31 4.19 5.057-.578 10.334-3.085 14.634-7.385l94.021-94.021v132.966c0 12.16 7.835 22.018 17.5 22.018 4.833 0 9.208-2.465 12.374-6.449 3.167-3.984 5.126-9.489 5.126-15.569v-132.966l94.021 94.021c8.599 8.599 21.109 10.029 27.944 3.195 6.834-6.835 5.403-19.346-3.195-27.944l-94.021-94.021h132.966c12.16 0 22.018-7.835 22.018-17.5s-9.858-17.5-22.018-17.5z" fill="url(#SVGID_1_)"/><g><path d="m255 20.043c-9.67 0-17.5 9.85-17.5 22.01v14.51c12.15 1.69 23.86 4.73 35 8.97v-23.48c0-12.16-7.84-22.01-17.5-22.01z" fill="url(#SVGID_2_)"/><path d="m237.5 392.493c0 12.16 7.84 22.01 17.5 22.01 4.83 0 9.21-2.46 12.37-6.45 3.17-3.98 5.13-9.48 5.13-15.56v-23.48c-11.14 4.24-22.85 7.28-35 8.97z" fill="url(#SVGID_3_)"/><path d="m381.4 115.623 9.87-9.87c8.6-8.6 10.03-21.11 3.2-27.95-6.84-6.83-19.35-5.4-27.95 3.2l-29.47 29.47c7.8 8.9 14.65 18.67 20.37 29.13z" fill="url(#SVGID_4_)"/><path d="m381.4 318.923-23.98-23.98c-5.72 10.46-12.57 20.23-20.37 29.13l19.6 19.6 9.87 9.87c8.6 8.6 21.11 10.03 27.95 3.19 6.83-6.83 5.4-19.34-3.2-27.94z" fill="url(#SVGID_5_)"/><path d="m430.22 199.773h-53.91c.62 5.75.94 11.59.94 17.5s-.32 11.75-.94 17.5h53.91c12.16 0 22.01-7.84 22.01-17.5 0-9.67-9.86-17.5-22.01-17.5z" fill="url(#SVGID_6_)"/></g><path d="m255 434.547c-58.036 0-112.598-22.601-153.636-63.638-41.037-41.038-63.638-95.6-63.638-153.636s22.601-112.599 63.638-153.636c41.038-41.036 95.6-63.637 153.636-63.637s112.598 22.601 153.636 63.638c41.037 41.037 63.638 95.6 63.638 153.636s-22.601 112.598-63.638 153.636c-41.038 41.036-95.6 63.637-153.636 63.637zm0-379.547c-89.478 0-162.273 72.796-162.273 162.273s72.795 162.274 162.273 162.274 162.273-72.796 162.273-162.273-72.795-162.274-162.273-162.274z" fill="url(#SVGID_7_)"/><path d="m255 434.547c-58.036 0-112.598-22.601-153.636-63.638-41.037-41.038-63.638-95.6-63.638-153.636s22.601-112.599 63.638-153.636c41.038-41.036 95.6-63.637 153.636-63.637s112.598 22.601 153.636 63.638c41.037 41.037 63.638 95.6 63.638 153.636s-22.601 112.598-63.638 153.636c-41.038 41.036-95.6 63.637-153.636 63.637zm0-379.547c-89.478 0-162.273 72.796-162.273 162.273s72.795 162.274 162.273 162.274 162.273-72.796 162.273-162.273-72.795-162.274-162.273-162.274z" fill="url(#SVGID_7_)"/><path d="m408.64 63.633c-41.04-41.03-95.6-63.63-153.64-63.63-6.72 0-13.4.3-20.01.91 50.49 4.57 97.34 26.44 133.63 62.72 41.03 41.04 63.63 95.6 63.63 153.64s-22.6 112.6-63.63 153.64c-36.29 36.28-83.14 58.15-133.63 62.72 6.61.61 13.29.91 20.01.91 58.04 0 112.6-22.6 153.64-63.63 41.03-41.04 63.63-95.6 63.63-153.64s-22.6-112.6-63.63-153.64z" fill="url(#SVGID_9_)"/><path d="m92.727 217.273c0-85.27 66.111-155.39 149.768-161.796-4.128-.316-8.299-.477-12.506-.477-89.478 0-162.273 72.796-162.273 162.273s72.795 162.273 162.273 162.273c4.207 0 8.378-.161 12.506-.478-83.658-6.404-149.768-76.524-149.768-161.795z" fill="url(#SVGID_10_)"/></g><path d="m353.63 474.582h-197.26l63.55-234.622h70.16z" fill="url(#SVGID_11_)"/><path d="m353.63 474.58h-40.02l-46.121-170.284c-1.511-5.581-6.608-9.363-12.39-9.356-.033 0-.066 0-.1 0-17.17 0-33.04-5.57-45.9-15.02l10.82-39.96h70.16l10.82 39.96z" fill="url(#SVGID_12_)"/><circle cx="255" cy="217.273" fill="url(#SVGID_13_)" r="53.95"/><path d="m255 163.324c-4.307 0-8.49.52-12.505 1.473 23.763 5.643 41.444 26.988 41.444 52.477s-17.682 46.834-41.444 52.477c4.015.953 8.199 1.473 12.505 1.473 29.796 0 53.95-24.154 53.95-53.95s-24.154-53.95-53.95-53.95z" fill="url(#SVGID_14_)"/><g><path d="m478.077 510h-446.154c-17.631 0-31.923-14.292-31.923-31.923 0-17.63 14.292-31.923 31.923-31.923h446.154c17.63 0 31.923 14.292 31.923 31.923 0 17.631-14.292 31.923-31.923 31.923z" fill="url(#SVGID_15_)"/><path d="m478.077 446.155h-41.025c17.63 0 31.923 14.292 31.923 31.923 0 17.63-14.292 31.923-31.923 31.923h41.025c17.63 0 31.923-14.292 31.923-31.923 0-17.631-14.292-31.923-31.923-31.923z" fill="url(#SVGID_16_)"/></g></g></svg>