<svg id="Capa_1" enable-background="new 0 0 510.002 510.002" height="512" viewBox="0 0 510.002 510.002" width="512" xmlns="http://www.w3.org/2000/svg" xmlns:xlink="http://www.w3.org/1999/xlink"><linearGradient id="lg1"><stop offset="0" stop-color="#f8f6f7"/><stop offset=".1788" stop-color="#f8f6f7"/><stop offset="1" stop-color="#e7e6f5"/></linearGradient><linearGradient id="SVGID_1_" gradientUnits="userSpaceOnUse" x1="47.155" x2="456.637" xlink:href="#lg1" y1="396.473" y2="396.473"/><linearGradient id="lg2"><stop offset="0" stop-color="#f8f6f7"/><stop offset="1" stop-color="#d1ceeb"/></linearGradient><linearGradient id="SVGID_2_" gradientUnits="userSpaceOnUse" x1="47.155" x2="456.638" xlink:href="#lg2" y1="396.471" y2="396.471"/><linearGradient id="lg3"><stop offset="0" stop-color="#fe646f"/><stop offset=".593" stop-color="#fb2b3a"/><stop offset="1" stop-color="#c41926"/></linearGradient><linearGradient id="SVGID_3_" gradientUnits="userSpaceOnUse" x1="-83.453" x2="654.879" xlink:href="#lg3" y1="220.729" y2="220.729"/><linearGradient id="SVGID_5_" gradientUnits="userSpaceOnUse" x1="-148.666" x2="480.782" xlink:href="#lg3" y1="161.022" y2="161.022"/><linearGradient id="SVGID_6_" gradientUnits="userSpaceOnUse" x1="-241.999" x2="426.187" xlink:href="#lg3" y1="220.731" y2="220.731"/><linearGradient id="SVGID_7_" gradientUnits="userSpaceOnUse" x1="92.325" x2="416.087" xlink:href="#lg1" y1="88.651" y2="88.651"/><linearGradient id="SVGID_8_" gradientUnits="userSpaceOnUse" x1="204.668" x2="375.101" xlink:href="#lg2" y1="88.651" y2="88.651"/><linearGradient id="SVGID_9_" gradientUnits="userSpaceOnUse" x1="102.501" x2="249.502" xlink:href="#lg2" y1="24.38" y2="24.38"/><linearGradient id="SVGID_10_" gradientUnits="userSpaceOnUse" x1="102.501" x2="249.502" xlink:href="#lg2" y1="152.922" y2="152.922"/><linearGradient id="lg4"><stop offset="0" stop-color="#01d0fb"/><stop offset=".6075" stop-color="#26a6fe"/><stop offset="1" stop-color="#0182fc"/></linearGradient><linearGradient id="SVGID_11_" gradientUnits="userSpaceOnUse" x1="64.018" x2="318.815" xlink:href="#lg4" y1="414.997" y2="414.997"/><linearGradient id="SVGID_12_" gradientUnits="userSpaceOnUse" x1="297.922" x2="428.882" xlink:href="#lg4" y1="441.002" y2="441.002"/><g><path d="m441.418 510.002h-372.834c-12.472 0-22.582-10.11-22.582-22.582v-204.476h417.998v204.476c0 12.472-10.11 22.582-22.582 22.582z" fill="url(#SVGID_1_)"/><path d="m464.001 282.941v204.48c0 12.471-10.109 22.58-22.58 22.58h-40.02c12.47 0 22.58-10.11 22.58-22.58v-85.621c0-30.408-24.651-55.059-55.059-55.059h-322.921v-63.8z" fill="url(#SVGID_2_)"/><path d="m477.212 321.727h-444.421c-22.33 0-38.118-21.849-31.108-43.05l40.152-121.441c7.402-22.388 28.325-37.507 51.904-37.507h322.525c23.58 0 44.502 15.119 51.904 37.507l40.152 121.441c7.01 21.202-8.778 43.05-31.108 43.05z" fill="url(#SVGID_3_)"/><path d="m477.212 321.727h-444.421c-22.33 0-38.118-21.849-31.108-43.05l40.152-121.441c7.402-22.388 28.325-37.507 51.904-37.507h322.525c23.58 0 44.502 15.119 51.904 37.507l40.152 121.441c7.01 21.202-8.778 43.05-31.108 43.05z" fill="url(#SVGID_3_)"/><path d="m132.762 202.187c28.101 2.012 51.523-20.19 51.523-47.862 0-.259-.021-.513-.025-.771h91.461c-.004.258-.025.512-.025.771 0 27.672 23.422 49.874 51.523 47.862 23.571-1.687 42.62-20.723 44.326-44.292.896-12.379-2.911-23.847-9.813-32.809-1.274-1.654-2.232-3.466-2.882-5.356h-257.719c-.65 1.89-1.607 3.701-2.882 5.356-6.903 8.962-10.709 20.429-9.813 32.809 1.706 23.569 20.756 42.604 44.326 44.292z" fill="url(#SVGID_5_)"/><path d="m508.321 278.681-40.15-121.44c-7.41-22.39-28.33-37.51-51.91-37.51h-40.02c23.58 0 44.5 15.12 51.91 37.51l40.15 121.44c.319.965.591 1.932.817 2.897 1.816 7.752-4.199 15.143-12.16 15.143-6.252 0-11.535-4.637-12.345-10.836l-9.418-72.005c-.814-6.224-6.118-10.879-12.394-10.879h-.007c-7.547 0-13.373 6.638-12.394 14.121l4.855 37.116c2.945 22.514-14.582 42.483-37.288 42.483h-18.411l-5.536-82.061c-.443-6.562-5.895-11.659-12.472-11.659h-.002c-7.235 0-12.959 6.124-12.472 13.342l2.718 40.237c1.467 21.717-15.754 40.14-37.52 40.14h-26.769v-81.22c0-6.904-5.596-12.5-12.5-12.5-6.904 0-12.5 5.596-12.5 12.5v43.614c0 20.769-16.837 37.606-37.606 37.606h-29.397l5.429-80.378c.488-7.219-5.236-13.342-12.472-13.342h-.002c-6.577 0-12.029 5.097-12.472 11.659l-3.17 46.987c-1.332 19.742-17.734 35.074-37.52 35.074h-26.101l10.412-79.599c.979-7.484-4.847-14.121-12.394-14.121h-.007c-6.277 0-11.58 4.655-12.394 10.879l-6.555 50.113c-2.449 18.724-18.404 32.728-37.288 32.728h-30.025c3.42 13.98 15.98 25.01 31.85 25.01h444.42c15.87 0 28.43-11.03 31.85-25.01 1.41-5.709 1.29-11.899-.74-18.039z" fill="url(#SVGID_6_)"/><g><path d="m386.742 77.228c6.903-8.962 10.709-20.429 9.813-32.809-1.706-23.569-20.756-42.605-44.326-44.292-28.101-2.011-51.522 20.19-51.522 47.862 0 .259.021.513.025.771h-91.461c.004-.258.025-.512.025-.771 0-27.672-23.422-49.874-51.522-47.862-23.571 1.687-42.621 20.723-44.326 44.292-.896 12.379 2.911 23.847 9.813 32.809 5.199 6.75 5.199 16.097 0 22.847-6.903 8.962-10.709 20.429-9.813 32.808 1.706 23.569 20.755 42.605 44.326 44.293 28.101 2.012 51.523-20.19 51.523-47.862 0-.259-.021-.513-.025-.771h91.461c-.004.258-.025.512-.025.771 0 27.672 23.422 49.874 51.523 47.862 23.571-1.687 42.621-20.723 44.326-44.293.896-12.379-2.911-23.847-9.813-32.808-5.202-6.751-5.202-16.097-.002-22.847z" fill="url(#SVGID_7_)"/><path d="m386.742 77.228c6.903-8.962 10.709-20.429 9.813-32.809-1.706-23.57-20.756-42.605-44.326-44.292-8.443-.604-16.457.99-23.547 4.249 15.463 7.141 26.569 22.307 27.853 40.043.896 12.379-2.911 23.847-9.813 32.809-5.199 6.75-5.199 16.097 0 22.847 6.903 8.962 10.709 20.429 9.813 32.809-1.283 17.737-12.39 32.903-27.853 40.043 7.09 3.259 15.104 4.854 23.547 4.249 23.571-1.687 42.621-20.723 44.326-44.292.896-12.379-2.911-23.847-9.813-32.809-5.2-6.751-5.2-16.097 0-22.847z" fill="url(#SVGID_8_)"/><g><path d="m182.161 33.831c2.6 8.428 10.077 14.404 18.893 14.676l8.217.254c.008-.007.012-.011.019-.019.429-28.021-23.161-50.644-51.516-48.615-3.083.221-6.086.745-8.985 1.531 15.9 4.277 28.539 16.51 33.372 32.173z" fill="url(#SVGID_9_)"/><path d="m201.054 128.796c-8.816.272-16.292 6.248-18.893 14.676-4.832 15.662-17.472 27.896-33.373 32.173 2.9.786 5.902 1.31 8.985 1.531 28.355 2.03 51.946-20.594 51.517-48.615-.008-.007-.012-.011-.019-.019z" fill="url(#SVGID_10_)"/></g></g><g><path d="m248.978 457.992h-136.32c-10.957 0-19.84-8.883-19.84-19.84v-46.311c0-10.957 8.883-19.84 19.84-19.84h136.32c10.957 0 19.84 8.883 19.84 19.84v46.311c0 10.957-8.883 19.84-19.84 19.84z" fill="url(#SVGID_11_)"/><path d="m312.724 510.002h90.46v-119.142c0-10.415-8.443-18.859-18.859-18.859h-52.743c-10.415 0-18.859 8.443-18.859 18.859v119.142z" fill="url(#SVGID_12_)"/></g></g></svg>