<svg id="Capa_1" enable-background="new 0 0 510.002 510.002" height="512" viewBox="0 0 510.002 510.002" width="512" xmlns="http://www.w3.org/2000/svg" xmlns:xlink="http://www.w3.org/1999/xlink"><linearGradient id="SVGID_1_" gradientUnits="userSpaceOnUse" x1="61.001" x2="366.475" y1="229.842" y2="229.842"><stop offset="0" stop-color="#f8f6f7"/><stop offset=".1788" stop-color="#f8f6f7"/><stop offset="1" stop-color="#e7e6f5"/></linearGradient><linearGradient id="lg1"><stop offset="0" stop-color="#f8f6f7"/><stop offset="1" stop-color="#d1ceeb"/></linearGradient><linearGradient id="SVGID_2_" gradientUnits="userSpaceOnUse" x1="78.168" x2="509.01" xlink:href="#lg1" y1="229.842" y2="229.842"/><linearGradient id="SVGID_3_" gradientUnits="userSpaceOnUse" x1="-108.364" x2="466.111" xlink:href="#lg1" y1="175.359" y2="175.359"/><linearGradient id="SVGID_4_" gradientUnits="userSpaceOnUse" x1="-172.86" x2="181.201" xlink:href="#lg1" y1="175.364" y2="175.364"/><linearGradient id="lg2"><stop offset="0" stop-color="#b0e7c9"/><stop offset=".593" stop-color="#46cc8d"/><stop offset="1" stop-color="#0ab69f"/></linearGradient><linearGradient id="SVGID_5_" gradientUnits="userSpaceOnUse" x1="-14.666" x2="165.65" xlink:href="#lg2" y1="377.377" y2="377.377"/><linearGradient id="lg3"><stop offset="0" stop-color="#46cc8d"/><stop offset=".5484" stop-color="#0ab69f"/><stop offset="1" stop-color="#01998d"/></linearGradient><linearGradient id="SVGID_6_" gradientUnits="userSpaceOnUse" x1="15.335" x2="204.266" xlink:href="#lg3" y1="377.378" y2="377.378"/><linearGradient id="SVGID_7_" gradientUnits="userSpaceOnUse" x1="101.335" x2="266.734" xlink:href="#lg2" y1="435.26" y2="435.26"/><linearGradient id="SVGID_8_" gradientUnits="userSpaceOnUse" x1="124.001" x2="326.738" xlink:href="#lg3" y1="435.26" y2="435.26"/><linearGradient id="SVGID_9_" gradientUnits="userSpaceOnUse" x1="-11.332" x2="229.571" xlink:href="#lg3" y1="412.528" y2="412.528"/><linearGradient id="SVGID_10_" gradientUnits="userSpaceOnUse" x1="-11.332" x2="229.571" xlink:href="#lg3" y1="457.992" y2="457.992"/><linearGradient id="SVGID_11_" gradientUnits="userSpaceOnUse" x1="-11.332" x2="229.571" xlink:href="#lg3" y1="299.962" y2="299.962"/><linearGradient id="SVGID_12_" gradientUnits="userSpaceOnUse" x1="-11.332" x2="229.571" xlink:href="#lg3" y1="345.427" y2="345.427"/><g><path d="m159.569 17.445-91.852 249.525 175.27 175.269 249.524-91.852z" fill="url(#SVGID_1_)"/><path d="m159.569 17.445c-15.789 42.892-7.681 90.878 21.155 126.34 17.437 21.444 37.546 43.757 59.754 65.965 27.05 27.05 54.257 50.987 79.859 70.774 40.128 31.012 30.608 93.994-16.984 111.513l-80.818 29.75 20.452 20.452 249.525-91.852z" fill="url(#SVGID_2_)"/><path d="m504.386 345.103c-24.219 24.219-119.849-32.145-213.596-125.891s-150.111-189.378-125.892-213.597 119.849 32.145 213.596 125.892 150.111 189.377 125.892 213.596z" fill="url(#SVGID_3_)"/><path d="m378.494 131.507c-92.873-92.873-187.582-149.042-212.887-126.534 42.394 14.818 108.077 61.743 172.868 126.533 93.747 93.747 150.11 189.377 125.891 213.596-.226.226-.47.43-.708.642 18.947 6.623 33.247 6.839 40.728-.642 24.219-24.218-32.145-119.848-125.892-213.595z" fill="url(#SVGID_4_)"/><path d="m193.528 500.65-184.177-184.177c-12.467-12.467-12.467-32.679 0-45.146l17.224-17.224c12.467-12.467 32.679-12.467 45.146 0l184.177 184.177c12.467 12.467 12.467 32.679 0 45.146l-17.224 17.224c-12.467 12.467-32.679 12.467-45.146 0z" fill="url(#SVGID_5_)"/><path d="m255.901 483.43-17.23 17.22c-9.48 9.49-23.45 11.76-35.07 6.8-3.66-1.55-7.09-3.82-10.07-6.8l-19-19-68.41-68.41c-12.468-12.468-12.468-32.682 0-45.15l17.22-17.22c.036-.036.072-.072.109-.108 5.491-5.44 5.698-14.225.232-19.691l-76.971-76.971c-2.98-2.98-6.41-5.25-10.07-6.8 11.63-4.95 25.59-2.68 35.08 6.8l96.77 96.77 68.41 68.41 19 19c12.46 12.47 12.46 32.68 0 45.15z" fill="url(#SVGID_6_)"/><path d="m193.528 500.65-68.411-68.411c-12.467-12.467-12.467-32.679 0-45.146l17.224-17.224c12.467-12.467 32.679-12.467 45.146 0l68.411 68.411c12.467 12.467 12.467 32.679 0 45.146l-17.224 17.224c-12.467 12.467-32.679 12.467-45.146 0z" fill="url(#SVGID_7_)"/><path d="m255.898 438.28-68.411-68.411c-9.484-9.484-23.449-11.745-35.078-6.798 3.657 1.555 7.085 3.816 10.067 6.798l68.411 68.411c12.467 12.467 12.467 32.679 0 45.146l-17.224 17.224c-2.982 2.982-6.411 5.243-10.067 6.798 11.629 4.947 25.594 2.686 35.078-6.798l17.224-17.224c12.466-12.467 12.466-32.679 0-45.146z" fill="url(#SVGID_8_)"/><g><circle cx="167.775" cy="412.528" fill="url(#SVGID_9_)" r="17.027"/><circle cx="213.24" cy="457.992" fill="url(#SVGID_10_)" r="17.027"/><circle cx="55.21" cy="299.962" fill="url(#SVGID_11_)" r="17.027"/><circle cx="100.674" cy="345.427" fill="url(#SVGID_12_)" r="17.027"/></g></g></svg>