<svg id="Capa_1" enable-background="new 0 0 510 510" height="512" viewBox="0 0 510 510" width="512" xmlns="http://www.w3.org/2000/svg" xmlns:xlink="http://www.w3.org/1999/xlink"><linearGradient id="SVGID_1_" gradientUnits="userSpaceOnUse" x1="150.469" x2="443.819" y1="271.959" y2="271.959"><stop offset="0" stop-color="#f8f6f7"/><stop offset=".1788" stop-color="#f8f6f7"/><stop offset="1" stop-color="#e7e6f5"/></linearGradient><linearGradient id="SVGID_2_" gradientUnits="userSpaceOnUse" x1="151.434" x2="421.275" y1="271.959" y2="271.959"><stop offset="0" stop-color="#f8f6f7"/><stop offset="1" stop-color="#d1ceeb"/></linearGradient><linearGradient id="SVGID_3_" gradientUnits="userSpaceOnUse" x1="172.074" x2="404.792" y1="322.99" y2="322.99"><stop offset="0" stop-color="#01d0fb"/><stop offset=".6075" stop-color="#26a6fe"/><stop offset="1" stop-color="#0182fc"/></linearGradient><linearGradient id="lg1"><stop offset="0" stop-color="#01bffa"/><stop offset=".2539" stop-color="#1f9efc"/><stop offset=".5724" stop-color="#407afd"/><stop offset=".8326" stop-color="#5464ff"/><stop offset="1" stop-color="#5b5cff"/></linearGradient><linearGradient id="SVGID_4_" gradientUnits="userSpaceOnUse" x1="131.543" x2="487.408" xlink:href="#lg1" y1="183.897" y2="183.897"/><linearGradient id="SVGID_5_" gradientUnits="userSpaceOnUse" x1="131.543" x2="487.408" xlink:href="#lg1" y1="325.955" y2="325.955"/><linearGradient id="lg2"><stop offset="0" stop-color="#537983"/><stop offset=".593" stop-color="#554e56"/><stop offset="1" stop-color="#433f43"/></linearGradient><linearGradient id="SVGID_6_" gradientUnits="userSpaceOnUse" x1="153.333" x2="406.844" xlink:href="#lg2" y1="367.381" y2="367.381"/><linearGradient id="SVGID_7_" gradientUnits="userSpaceOnUse" x1="153.333" x2="406.844" xlink:href="#lg2" y1="318.479" y2="318.479"/><linearGradient id="SVGID_9_" gradientUnits="userSpaceOnUse" x1="153.333" x2="406.844" xlink:href="#lg2" y1="265.361" y2="265.361"/><linearGradient id="SVGID_11_" gradientUnits="userSpaceOnUse" x1="219" x2="350.381" xlink:href="#lg2" y1="318.479" y2="318.479"/><linearGradient id="lg3"><stop offset="0" stop-color="#fff9df"/><stop offset=".593" stop-color="#ffe177"/><stop offset="1" stop-color="#feb237"/></linearGradient><linearGradient id="SVGID_12_" gradientUnits="userSpaceOnUse" x1="160.286" x2="375.042" xlink:href="#lg3" y1="30.254" y2="30.254"/><linearGradient id="SVGID_13_" gradientUnits="userSpaceOnUse" x1="150.286" x2="344.296" xlink:href="#lg3" y1="30.254" y2="30.254"/><g><g><path d="m340.03 70.458c0-20.181-16.36-36.54-36.54-36.54h-96.98c-20.181 0-36.54 16.36-36.54 36.54 0 21.638-12.036 41.48-31.227 51.478-19.19 9.998-31.227 29.84-31.227 51.478v303.666c0 18.181 14.739 32.92 32.92 32.92h229.127c18.181 0 32.92-14.739 32.92-32.92v-303.666c0-21.638-12.036-41.48-31.227-51.478-19.19-9.997-31.226-29.839-31.226-51.478z" fill="url(#SVGID_1_)"/><path d="m371.257 121.936c-19.19-9.998-31.227-29.84-31.227-51.478 0-20.181-16.36-36.54-36.54-36.54l-96.983.002c-16.73 0-30.83 11.24-35.16 26.59-.9 3.16-1.38 6.5-1.38 9.95 0 5.16-.68 10.21-1.99 15.06h105.369c15.127 0 29.117 7.443 38.142 19.582 5.137 6.91 11.833 12.71 19.749 16.834 19.19 9.998 31.227 29.84 31.227 51.478v303.666c0 18.181-14.739 32.92-32.92 32.92h40.02c18.181 0 32.92-14.739 32.92-32.92v-303.666c-.001-21.638-12.037-41.48-31.227-51.478z" fill="url(#SVGID_2_)"/><path d="m372 186.93v225.59c0 37.809-30.651 68.46-68.46 68.46h-97.08c-37.809 0-68.46-30.651-68.46-68.46v-225.59c0-.057 0-.114 0-.172.037-9.885 7.183-18.413 16.887-20.297 5.015-.974 10.104-1.461 15.193-1.461 18.31 0 36.63 6.31 51.48 18.91 29.7 25.2 73.28 25.2 102.98 0 9.035-7.672 19.4-11.802 29.825-12.893 9.328-.976 17.602 6.374 17.634 15.753.001.053.001.106.001.16z" fill="url(#SVGID_3_)"/><g><path d="m184.26 183.91c19.927 16.908 46.1 22.453 70.14 16.672-11.789-2.835-23.068-8.38-32.84-16.672-14.85-12.6-33.17-18.91-51.48-18.91-5.089 0-10.178.488-15.193 1.461-1.061.206-2.085.505-3.079.863 11.647 2.866 22.786 8.384 32.452 16.586z" fill="url(#SVGID_4_)"/><path d="m372 186.769c-.033-9.379-8.306-16.729-17.634-15.753-7.572.793-15.11 3.197-22.131 7.389 1.539 2.422 2.455 5.279 2.466 8.364v.16 225.59c0 37.809-30.651 68.46-68.46 68.46h37.3c37.809 0 68.46-30.651 68.46-68.46v-225.589c-.001-.054-.001-.107-.001-.161z" fill="url(#SVGID_5_)"/><g><path d="m255 311.063c-18.625 0-36.135 7.253-49.305 20.423s-20.423 30.68-20.423 49.305c0 11.584 2.902 23.059 8.392 33.186 2.642 4.873 7.272 8.286 12.703 9.364 5.396 1.071 10.936-.3 15.2-3.763 9.547-7.754 21.108-11.852 33.433-11.852s23.886 4.098 33.433 11.852c3.315 2.692 7.401 4.12 11.591 4.12 1.696 0 3.41-.234 5.096-.713 4.941-1.405 9.021-4.889 11.438-9.421 5.481-10.277 8.303-21.887 8.165-33.609-.218-18.513-7.561-35.845-20.676-48.802-13.113-12.955-30.531-20.09-49.047-20.09z" fill="url(#SVGID_6_)"/><circle cx="177.235" cy="318.479" fill="url(#SVGID_7_)" r="24.647"/><circle cx="332.765" cy="318.479" fill="url(#SVGID_7_)" r="24.647"/><g fill="url(#SVGID_9_)"><circle cx="291.145" cy="265.361" r="24.647"/><circle cx="218.855" cy="265.361" r="24.647"/></g></g><path d="m334.7 293.914v49.129c12.707-.988 22.712-11.604 22.712-24.565 0-12.96-10.005-23.576-22.712-24.564z" fill="url(#SVGID_11_)"/></g></g><path d="m325.97 60.507h-141.551c-12.325 0-22.316-9.991-22.316-22.316v-15.875c0-12.325 9.991-22.316 22.316-22.316h141.551c12.325 0 22.316 9.991 22.316 22.316v15.875c0 12.325-9.991 22.316-22.316 22.316z" fill="url(#SVGID_12_)"/><path d="m325.97 0h-40.02c12.325 0 22.316 9.991 22.316 22.316v15.875c0 12.325-9.991 22.316-22.316 22.316h40.02c12.325 0 22.316-9.991 22.316-22.316v-15.875c0-12.325-9.991-22.316-22.316-22.316z" fill="url(#SVGID_13_)"/></g></svg>