<svg id="Capa_1" enable-background="new 0 0 510 510" height="512" viewBox="0 0 510 510" width="512" xmlns="http://www.w3.org/2000/svg" xmlns:xlink="http://www.w3.org/1999/xlink"><linearGradient id="lg1"><stop offset="0" stop-color="#fe646f"/><stop offset=".593" stop-color="#fb2b3a"/><stop offset="1" stop-color="#c41926"/></linearGradient><linearGradient id="SVGID_1_" gradientUnits="userSpaceOnUse" x1="24.176" x2="232.214" xlink:href="#lg1" y1="98.087" y2="98.087"/><linearGradient id="SVGID_2_" gradientUnits="userSpaceOnUse" x1="-79.824" x2="183.814" xlink:href="#lg1" y1="98.085" y2="98.085"/><linearGradient id="SVGID_3_" gradientUnits="userSpaceOnUse" x1="337.176" x2="481.36" xlink:href="#lg1" y1="98.193" y2="98.193"/><linearGradient id="SVGID_4_" gradientUnits="userSpaceOnUse" x1="224.176" x2="452.527" xlink:href="#lg1" y1="98.245" y2="98.245"/><linearGradient id="SVGID_5_" gradientUnits="userSpaceOnUse" x1="46.559" x2="449.838" y1="310.759" y2="310.759"><stop offset="0" stop-color="#fff9df"/><stop offset=".593" stop-color="#ffe177"/><stop offset="1" stop-color="#feb237"/></linearGradient><linearGradient id="lg2"><stop offset="0" stop-color="#ffe177"/><stop offset="1" stop-color="#feb237"/></linearGradient><linearGradient id="SVGID_6_" gradientUnits="userSpaceOnUse" x1="201.176" x2="394.385" xlink:href="#lg2" y1="310.759" y2="310.759"/><linearGradient id="SVGID_7_" gradientUnits="userSpaceOnUse" x1="162.197" x2="441.302" xlink:href="#lg2" y1="310.759" y2="310.759"/><linearGradient id="SVGID_8_" gradientUnits="userSpaceOnUse" x1="37.777" x2="333.399" xlink:href="#lg2" y1="310.759" y2="310.759"/><linearGradient id="lg3"><stop offset="0" stop-color="#feb237"/><stop offset="1" stop-color="#fd6930"/></linearGradient><linearGradient id="SVGID_9_" gradientUnits="userSpaceOnUse" x1="154.176" x2="407.176" xlink:href="#lg3" y1="349.205" y2="349.205"/><linearGradient id="SVGID_10_" gradientUnits="userSpaceOnUse" x1="154.176" x2="407.176" xlink:href="#lg3" y1="295.755" y2="295.755"/><linearGradient id="SVGID_12_" gradientUnits="userSpaceOnUse" x1="154.176" x2="407.176" xlink:href="#lg3" y1="237.698" y2="237.698"/><linearGradient id="SVGID_14_" gradientUnits="userSpaceOnUse" x1="176.176" x2="327.179" xlink:href="#lg3" y1="294.233" y2="294.233"/><g><path d="m264.583 196.174h-166.491l-95.766-171.296c-6.231-11.144 1.825-24.878 14.593-24.878h123.379c9.021 0 17.337 4.878 21.74 12.752z" fill="url(#SVGID_1_)"/><path d="m264.586 196.17h-166.49l-17.23-30.82c16.262-19.48 35.732-36.197 57.602-49.33 17.183-10.319 23.241-32.284 13.459-49.778l-29.91-53.492c-4.401-7.87-12.721-12.75-21.741-12.75h40.02c9.022 0 17.339 4.879 21.742 12.754l42.828 76.606z" fill="url(#SVGID_2_)"/><path d="m245.277 196.166 166.491.13 95.899-171.221c6.239-11.14-1.806-24.88-14.574-24.89l-123.378-.096c-9.021-.007-17.341 4.865-21.749 12.735z" fill="url(#SVGID_3_)"/><path d="m507.666 25.08-78.41 140-17.49 31.22-40-.03-126.49-.1 59.87-106.89c21.223 4.766 41.319 12.506 59.83 22.759 22.839 12.649 51.642 4.148 64.4-18.63l38.27-68.328c6.24-11.14-1.8-24.88-14.57-24.89h40.02c12.77.009 20.81 13.749 14.57 24.889z" fill="url(#SVGID_4_)"/><g><g><g><g><circle cx="255.176" cy="310.759" fill="url(#SVGID_5_)" r="199.241"/></g><path d="m255.176 111.518c-6.754 0-13.429.34-20.01.997 100.641 10.037 179.231 94.961 179.231 198.244s-78.59 188.207-179.231 198.244c6.581.656 13.256.997 20.01.997 110.038 0 199.241-89.203 199.241-199.241s-89.204-199.241-199.241-199.241z" fill="url(#SVGID_6_)"/><circle cx="255.176" cy="310.759" fill="url(#SVGID_7_)" r="140.726"/><path d="m255.176 170.033c-6.794 0-13.473.492-20.01 1.423 68.242 9.716 120.716 68.377 120.716 139.304s-52.474 129.588-120.716 139.304c6.537.931 13.216 1.423 20.01 1.423 77.721 0 140.726-63.005 140.726-140.726s-63.005-140.728-140.726-140.728z" fill="url(#SVGID_8_)"/></g></g><g><path d="m255.176 287.65c-20.357 0-39.496 7.928-53.89 22.322-14.395 14.395-22.322 33.533-22.322 53.89 0 12.661 3.172 25.203 9.172 36.272 2.887 5.326 7.948 9.056 13.884 10.234 5.897 1.171 11.953-.328 16.613-4.113 10.435-8.475 23.071-12.954 36.542-12.954s26.107 4.479 36.542 12.954c3.623 2.942 8.089 4.503 12.669 4.503 1.854 0 3.727-.256 5.57-.78 5.401-1.535 9.86-5.343 12.502-10.298 5.99-11.233 9.075-23.922 8.924-36.734-.238-20.235-8.264-39.178-22.598-53.34-14.332-14.158-33.371-21.956-53.608-21.956z" fill="url(#SVGID_9_)"/><circle cx="170.18" cy="295.755" fill="url(#SVGID_10_)" r="26.939"/><circle cx="340.172" cy="295.755" fill="url(#SVGID_10_)" r="26.939"/><g fill="url(#SVGID_12_)"><circle cx="294.682" cy="237.698" r="26.939"/><circle cx="215.669" cy="237.698" r="26.939"/></g></g><path d="m367.111 295.755c0-11.374-7.052-21.094-17.02-25.045 3.763 12.694 5.791 26.134 5.791 40.05 0 2.347-.061 4.679-.175 6.998 6.897-4.88 11.404-12.913 11.404-22.003z" fill="url(#SVGID_14_)"/></g></g></svg>