<svg id="Capa_1" enable-background="new 0 0 510 510" height="512" viewBox="0 0 510 510" width="512" xmlns="http://www.w3.org/2000/svg" xmlns:xlink="http://www.w3.org/1999/xlink"><linearGradient id="lg1"><stop offset="0" stop-color="#fbc56d"/><stop offset=".593" stop-color="#dc8758"/><stop offset="1" stop-color="#9e5528"/></linearGradient><linearGradient id="SVGID_1_" gradientTransform="matrix(.707 -.707 .707 .707 -116.245 243.116)" gradientUnits="userSpaceOnUse" x1="210" x2="558.827" xlink:href="#lg1" y1="194.108" y2="194.108"/><linearGradient id="SVGID_2_" gradientTransform="matrix(.707 -.707 .707 .707 -116.245 243.116)" gradientUnits="userSpaceOnUse" x1="139.334" x2="520.491" xlink:href="#lg1" y1="194.111" y2="194.111"/><linearGradient id="SVGID_3_" gradientTransform="matrix(.707 -.707 .707 .707 -116.245 243.116)" gradientUnits="userSpaceOnUse" x1="139.334" x2="520.491" xlink:href="#lg1" y1="222.065" y2="222.065"/><linearGradient id="lg2"><stop offset="0" stop-color="#01d0fb"/><stop offset=".6075" stop-color="#26a6fe"/><stop offset="1" stop-color="#0182fc"/></linearGradient><linearGradient id="SVGID_6_" gradientTransform="matrix(.707 -.707 .707 .707 -116.245 243.116)" gradientUnits="userSpaceOnUse" x1="219.093" x2="431.347" xlink:href="#lg2" y1="330.21" y2="330.21"/><linearGradient id="lg3"><stop offset="0" stop-color="#01bffa"/><stop offset=".2539" stop-color="#1f9efc"/><stop offset=".5724" stop-color="#407afd"/><stop offset=".8326" stop-color="#5464ff"/><stop offset="1" stop-color="#5b5cff"/></linearGradient><linearGradient id="SVGID_7_" gradientTransform="matrix(.707 -.707 .707 .707 -116.245 243.116)" gradientUnits="userSpaceOnUse" x1="110" x2="524.672" xlink:href="#lg3" y1="330.212" y2="330.212"/><linearGradient id="SVGID_8_" gradientTransform="matrix(.707 -.707 .707 .707 70.364 622.826)" gradientUnits="userSpaceOnUse" x1="83.571" x2="699.124" xlink:href="#lg2" y1="-106.715" y2="-106.715"/><linearGradient id="SVGID_9_" gradientTransform="matrix(.707 -.707 .707 .707 -116.245 243.116)" gradientUnits="userSpaceOnUse" x1="250.591" x2="592.353" xlink:href="#lg3" y1="293.733" y2="293.733"/><g><path d="m302.089 22.737c-23.023 0-41.687 18.664-41.687 41.687 0 6.272-5.085 11.357-11.357 11.357-23.023 0-41.687 18.664-41.687 41.687 0 6.272-5.085 11.357-11.357 11.357-23.023 0-41.687 18.664-41.687 41.687 0 6.272-5.085 11.357-11.357 11.357-10.118 0-15.185 12.233-8.031 19.388l79.51 79.51 197.908-197.908-79.51-79.51c-7.155-7.155-19.388-2.087-19.388 8.031.001 6.272-5.084 11.357-11.357 11.357z" fill="url(#SVGID_1_)"/><g><path d="m313.447 11.38c0 6.272-5.085 11.357-11.357 11.357h-.001c-18.956 0-34.946 12.657-40.008 29.978 3.716-1.086 7.642-1.679 11.709-1.679h.001c6.272 0 11.357-5.085 11.357-11.357 0-10.118 12.233-15.185 19.388-8.031l79.509 79.509 28.298-28.298-79.508-79.51c-7.155-7.154-19.388-2.087-19.388 8.031z" fill="url(#SVGID_2_)"/><g fill="url(#SVGID_3_)"><path d="m298 88.634c-2.44 2.44-3.663 5.643-3.663 8.839.007 3.203 1.23 6.407 3.67 8.846l45.439 45.439 17.685-17.685-45.439-45.439c-4.886-4.886-12.806-4.886-17.692 0z"/><path d="m249.344 137.29c-2.44 2.44-3.663 5.643-3.663 8.839.007 3.203 1.231 6.406 3.67 8.846l45.439 45.439 17.685-17.685-45.439-45.439c-4.886-4.886-12.806-4.886-17.692 0z"/><path d="m200.695 185.939c-2.447 2.447-3.663 5.643-3.67 8.846.007 3.203 1.23 6.406 3.67 8.846l45.439 45.439 17.685-17.685-45.439-45.439c-4.886-4.886-12.806-4.886-17.685-.007z"/></g></g><path d="m447.835 107.491c36.329 36.329 19.045 112.514-38.605 170.163s-133.834 74.934-170.163 38.605 172.44-245.097 208.768-208.768z" fill="url(#SVGID_6_)"/><path d="m447.836 107.486c10.465 10.465 16.483 24.233 18.364 39.916 1.414 11.781.502 24.643-2.616 37.986-7.128 30.575-25.788 63.703-54.355 92.27-4.801 4.801-9.73 9.32-14.757 13.541 7.124-8.449 13.433-17.167 18.892-25.992 6.623-10.708-7.618-21.981-16.521-13.078l-79.877 79.877c-13.343 3.118-26.205 4.031-37.993 2.623-15.676-1.888-29.444-7.905-39.909-18.371-16.518-16.518 17.642-68.681 63.215-117.252 54.658-58.251 125.751-111.326 145.557-91.52z" fill="url(#SVGID_7_)"/><g><path d="m463.03 150.207-349.154 349.155c-14.185 14.185-37.182 14.185-51.367 0l-19.598-19.598c-14.185-14.185-14.185-37.182 0-51.367l349.155-349.154c19.596-19.596 51.368-19.596 70.964 0 19.596 19.596 19.596 51.368 0 70.964z" fill="url(#SVGID_8_)"/></g><path d="m392.066 79.243-28.298 28.298c19.596-19.596 51.368-19.596 70.964 0 19.596 19.596 19.596 51.368 0 70.965l28.298-28.298c19.596-19.596 19.596-51.368 0-70.965-19.596-19.597-51.368-19.597-70.964 0z" fill="url(#SVGID_9_)"/></g></svg>