<svg id="Capa_1" enable-background="new 0 0 510 510" height="512" viewBox="0 0 510 510" width="512" xmlns="http://www.w3.org/2000/svg" xmlns:xlink="http://www.w3.org/1999/xlink"><linearGradient id="lg1"><stop offset="0" stop-color="#fff9df"/><stop offset=".593" stop-color="#ffe177"/><stop offset="1" stop-color="#feb237"/></linearGradient><linearGradient id="SVGID_1_" gradientUnits="userSpaceOnUse" x1="-29" x2="522.381" xlink:href="#lg1" y1="255" y2="255"/><linearGradient id="SVGID_2_" gradientUnits="userSpaceOnUse" x1="-49" x2="418.566" xlink:href="#lg1" y1="365.363" y2="365.363"/><linearGradient id="SVGID_3_" gradientUnits="userSpaceOnUse" x1="74.546" x2="494.657" y1="124.576" y2="124.576"><stop offset="0" stop-color="#ffe177"/><stop offset="1" stop-color="#feb237"/></linearGradient><g><path d="m491.184 120.386c-13.185-15.242-30.721-24.038-48.936-26.402-13.72-1.781-24.451-12.512-26.232-26.232-2.364-18.215-11.16-35.752-26.402-48.937-29.02-25.103-72.748-25.086-101.747.039-34.573 29.954-35.974 82.336-4.202 114.108.298.297.613.565.914.856l-150.759 150.761c-.292-.301-.559-.617-.856-.914-31.772-31.772-84.154-30.371-114.108 4.202-25.125 29-25.142 72.727-.039 101.747 13.185 15.242 30.722 24.038 48.937 26.402 13.72 1.781 24.451 12.512 26.232 26.232 2.364 18.215 11.16 35.751 26.402 48.936 29.019 25.103 72.747 25.087 101.747-.039 34.573-29.954 35.974-82.337 4.202-114.108-.298-.298-.613-.565-.914-.856l150.757-150.76c.292.301.559.617.856.914 31.771 31.771 84.154 30.371 114.108-4.202 25.127-29 25.143-72.728.04-101.747z" fill="url(#SVGID_1_)"/><g><path d="m225.421 376.18 150.757-150.757c-.255-.117-.517-.243-.785-.377-15.358-7.676-33.851-5.008-45.991 7.133l-123.879 125.412c-10.026 10.15-12.019 25.575-5.361 38.193 16.366 31.017 10.35 70.756-18.049 95.361-9.14 7.919-19.744 13.338-30.888 16.268 24.236 6.374 51.031.953 70.908-16.268 34.573-29.954 35.974-82.337 4.202-114.108-.297-.298-.613-.565-.914-.857z" fill="url(#SVGID_2_)"/><path d="m491.184 120.386c-13.185-15.242-30.721-24.038-48.936-26.402-13.72-1.781-24.451-12.512-26.232-26.232-2.364-18.215-11.16-35.752-26.402-48.937-19.874-17.19-46.644-22.595-70.859-16.228 11.124 2.926 21.709 8.332 30.839 16.229 15.242 13.185 24.038 30.722 26.402 48.937 1.781 13.72 12.512 24.451 26.232 26.232 18.215 2.364 35.751 11.16 48.936 26.402 25.103 29.019 25.087 72.747-.039 101.747-10.773 12.434-24.452 20.553-39.024 24.406 27.67 7.334 58.587-.793 79.044-24.406 25.126-29.001 25.142-72.729.039-101.748z" fill="url(#SVGID_3_)"/></g></g></svg>