<svg id="Capa_1" enable-background="new 0 0 510 510" height="512" viewBox="0 0 510 510" width="512" xmlns="http://www.w3.org/2000/svg" xmlns:xlink="http://www.w3.org/1999/xlink"><linearGradient id="lg1"><stop offset="0" stop-color="#f8f6f7"/><stop offset=".1788" stop-color="#f8f6f7"/><stop offset="1" stop-color="#e7e6f5"/></linearGradient><linearGradient id="SVGID_1_" gradientUnits="userSpaceOnUse" x1="171.5" x2="272.5" xlink:href="#lg1" y1="427.5" y2="427.5"/><linearGradient id="lg2"><stop offset="0" stop-color="#f8f6f7"/><stop offset="1" stop-color="#d1ceeb"/></linearGradient><linearGradient id="SVGID_2_" gradientUnits="userSpaceOnUse" x1="201" x2="278.929" xlink:href="#lg2" y1="384.265" y2="384.265"/><linearGradient id="lg3"><stop offset="0" stop-color="#fff9df"/><stop offset=".593" stop-color="#ffe177"/><stop offset="1" stop-color="#feb237"/></linearGradient><linearGradient id="SVGID_3_" gradientUnits="userSpaceOnUse" x1="197.333" x2="304.741" xlink:href="#lg3" y1="359.022" y2="359.022"/><linearGradient id="SVGID_4_" gradientUnits="userSpaceOnUse" x1="113" x2="313.489" xlink:href="#lg3" y1="359.02" y2="359.02"/><linearGradient id="SVGID_5_" gradientUnits="userSpaceOnUse" x1="123.003" x2="398.393" xlink:href="#lg1" y1="170.729" y2="170.729"/><linearGradient id="SVGID_6_" gradientUnits="userSpaceOnUse" x1="166.815" x2="350.799" y1="194.481" y2="194.481"><stop offset="0" stop-color="#01d0fb"/><stop offset=".6075" stop-color="#26a6fe"/><stop offset="1" stop-color="#0182fc"/></linearGradient><linearGradient id="lg4"><stop offset="0" stop-color="#01bffa"/><stop offset=".2539" stop-color="#1f9efc"/><stop offset=".5724" stop-color="#407afd"/><stop offset=".8326" stop-color="#5464ff"/><stop offset="1" stop-color="#5b5cff"/></linearGradient><linearGradient id="SVGID_7_" gradientUnits="userSpaceOnUse" x1="145.57" x2="508.729" xlink:href="#lg4" y1="145.618" y2="145.618"/><linearGradient id="SVGID_8_" gradientUnits="userSpaceOnUse" x1="145.57" x2="508.729" xlink:href="#lg4" y1="188.028" y2="188.028"/><linearGradient id="SVGID_9_" gradientUnits="userSpaceOnUse" x1="145.57" x2="508.729" xlink:href="#lg4" y1="192.729" y2="192.729"/><linearGradient id="SVGID_10_" gradientUnits="userSpaceOnUse" x1="227.618" x2="395.08" xlink:href="#lg4" y1="194.481" y2="194.481"/><linearGradient id="SVGID_11_" gradientUnits="userSpaceOnUse" x1="202.12" x2="406.38" xlink:href="#lg2" y1="170.729" y2="170.729"/><g><path d="m189 510c-4.479 0-8.957-1.708-12.375-5.125-6.834-6.834-6.834-17.915 0-24.749l44.482-44.482c10.571-10.571 16.393-24.625 16.393-39.575v-33.569c0-9.665 7.835-17.5 17.5-17.5s17.5 7.835 17.5 17.5v33.569c0 24.298-9.462 47.142-26.644 64.324l-44.482 44.482c-3.417 3.417-7.895 5.125-12.374 5.125z" fill="url(#SVGID_1_)"/><path d="m272.5 362.5v33.57c0 .82-.01 1.64-.04 2.45-.22 8.6-1.63 17-4.16 25.01h-37.98c4.3-7.59 6.75-16.11 7.12-25.01.04-.81.06-1.63.06-2.45v-33.57c0-9.67 7.83-17.5 17.5-17.5s17.5 7.83 17.5 17.5z" fill="url(#SVGID_2_)"/><path d="m294.689 398.522h-79.379c-19.402 0-35.131-15.729-35.131-35.131v-43.869h149.64v43.869c.001 19.402-15.728 35.131-35.13 35.131z" fill="url(#SVGID_3_)"/><path d="m329.82 319.52v43.87c0 19.402-15.728 35.13-35.13 35.13h-40.02c1.53 0 3.037-.098 4.516-.288 19.603-2.516 17.396-31.762-2.368-31.762h-60.999c-8.659 0-15.676-7.017-15.674-15.675.004-13.655.035-31.275.035-31.275z" fill="url(#SVGID_4_)"/><path d="m338.525 341.457h-167.05c-20.462 0-37.05-16.588-37.05-37.05v-267.357c0-20.462 16.588-37.05 37.05-37.05h167.05c20.462 0 37.05 16.588 37.05 37.05v267.357c0 20.462-16.588 37.05-37.05 37.05z" fill="url(#SVGID_5_)"/><path d="m279.025 307.912h-48.05c-31.221 0-56.53-25.309-56.53-56.53v-145.128c0-13.92 11.285-25.205 25.205-25.205h110.7c13.92 0 25.205 11.285 25.205 25.205v145.128c0 31.221-25.31 56.53-56.53 56.53z" fill="url(#SVGID_6_)"/><g><circle cx="242.003" cy="145.618" fill="url(#SVGID_7_)" r="8"/><path d="m220.481 172.217c-8.732 0-15.811 7.079-15.811 15.811s7.079 15.811 15.811 15.811 15.811-7.079 15.811-15.811-7.079-15.811-15.811-15.811z" fill="url(#SVGID_8_)"/><path d="m269.209 181.618c-6.136 0-11.11 4.974-11.11 11.111 0 6.136 4.974 11.11 11.11 11.11s11.111-4.974 11.111-11.11c-.001-6.137-4.975-11.111-11.111-11.111z" fill="url(#SVGID_9_)"/></g><path d="m310.35 81.05h-40.02c13.92 0 25.205 11.285 25.205 25.205v145.128c0 31.22-25.309 56.53-56.53 56.53h40.02c31.221 0 56.53-25.309 56.53-56.53v-145.129c0-13.92-11.285-25.204-25.205-25.204z" fill="url(#SVGID_10_)"/><path d="m338.525 0h-40.02c20.462 0 37.05 16.588 37.05 37.05v267.357c0 20.462-16.588 37.05-37.05 37.05h40.02c20.462 0 37.05-16.588 37.05-37.05v-267.357c0-20.462-16.588-37.05-37.05-37.05z" fill="url(#SVGID_11_)"/></g></svg>